<svg width="90" height="96" viewBox="0 0 90 96" fill="none" xmlns="http://www.w3.org/2000/svg">
<path d="M45 95.5C69.8528 95.5 90 75.3528 90 50.5C90 25.6472 69.8528 5.5 45 5.5C20.1472 5.5 0 25.6472 0 50.5C0 75.3528 20.1472 95.5 45 95.5Z" fill="#00B964"/>
<path d="M45 95.5C69.8528 95.5 90 75.3528 90 50.5C90 25.6472 69.8528 5.5 45 5.5C20.1472 5.5 0 25.6472 0 50.5C0 75.3528 20.1472 95.5 45 95.5Z" fill="#00B964"/>
<path d="M44.9996 25.1C44.4996 25.1 44.0996 24.7001 44.0996 24.2001V18.8C44.1996 18.3 44.5996 17.9 45.0996 18C45.4996 18 45.8996 18.4 45.8996 18.8V24.2001C45.8996 24.7001 45.4996 25.1 44.9996 25.1Z" fill="#78DDA3"/>
<path d="M44.9996 14.4999C44.4996 14.4999 44.0996 14.0999 44.0996 13.5999V1.39995C44.1996 0.899946 44.5996 0.499897 45.0996 0.599897C45.4996 0.599897 45.8996 0.999946 45.8996 1.39995V13.5999C45.8996 14.0999 45.4996 14.4999 44.9996 14.4999Z" fill="#78DDA3"/>
<path d="M64.6004 36.5C64.4004 36.5 64.1004 36.4 64.0004 36.3C63.7004 35.9 63.7004 35.3 64.0004 35L81.4004 16.3C81.8004 16 82.4004 16 82.7004 16.3C83.0004 16.7 83.0004 17.2999 82.7004 17.5999L65.3004 36.3C65.1004 36.4 64.9004 36.5 64.6004 36.5Z" fill="#78DDA3"/>
<path d="M25.3998 36.5001C25.0998 36.5001 24.8998 36.4001 24.6998 36.2001L7.39978 17.5001C6.99978 17.2001 6.99978 16.6001 7.29978 16.2001C7.59978 15.8001 8.19978 15.8001 8.59978 16.1001L8.69978 16.2001L25.9998 34.9001C26.3998 35.3001 26.3998 35.8001 25.9998 36.2001C25.8998 36.4001 25.5998 36.5001 25.3998 36.5001Z" fill="#78DDA3"/>
<path d="M59.9001 25.0999C59.8001 25.0999 59.7001 25.0999 59.6001 25.0999C59.1001 24.8999 58.8001 24.4 59.0001 23.9L63.5001 9.69999C63.6001 9.19999 64.2001 8.99995 64.6001 9.09995C65.1001 9.29995 65.4001 9.79996 65.2001 10.3L60.7001 24.5C60.7001 24.8 60.3001 25.0999 59.9001 25.0999Z" fill="#78DDA3"/>
<path d="M30.1003 25.1C29.7003 25.1 29.3003 24.8001 29.2003 24.4001L24.7003 10.1C24.5003 9.6 24.8003 9.10005 25.3003 8.90005C25.8003 8.70005 26.3003 9.00003 26.5003 9.50003L31.0003 23.7C31.2003 24.2 30.9003 24.7001 30.4003 24.9001C30.3003 25.0001 30.2003 25 30.1003 25.1Z" fill="#78DDA3"/>
<path d="M33.3004 87.8C33.1004 87.8 32.8004 87.7 32.6004 87.5L29.7004 84.6C29.3004 84.2 29.3004 83.7 29.7004 83.3L32.6004 80.4C33.0004 80.1 33.6004 80.1 33.9004 80.4L36.8004 83.3C37.2004 83.7 37.2004 84.2 36.8004 84.6L33.9004 87.5C33.8004 87.7 33.6004 87.8 33.3004 87.8ZM31.7004 84L33.2004 85.5L34.7004 84L33.3004 82.5L31.7004 84Z" fill="#78DDA3"/>
<path d="M83.8996 52.6999H81.3996V50.1999C81.2996 49.6999 80.8996 49.2999 80.3996 49.3999C79.9996 49.3999 79.5996 49.7999 79.5996 50.1999V52.6999H76.9996C76.4996 52.6999 76.0996 53.0999 76.0996 53.5999C76.0996 54.0999 76.4996 54.5999 76.9996 54.5999H79.4996V57.0999C79.5996 57.5999 79.9996 57.9999 80.4996 57.8999C80.8996 57.8999 81.2996 57.4999 81.2996 57.0999V54.5999H83.7996C84.2996 54.5999 84.6996 54.0999 84.6996 53.5999C84.7996 53.1999 84.3996 52.6999 83.8996 52.6999Z" fill="#78DDA3"/>
<path d="M8.30039 50.9C9.07359 50.9 9.70039 50.2732 9.70039 49.5C9.70039 48.7268 9.07359 48.1 8.30039 48.1C7.52719 48.1 6.90039 48.7268 6.90039 49.5C6.90039 50.2732 7.52719 50.9 8.30039 50.9Z" fill="#78DDA3"/>
<path d="M76.9996 36.9999C77.7728 36.9999 78.3996 36.3731 78.3996 35.5999C78.3996 34.8267 77.7728 34.2 76.9996 34.2C76.2264 34.2 75.5996 34.8267 75.5996 35.5999C75.5996 36.3731 76.2264 36.9999 76.9996 36.9999Z" fill="#78DDA3"/>
<path d="M47.1998 82.9999C47.973 82.9999 48.5998 82.3731 48.5998 81.5999C48.5998 80.8267 47.973 80.2 47.1998 80.2C46.4266 80.2 45.7998 80.8267 45.7998 81.5999C45.7998 82.3731 46.4266 82.9999 47.1998 82.9999Z" fill="#78DDA3"/>
<path d="M21.8004 75.9999C22.5736 75.9999 23.2004 75.3731 23.2004 74.5999C23.2004 73.8267 22.5736 73.2 21.8004 73.2C21.0272 73.2 20.4004 73.8267 20.4004 74.5999C20.4004 75.3731 21.0272 75.9999 21.8004 75.9999Z" fill="#78DDA3"/>
<path d="M10.9998 40.2001C8.9998 40.2001 7.2998 38.5001 7.2998 36.5001C7.2998 34.5001 8.9998 32.8 10.9998 32.8C12.9998 32.8 14.6998 34.5001 14.6998 36.5001C14.6998 38.5001 12.9998 40.2001 10.9998 40.2001ZM10.9998 34.7001C9.9998 34.7001 9.1998 35.5001 9.1998 36.5001C9.1998 37.5001 9.9998 38.3 10.9998 38.3C11.9998 38.3 12.7998 37.5001 12.7998 36.5001C12.7998 35.5001 11.9998 34.7001 10.9998 34.7001Z" fill="#78DDA3"/>
<path d="M70.6981 47.2461C70.8176 43.6584 68.0508 40.6547 64.5183 40.5371C60.9857 40.4194 58.0252 43.2325 57.9058 46.8202C57.7863 50.4079 60.5531 53.4116 64.0856 53.5293C67.6181 53.6469 70.5787 50.8338 70.6981 47.2461Z" fill="white"/>
<path d="M59.491 33.434C59.6105 29.8463 56.8437 26.8426 53.3112 26.7249C49.7787 26.6073 46.8182 29.4204 46.6987 33.0081C46.5793 36.5957 49.3461 39.5995 52.8786 39.7171C56.4111 39.8348 59.3716 37.0217 59.491 33.434Z" fill="white"/>
<path d="M32.1427 47.0518C32.2192 43.5179 29.3717 40.5901 25.7825 40.5124C22.1934 40.4347 19.2218 43.2366 19.1453 46.7705C19.0688 50.3044 21.9164 53.2322 25.5055 53.3099C29.0947 53.3875 32.0662 50.5857 32.1427 47.0518Z" fill="white"/>
<path d="M36.7998 39.7C40.3897 39.7 43.2998 36.7898 43.2998 33.2C43.2998 29.6101 40.3897 26.7 36.7998 26.7C33.21 26.7 30.2998 29.6101 30.2998 33.2C30.2998 36.7898 33.21 39.7 36.7998 39.7Z" fill="white"/>
<path d="M57.2999 56.2C54.1999 53.8 54.1998 50.4 53.5998 48.2C53.4998 47.9 53.3999 47.6 53.2999 47.2C52.0999 44.3 49.4999 42.2 46.3999 41.7C45.8999 41.6 45.4999 41.6 44.9999 41.6C44.4999 41.6 43.9998 41.6 43.5998 41.7C40.4998 42.2 37.8999 44.3 36.6999 47.2C36.5999 47.5 36.4999 47.8 36.3999 48.2C35.7999 50.4 35.8999 53.8 32.6999 56.2C29.8999 58.2 28.2998 61.6 28.7998 65C29.4998 69.9 34.0999 73.2 38.8999 72.5C39.9999 72.3 41.0998 71.9 42.0998 71.4C42.9998 70.9 43.9999 70.6 44.9999 70.6C45.9999 70.6 46.9999 70.9 47.8999 71.4C52.0999 73.9 57.5998 72.5 60.0998 68.3C60.6998 67.3 61.0998 66.2 61.1998 65.1C61.5998 61.6 60.0999 58.2 57.2999 56.2Z" fill="white"/>
<path d="M54.7002 67.8C54.4002 67.8 54.1002 67.7 53.9002 67.4C53.6002 67 53.7002 66.4 54.1002 66.1C54.7002 65.6 55.2002 65 55.3002 64.2C55.4002 63.2 55.0002 62.1 54.2002 61.5L53.8002 61.1C53.4002 60.8 53.3002 60.2 53.6002 59.8C53.9002 59.4 54.5002 59.3 54.9002 59.6L55.0002 59.7L55.5002 60.2C56.7002 61.3 57.3002 62.9 57.2002 64.5C57.0002 65.8 56.3002 66.9 55.2002 67.7C55.0002 67.7 54.8002 67.8 54.7002 67.8Z" fill="#78DDA3"/>
<path d="M52.1004 59.0999C51.8004 59.0999 51.6004 58.9999 51.4004 58.7999C51.1004 58.3999 50.8004 57.9999 50.6004 57.6999C50.3004 57.2999 50.4004 56.7 50.9004 56.4C51.3004 56.1 51.9004 56.1999 52.2004 56.6999C52.4004 56.9999 52.7004 57.3999 52.9004 57.6999C53.2004 58.0999 53.2004 58.6999 52.8004 58.9999C52.5004 58.9999 52.3004 59.0999 52.1004 59.0999Z" fill="#78DDA3"/>
<path d="M24.1 59.2C22.4 59.2 20.7 59.9 19.5 61.2C17.8 59.1 15.3 58 12.6 58C11.8 58 10.9 58.1 10.2 58.4C8 59.1 6.1 60.5 4.9 62.6C4.7 62.9 4.7 63.2 4.9 63.5C6.1 65.5 8 67 10.2 67.7C11 67.9 11.8 68 12.6 68C15.3 68 17.8 66.8 19.5 64.8C20.7 66 22.4 66.7 24.1 66.8C24.6 66.8 25 66.4 25 65.9V60.3C25 59.6 24.6 59.2 24.1 59.2ZM6.8 62.9C7.5 61.9 8.5 61 9.6 60.5V65.3C8.4 64.8 7.5 63.9 6.8 62.9ZM12.6 66C12.2 66 11.8 66 11.4 65.9V59.9C11.8 59.8 12.2 59.8 12.6 59.8C14.9 59.8 17.1 60.9 18.4 62.8V63C17.1 64.9 15 66 12.6 66ZM23.2 64.6C22.2 64.4 21.2 63.8 20.6 62.9V62.8C21.3 62 22.2 61.4 23.2 61.1V64.6Z" fill="#78DDA3"/>
<path d="M80.0002 84.6H71.0002C71.0002 84.5 71.0002 84.4 71.0002 84.3L69.7002 80.8C73.2002 80.3 75.7002 77.3 75.9002 73.8V70.3H78.3002C78.8002 70.3 79.2002 69.9 79.2002 69.4C79.2002 69.1 79.1002 68.8 78.9002 68.7L74.8002 65.4C74.1002 64.5 73.0002 64 71.8002 64C70.3002 64 69.0002 64.8 68.3002 66.1V66.2L58.6002 81.2C58.4002 81.6 58.5002 82.2 58.9002 82.5C59.0002 82.6 59.2002 82.7 59.4002 82.7C59.7002 82.7 60.0002 82.5 60.2002 82.3L61.0002 81H64.4002L65.7002 84.8H57.7002C57.1002 84.8 56.7002 85.2 56.7002 85.8C56.7002 86.3 57.2002 86.7 57.7002 86.7H80.0002C80.5002 86.7 80.9002 86.3 80.9002 85.8C80.9002 85 80.5002 84.6 80.0002 84.6ZM71.8002 65.8C73.0002 65.8 74.0002 66.8 74.0002 68V69.4V71.7C72.8002 73.5 71.3002 75 69.2002 75H64.7002L69.7002 67.2V67C70.1002 66.2 70.9002 65.7 71.8002 65.8ZM63.4002 76.9H69.1002C70.9002 76.9 72.5002 76.1 73.7002 74.8C73.1002 77.2 71.0002 78.8 68.5002 78.9H62.1002L63.4002 76.9ZM67.6002 84.2L66.4002 80.7H67.7002L69.0002 84.5H67.7002C67.7002 84.5 67.7002 84.3 67.6002 84.2Z" fill="#78DDA3"/>
<path d="M71.9006 69.2999C72.3424 69.2999 72.7006 68.9418 72.7006 68.4999C72.7006 68.0581 72.3424 67.7 71.9006 67.7C71.4588 67.7 71.1006 68.0581 71.1006 68.4999C71.1006 68.9418 71.4588 69.2999 71.9006 69.2999Z" fill="#78DDA3"/>
</svg>
