<svg width="98" height="94" viewBox="0 0 98 94" fill="none" xmlns="http://www.w3.org/2000/svg">
<path d="M49 90.3C73.8528 90.3 94 70.1529 94 45.3C94 20.4472 73.8528 0.300049 49 0.300049C24.1472 0.300049 4 20.4472 4 45.3C4 70.1529 24.1472 90.3 49 90.3Z" fill="#00B964"/>
<path d="M19.7002 41.5001H19.4002L10.2002 38.2C9.70019 38 9.5002 37.5001 9.6002 37.0001C9.8002 36.5001 10.3002 36.3 10.8002 36.4L20.0002 39.7C20.5002 39.9 20.7002 40.4 20.5002 40.9C20.5002 41.3 20.1002 41.5001 19.7002 41.5001Z" fill="#78DDA3"/>
<path d="M10.6002 54.3C10.1002 54.3 9.7002 53.8998 9.7002 53.3998C9.7002 52.9998 9.9002 52.6999 10.3002 52.4999L19.5002 49.1999C20.0002 48.9999 20.5002 49.2999 20.7002 49.6999C20.9002 50.1999 20.6002 50.6998 20.1002 50.8998L10.9002 54.1999C10.8002 54.2999 10.7002 54.3 10.6002 54.3Z" fill="#78DDA3"/>
<path d="M9.2002 46.1001H1.1002C0.600195 46.1001 0.200195 45.7 0.200195 45.2C0.200195 44.7 0.600195 44.3 1.1002 44.3H9.2002C9.7002 44.3 10.1002 44.7 10.1002 45.2C10.1002 45.7 9.7002 46.1001 9.2002 46.1001Z" fill="#78DDA3"/>
<path d="M19.7004 46.1001H13.3004C12.8004 46.1001 12.4004 45.7 12.4004 45.2C12.4004 44.7 12.8004 44.3 13.3004 44.3H19.7004C20.2004 44.3 20.6004 44.7 20.6004 45.2C20.7004 45.7 20.2004 46.1001 19.7004 46.1001Z" fill="#78DDA3"/>
<path d="M54.7 10.3999C52.7 10.3999 51 8.79995 51 6.69995C51 4.69995 52.6 3 54.7 3C56.7 3 58.4 4.59995 58.4 6.69995C58.4 8.79995 56.7 10.3999 54.7 10.3999ZM54.7 4.8999C53.7 4.8999 52.9 5.69995 52.9 6.69995C52.9 7.69995 53.7 8.5 54.7 8.5C55.7 8.5 56.5 7.69995 56.5 6.69995C56.5 5.79995 55.7 4.9999 54.7 4.8999C54.7 4.9999 54.8 4.9999 54.7 4.8999Z" fill="#78DDA3"/>
<path d="M27.8998 16.3L29.6998 14.5C29.8998 14 29.6998 13.3999 29.1998 13.1999C28.8998 13.0999 28.5998 13.0999 28.2998 13.1999L26.4998 15L24.6998 13.1C24.2998 12.7 23.7998 12.7 23.3998 13.1C23.0998 13.5 23.0998 14.0999 23.3998 14.3999L25.1998 16.1999L23.3998 18.1C23.0998 18.5 23.0998 19.0999 23.3998 19.3999C23.5998 19.5999 23.7998 19.6999 23.9998 19.6999C24.1998 19.6999 24.4998 19.5999 24.6998 19.3999L26.4998 17.6L28.2998 19.3999C28.6998 19.6999 29.2998 19.6999 29.5998 19.3999C29.8998 18.9999 29.8998 18.4 29.5998 18.1L27.8998 16.3Z" fill="#78DDA3"/>
<path d="M63.1998 68.6001C59.3998 68.6001 56.2998 71.7 56.2998 75.5C56.2998 79.3 59.3998 82.3999 63.1998 82.3999C66.9998 82.3999 70.0998 79.3 70.0998 75.5C70.0998 71.7 66.9998 68.6001 63.1998 68.6001ZM68.1998 74.6001H64.1998V70.6001C66.2998 71.0001 67.7998 72.5001 68.1998 74.6001ZM63.1998 80.5C60.3998 80.8 57.9998 78.7 57.6998 76C57.3998 73.2 59.4998 70.8 62.1998 70.5V75.5C62.1998 76 62.5998 76.3999 63.0998 76.3999H68.0998C67.6998 78.7999 65.5998 80.5 63.1998 80.5Z" fill="#78DDA3"/>
<path d="M40.9 13.2C41.6732 13.2 42.3 12.5732 42.3 11.8C42.3 11.0269 41.6732 10.3999 40.9 10.3999C40.1268 10.3999 39.5 11.0269 39.5 11.8C39.5 12.5732 40.1268 13.2 40.9 13.2Z" fill="#78DDA3"/>
<path d="M75.1998 22.2C75.973 22.2 76.5998 21.5732 76.5998 20.8C76.5998 20.0269 75.973 19.3999 75.1998 19.3999C74.4266 19.3999 73.7998 20.0269 73.7998 20.8C73.7998 21.5732 74.4266 22.2 75.1998 22.2Z" fill="#78DDA3"/>
<path d="M16.4996 27.6001C17.2728 27.6001 17.8996 26.9731 17.8996 26.2C17.8996 25.4268 17.2728 24.8 16.4996 24.8C15.7264 24.8 15.0996 25.4268 15.0996 26.2C15.0996 26.9731 15.7264 27.6001 16.4996 27.6001Z" fill="#78DDA3"/>
<path d="M77.4 75.8999C78.1732 75.8999 78.8 75.2732 78.8 74.5C78.8 73.7268 78.1732 73.1001 77.4 73.1001C76.6268 73.1001 76 73.7268 76 74.5C76 75.2732 76.6268 75.8999 77.4 75.8999Z" fill="#78DDA3"/>
<path d="M20.6998 71.1001C21.473 71.1001 22.0998 70.4731 22.0998 69.7C22.0998 68.9268 21.473 68.3 20.6998 68.3C19.9266 68.3 19.2998 68.9268 19.2998 69.7C19.2998 70.4731 19.9266 71.1001 20.6998 71.1001Z" fill="#78DDA3"/>
<path d="M90.2002 64.6001H7.70019C7.20019 64.5001 6.80019 64.1001 6.90019 63.6001C6.90019 63.2001 7.30019 62.8001 7.70019 62.8001H90.2002C90.7002 62.7001 91.2002 63.1001 91.2002 63.6001C91.3002 64.1001 90.9002 64.6001 90.4002 64.6001C90.4002 64.6001 90.3002 64.6001 90.2002 64.6001Z" fill="#78DDA3"/>
<path d="M49.3006 68.3999H41.7006C41.2006 68.3999 40.8006 68.8 40.8006 69.3V72.1001H34.1006C33.6006 72.1001 33.2006 72.5 33.2006 73V75.8H26.5006C26.0006 75.8 25.6006 76.2 25.6006 76.7V93.1001C25.6006 93.6001 26.0006 94 26.5006 94H49.3006C49.8006 94 50.2006 93.6001 50.2006 93.1001V69.3C50.2006 68.8 49.8006 68.3999 49.3006 68.3999ZM40.7006 73.8999V92.2H35.1006V76.7C35.1006 76.6 35.1006 76.4999 35.1006 76.3999V73.8999H40.7006ZM27.4006 77.6001H33.1006V92.2H27.5006L27.4006 77.6001ZM48.3006 92.2H42.7006V70.3H48.4006L48.3006 92.2Z" fill="#78DDA3"/>
<path d="M78.3 41.4999C77.9 41.4999 77.5 41.2998 77.4 40.8998C77.3 40.3998 77.5 39.8999 78 39.6999L87.2 36.3998C87.7 36.1998 88.2 36.4998 88.4 36.8998C88.5 37.3998 88.3 37.9 87.8 38.1L78.6 41.3998C78.5 41.4998 78.4 41.4999 78.3 41.4999Z" fill="#78DDA3"/>
<path d="M87.4 54.3001H87.0999L77.8999 51.0001C77.3999 50.8001 77.1 50.3001 77.3 49.8001C77.5 49.3001 77.9999 49.1 78.4999 49.2L87.6999 52.5001C88.1999 52.6001 88.5 53.2002 88.3 53.6002C88.2 54.1002 87.8 54.4001 87.4 54.3001Z" fill="#78DDA3"/>
<path d="M96.9004 46.1001H88.8004C88.3004 46.1001 87.9004 45.7 87.9004 45.2C87.9004 44.7 88.3004 44.3 88.8004 44.3H96.9004C97.4004 44.3 97.8004 44.7 97.8004 45.2C97.8004 45.7 97.4004 46.1001 96.9004 46.1001Z" fill="#78DDA3"/>
<path d="M84.7004 46.1001H78.3004C77.8004 46.1001 77.4004 45.7 77.4004 45.2C77.4004 44.7 77.8004 44.3 78.3004 44.3H84.7004C85.2004 44.3 85.6004 44.7 85.6004 45.2C85.6004 45.7 85.2004 46.1001 84.7004 46.1001Z" fill="#78DDA3"/>
<path d="M29.2119 46.0312H36.6303V57.3443H29.2119V46.0312Z" fill="white"/>
<path d="M39.5977 41.5801H47.016V57.3442H39.5977V41.5801Z" fill="white"/>
<path d="M49.9834 36.0164H57.4018V57.3442H49.9834V36.0164Z" fill="white"/>
<path d="M60.3691 32.3071H67.7875V57.3442H60.3691V32.3071Z" fill="white"/>
<path d="M49.9834 47.4926V57.3439H57.4018V43.8892C55.1231 45.1882 52.6371 46.4017 49.9834 47.4926V47.4926Z" fill="white"/>
<path d="M45.3377 49.2162C43.4045 49.8587 41.4855 50.4062 39.5977 50.862V57.3444H47.016V48.6355C46.4626 48.8345 45.9031 49.0283 45.3377 49.2162V49.2162Z" fill="white"/>
<path d="M29.2119 52.4787V57.344H36.6303V51.5083C34.064 52.0059 31.5761 52.3275 29.2119 52.4787V52.4787Z" fill="white"/>
<path d="M60.3691 42.0735V57.3441H67.7875V35.9072C65.8506 38.0298 63.3392 40.1213 60.3691 42.0735Z" fill="white"/>
<path d="M71.3115 56.6553H68.4759V45.9142C68.4759 45.534 68.1677 45.2257 67.7874 45.2257C67.4072 45.2257 67.099 45.534 67.099 45.9142V56.6553H61.0578V32.9956H67.099V42.7013C67.099 43.0815 67.4072 43.3898 67.7874 43.3898C68.1677 43.3898 68.4759 43.0815 68.4759 42.7013V32.3071C68.4759 31.9269 68.1677 31.6187 67.7874 31.6187H60.3693C59.9891 31.6187 59.6809 31.9269 59.6809 32.3071V56.6553H58.0906V36.0164C58.0906 35.6361 57.7823 35.3279 57.4021 35.3279H49.9837C49.6035 35.3279 49.2952 35.6361 49.2952 36.0164V56.6553H47.7049V41.5802C47.7049 41.1999 47.3966 40.8917 47.0164 40.8917H39.598C39.2178 40.8917 38.9095 41.1999 38.9095 41.5802V56.6553H37.3191V46.0312C37.3191 45.651 37.0109 45.3427 36.6307 45.3427H29.2122C28.832 45.3427 28.5237 45.651 28.5237 46.0312V56.6553H25.6885C25.3083 56.6553 25 56.9636 25 57.3438V60.3116C25 60.6918 25.3083 61.0001 25.6885 61.0001H33.124C33.5042 61.0001 33.8125 60.6918 33.8125 60.3116C33.8125 59.9314 33.5042 59.6231 33.124 59.6231H26.377V58.0323H70.623V59.6231H36.3369C35.9567 59.6231 35.6484 59.9314 35.6484 60.3116C35.6484 60.6918 35.9567 61.0001 36.3369 61.0001H71.3115C71.6917 61.0001 72 60.6918 72 60.3116V57.3438C72 56.9636 71.6917 56.6553 71.3115 56.6553ZM50.6722 36.7048H56.7136V56.6553H50.6722V36.7048ZM40.2864 42.2686H46.3278V56.6553H40.2864V42.2686ZM29.9007 46.7197H35.9421V56.6553H29.9007V46.7197Z" fill="#78DDA3"/>
<path d="M29.1191 39.1156H39.5968C40.2047 39.1156 40.7885 38.8589 41.1986 38.4114L49.733 29.1006H55.5465C56.127 29.1006 56.6725 28.8748 57.0826 28.4647L64.1314 21.4159V23.5908C64.1314 23.9711 64.4396 24.2793 64.8199 24.2793H67.7867C68.167 24.2793 68.4752 23.9711 68.4752 23.5908V16.1719C68.4752 14.9743 67.5009 14 66.3033 14H58.8852C58.505 14 58.1967 14.3083 58.1967 14.6885V17.6563C58.1967 18.0365 58.505 18.3447 58.8852 18.3447H61.0593L54.6473 24.7568H48.7774C48.1702 24.7568 47.5867 25.0135 47.1767 25.4609L38.6413 34.7718H36.7429C36.3626 34.7718 36.0544 35.0801 36.0544 35.4603C36.0544 35.8405 36.3626 36.1487 36.7429 36.1487H38.9442C39.1371 36.1487 39.3213 36.0678 39.4516 35.9255L48.1917 26.3914C48.3417 26.2277 48.5551 26.1338 48.7774 26.1338H54.9323C55.1149 26.1338 55.2901 26.0613 55.4191 25.9321L63.2081 18.1432C63.405 17.9463 63.4639 17.6501 63.3574 17.3929C63.2508 17.1356 62.9997 16.9679 62.7213 16.9679H59.5736V15.377H66.3032C66.7415 15.377 67.0982 15.7336 67.0982 16.1719V22.9025H65.5083V19.7538C65.5083 19.4754 65.3405 19.2243 65.0832 19.1178C64.8261 19.0114 64.5298 19.0701 64.333 19.267L56.109 27.491C55.959 27.641 55.7591 27.7236 55.5465 27.7236H49.4301C49.2371 27.7236 49.053 27.8046 48.9226 27.9469L40.1834 37.481C40.0334 37.6448 39.8196 37.7387 39.5968 37.7387H29.8076V36.1487H33.53C33.9102 36.1487 34.2185 35.8405 34.2185 35.4603C34.2185 35.0801 33.9102 34.7718 33.53 34.7718H29.1191C28.7389 34.7718 28.4307 35.0801 28.4307 35.4603V38.4271C28.4307 38.8074 28.7389 39.1156 29.1191 39.1156V39.1156Z" fill="#78DDA3"/>
</svg>
