<svg width="90" height="90" viewBox="0 0 90 90" fill="none" xmlns="http://www.w3.org/2000/svg">
<path d="M45 90C69.8528 90 90 69.8528 90 45C90 20.1472 69.8528 0 45 0C20.1472 0 0 20.1472 0 45C0 69.8528 20.1472 90 45 90Z" fill="#00B964"/>
<path d="M24.5225 8.5L23.1692 10.3949C22.9436 10.7106 22.9436 11.4474 23.1692 11.7631C23.3948 12.079 23.921 12.079 24.1466 11.7631L25.5 9.86853L26.8534 11.7631C27.079 12.079 27.6052 12.079 27.8308 11.7631C28.0564 11.4474 28.0564 10.7106 27.8308 10.3949L26.4775 8.5L27.8308 6.60536C28.0564 6.28958 28.0564 5.55263 27.8308 5.23684C27.6052 4.92105 27.079 4.92105 26.8534 5.23684L25.5 7.13168L24.1466 5.23684C23.921 4.92105 23.3948 4.92105 23.1692 5.23684C22.9436 5.55263 22.9436 6.28958 23.1692 6.60536L24.5225 8.5Z" fill="#78DDA3"/>
<path d="M47.5001 78C46.577 78 46 78.5 46 78.9286C46 79.3572 46.8077 80 47.5001 80C48.3077 80 49 79.5 49 79.0715C49 78.6429 48.423 78 47.5001 78Z" fill="#78DDA3"/>
<path d="M11 56C11.5523 56 12 55.3283 12 54.5001C12 53.6716 11.5523 53 11 53C10.4477 53 10 53.6716 10 54.5001C10 55.3283 10.4477 56 11 56Z" fill="#78DDA3"/>
<path d="M80.7225 65.1746C80.244 64.9188 79.5742 64.9188 79.2871 65.345C79.0957 65.5156 79.0957 65.7715 79 65.9421C79 66.1978 79.1914 66.5388 79.2871 66.6241L86.3687 71.8255C86.8472 72.0812 87.517 72.0812 87.8041 71.6549C88.0912 71.2286 88.0912 70.6317 87.6127 70.3759L80.7225 65.1746Z" fill="#78DDA3"/>
<path d="M72.2379 59.3884C72.0793 59.5623 72.0793 59.8231 72 59.997C72 60.2578 72.1586 60.6055 72.2379 60.6924L75.6481 63.822C76.0446 64.0828 76.5997 64.0828 76.8376 63.6481C77.0756 63.2135 77.0756 62.605 76.679 62.3441L73.2689 59.2146C73.1896 58.8669 72.6345 58.9537 72.2379 59.3884Z" fill="#78DDA3"/>
<path d="M16.584 63.0626L1.67034 68.7474C1.20428 68.9504 0.924645 69.5594 1.01786 70.27C1.20428 70.7775 1.76354 71.0821 2.41601 70.9805L17.3297 65.296C17.7957 65.0929 18.0754 64.5853 17.9821 64.0778C17.9821 63.8746 17.9821 63.8748 17.9821 63.7733C17.6094 63.1642 17.0501 62.8596 16.584 63.0626Z" fill="#78DDA3"/>
<path d="M71.7868 63.4876C71.5187 63.0121 70.8933 62.822 70.4466 63.2023C70.1786 63.3926 70 63.6777 70 63.963C70 64.1532 70 64.4386 70.1786 64.6288L79.2018 78.5125C79.4699 78.9879 80.0953 79.178 80.5419 78.7976C80.9886 78.5124 81.1673 77.8468 80.8099 77.3713L71.7868 63.4876Z" fill="#78DDA3"/>
<path d="M79 44.9999C79 46.6667 80.4167 48 82 48C83.5834 48 85 46.5833 85 44.9999C85 43.4167 83.5834 42 82 42C80.4167 42 79 43.3333 79 44.9999ZM83.4167 44.9999C83.4167 45.8333 82.7501 46.5 81.9167 46.5C81.0833 46.5 80.4167 45.8333 80.4167 44.9999C80.4167 44.1667 81.0833 43.5 81.9167 43.5C82.8333 43.5 83.4167 44.1667 83.4167 44.9999Z" fill="#78DDA3"/>
<path d="M31.7784 40.4616H22C23.1176 36.0307 27.122 33.0768 28.9846 32.1539L31.5 32.5L38.763 28C37.6454 30.2153 41.0912 34.4615 42.9537 36.3077H58.3198L62.5106 41.8461H51.3352C45.7476 44.0615 49.0071 46.4615 51.3352 47.3846H62.5106C64.7456 52.9231 60 63 55.526 64H47.1445H41.5569H34.5722V62.6154V61.2308V59.8461L42.9537 58.4616C50.7765 59.5693 53.5 57.923 53.5 57C54.6176 53.6769 52.2665 52 51.3352 51.5384H38.763H31.7784C31.7784 51.5384 27.0587 52.2277 26.1907 50.1539C25.7732 49.1562 26.1907 47.3846 26.1907 47.3846L27.5876 46L33.1754 44.6154V41.8461L31.7784 40.4616Z" fill="white"/>
<path d="M61.5737 8.53606C58.5487 9.08953 55.1033 9.84783 52.5028 11.8548C50.3913 13.4842 49.9761 15.3008 50.001 16.5372C50.0395 18.5566 51.28 20.5811 53.4028 22.0936C57.7662 25.2003 63.2523 25.6978 68.4971 25.941C69.2619 25.9762 70.0423 26 70.8281 26C74.979 26 79.2736 25.3483 82.2696 22.3688L80.7981 20.9059C77.8074 23.8791 72.9477 24.0747 68.5927 23.8739C63.6592 23.6453 58.5154 23.1902 54.6131 20.4114C53.0303 19.2838 52.1073 17.8571 52.0803 16.4978C52.0584 15.3878 52.6297 14.376 53.7786 13.4893C56.0096 11.7669 59.1657 11.08 61.9495 10.571C68.8872 9.30264 77.2371 10.6124 80.1874 13.4346C81.0718 14.2798 80.9272 14.7422 80.8793 14.8943C80.4485 16.2764 76.8375 17.6803 74.439 18.0785C70.3784 18.753 65.8809 18.4551 60.7018 17.1712C60.0929 17.0203 59.5571 16.8723 59.1605 16.5909C58.8557 16.3757 58.661 16.0571 58.685 15.817C58.711 15.5542 59.0003 15.2305 59.4572 14.9502C60.6185 14.2394 62.0712 14.0336 63.3377 13.926C66.498 13.6559 69.6531 13.9042 72.7292 14.6574C73.3557 14.8105 73.6606 15.0464 73.7012 15.0743C73.6783 15.1229 73.5014 15.3029 73.0154 15.4756C70.6802 16.3003 68.0475 16.1936 65.7872 15.1808L64.9318 17.0668C67.678 18.2979 70.8768 18.4272 73.7125 17.4237C75.416 16.8216 75.7345 15.7943 75.773 15.2336C75.8541 14.0253 74.9031 13.058 73.2277 12.6473C69.9299 11.8393 66.5406 11.5745 63.1607 11.8631C61.6508 11.9924 59.8994 12.25 58.3665 13.1873C57.3156 13.8318 56.7099 14.6687 56.6142 15.6071C56.5133 16.596 57.0263 17.6171 57.9535 18.2751C58.6465 18.7665 59.4103 18.9827 60.198 19.1782C65.6603 20.5325 70.4294 20.8397 74.7833 20.1197C74.8531 20.1083 81.8242 18.8627 82.87 15.5067C83.1302 14.6708 83.1271 13.3735 81.6327 11.9438C78.1477 8.61158 69.3378 7.11462 61.5737 8.53606Z" fill="#78DDA3"/>
<path d="M74.6733 30.5332C70.6045 30.9315 66.8405 30.7027 63.4834 29.8535C62.6203 29.6349 61.9557 29.3993 61.5134 28.9564C60.8736 28.3178 61.2257 27.4628 61.406 27.1248L59.5401 26C58.6674 27.6279 58.8649 29.4391 60.0415 30.614C60.8757 31.4472 61.9482 31.8047 62.9842 32.0677C65.4362 32.6882 68.0815 33 70.8847 33C72.1804 33 73.5095 32.9328 74.8698 32.7997C79.3853 32.3579 82.4256 30.1028 83 26.7673L80.8883 26.3586C80.3086 29.7237 75.9842 30.4046 74.6733 30.5332Z" fill="#78DDA3"/>
<path d="M77.5712 34.7775C76.2601 34.7906 74.9679 34.9345 73.7171 35.0743C72.7781 35.1794 71.8916 35.2774 70.9916 35.3274C67.7384 35.5059 65.3669 34.958 65.219 34L63 34.2867C63.3508 36.5384 66.24 37.632 71.1262 37.3637C72.0955 37.3117 73.0594 37.2035 73.9906 37.0994C75.2346 36.9606 76.4102 36.8301 77.597 36.8178C78.5529 36.7811 78.7256 37.0157 78.7412 37.0403C78.7883 37.1086 78.7648 37.3249 78.6236 37.5085C78.1081 38.1737 76.296 38.6593 74.6956 39.0878C71.8747 39.8417 68.6786 40.6977 68.6786 43.3136C68.6786 46.0182 66.6457 48.8411 66.6243 48.8696L68.4903 50C68.59 49.8654 70.9199 46.6445 70.9199 43.3136C70.9199 42.225 73.2611 41.5986 75.3265 41.0456C77.4658 40.4722 79.4887 39.9306 80.4536 38.6849C81.1071 37.8412 81.181 36.7454 80.6397 35.9579C79.8115 34.755 78.117 34.7703 77.5712 34.7775Z" fill="#78DDA3"/>
<path d="M64.676 53.1238C64.9422 51.7704 65.0936 50.378 65.0936 48.9501C65.0936 36.791 54.9787 26.9 42.5468 26.9C40.9728 26.9 39.4064 27.0859 37.8571 27.4145L40.1847 24.38C40.4295 24.0619 40.4682 23.6367 40.2867 23.2806C40.1042 22.9247 39.7327 22.7 39.3258 22.7H36.1918L39.0907 19.1562C39.3483 18.8413 39.3978 18.4097 39.2195 18.0454C39.0402 17.681 38.6655 17.45 38.2521 17.45H30.7365C30.3296 17.45 29.9582 17.6747 29.7757 18.0307L28.2242 21.0662C27.7914 20.6777 27.5156 20.1412 27.5156 19.55V17.6726C27.5156 15.9139 28.8748 14.4029 30.5444 14.3053C31.211 14.2685 31.8907 14.4386 32.4738 14.8061C32.7668 14.9919 33.135 15.0245 33.4594 14.8964C33.7836 14.7672 34.0219 14.4932 34.1024 14.1604C34.6682 11.7695 36.8166 10.1 39.3258 10.1C42.0625 10.1 44.3559 12.1034 44.6577 14.761C44.6995 15.1263 44.9335 15.4435 45.275 15.5978C46.0984 15.9695 46.6675 16.7171 46.7974 17.5992C46.807 17.66 46.821 17.7178 46.8414 17.7745V19.55C46.8414 20.7082 45.8784 21.65 44.6941 21.65H42.5468V23.75H44.6941C47.0627 23.75 48.9888 21.8664 48.9888 19.55V17.45C48.9888 17.281 48.9437 17.1224 48.8652 16.9817C48.5904 15.7249 47.812 14.6444 46.7061 13.9713C46.0416 10.5305 42.9644 8 39.3258 8C36.2573 8 33.5742 9.78395 32.4135 12.4657C31.7737 12.2568 31.0972 12.1685 30.4166 12.2084C27.5853 12.3743 25.3682 14.7746 25.3682 17.6726V19.55C25.3682 20.9444 26.0941 22.2191 27.2407 22.9887L25.481 26.4296C25.3146 26.7551 25.3317 27.1416 25.5282 27.4513C25.7246 27.761 26.0693 27.9501 26.4419 27.9501H30.4713L29.8325 30.7629C23.6708 34.8884 20 41.6493 20 48.9501C20 61.109 30.1149 71 42.5468 71C53.3188 71 62.3386 63.5693 64.5589 53.6772L65.8527 54.9424L68 52.8424L66.4819 51.3577L64.676 53.1238ZM62.8314 46.85H51.6997C50.8118 46.85 50.0892 46.1434 50.0892 45.2751C50.0892 44.4067 50.8118 43.7 51.6997 43.7H62.2055C62.4921 44.7227 62.7144 45.7696 62.8314 46.85ZM57.3827 35.3H45.7946C42.8345 35.3 40.4264 32.9448 40.4264 30.05C40.4264 29.7329 40.465 29.42 40.5218 29.1103C41.1961 29.0431 41.8704 29 42.5468 29C48.394 29 53.6602 31.4319 57.3827 35.3ZM28.1791 25.85L31.4001 19.55H36.0179L33.119 23.0938C32.8613 23.4088 32.812 23.8403 32.9901 24.2047C33.1694 24.569 33.5442 24.8001 33.9575 24.8001H37.1786L31.7909 31.8246L32.8581 27.1268C32.9279 26.816 32.8506 26.4905 32.6477 26.2427C32.4436 25.9949 32.1366 25.85 31.8102 25.85H28.1791ZM22.1473 48.9501C22.1473 46.7744 22.5123 44.6534 23.1941 42.65H31.8381C32.4308 42.65 32.9118 43.1215 32.9118 43.7C32.9118 44.2786 32.4308 44.7501 31.8381 44.7501H28.6171C26.2486 44.7501 24.3225 46.6337 24.3225 48.9501C24.3225 51.2664 26.2486 53.1501 28.6171 53.1501H50.6272C52.1078 53.1501 53.3113 54.3282 53.3113 55.775C53.3113 57.2219 52.1078 58.4001 50.6272 58.4001H36.6696C34.5974 58.4001 32.9118 60.0486 32.9118 62.0751C32.9118 64.1016 34.5974 65.7501 36.6696 65.7501H53.5045C50.3351 67.7346 46.5817 68.9001 42.5468 68.9001C31.2981 68.9001 22.1473 59.9508 22.1473 48.9501ZM56.2896 63.65H36.6684C35.7805 63.65 35.058 62.9434 35.058 62.0751C35.058 61.2068 35.7805 60.5001 36.6684 60.5001H50.626C53.2898 60.5001 55.4575 58.3801 55.4575 55.775C55.4575 53.17 53.2898 51.05 50.626 51.05H28.616C27.4318 51.05 26.4688 50.1082 26.4688 48.9501C26.4688 47.7919 27.4318 46.85 28.616 46.85H31.8371C33.6129 46.85 35.058 45.4367 35.058 43.7C35.058 41.9633 33.6129 40.5501 31.8371 40.5501H24.0423C25.2287 38.0552 26.9476 35.8114 29.1045 33.9645L28.6139 36.1222C28.5044 36.6041 28.7546 37.0977 29.2141 37.3034C29.359 37.3686 29.5104 37.4 29.6628 37.4C29.9925 37.4 30.3135 37.2509 30.5218 36.98L35.7408 30.175C36.5934 29.8788 37.4565 29.6458 38.3252 29.4621C38.3091 29.6584 38.2801 29.8527 38.2801 30.05C38.2801 34.103 41.6525 37.4 45.7957 37.4H59.1499C60.0947 38.6957 60.8848 40.1017 61.4948 41.6001H51.7009C49.6287 41.6001 47.9429 43.2486 47.9429 45.2751C47.9429 47.3016 49.6287 48.9501 51.7009 48.9501H62.9464C62.9464 54.7702 60.3685 60.0002 56.2896 63.65Z" fill="#78DDA3"/>
<path d="M62.1521 75.4177H59.83V72.8407C59.7371 72.3252 59.3656 71.9128 58.9011 72.0159C58.5296 72.0159 58.1581 72.4283 58.1581 72.8407V75.4177H55.836C55.3715 75.4177 55 75.83 55 76.3454C55 76.8608 55.3715 77.3762 55.836 77.3762H58.1581V79.9533C58.0652 80.4687 58.4367 80.9841 58.9011 80.9841C59.3656 81.0872 59.83 80.6748 59.83 80.1593C59.83 80.0563 59.83 80.0564 59.83 79.9533V77.3762H62.1521C62.6165 77.3762 62.988 76.8608 62.988 76.3454C63.0809 75.83 62.6165 75.4177 62.1521 75.4177Z" fill="#78DDA3"/>
<path d="M16.1038 35C15.8723 35 15.7566 35.0001 15.5251 34.8939L0.943662 27.1406C0.365031 27.0343 -0.0978742 26.3972 0.0178521 25.8662C0.133578 25.3351 0.827936 24.9102 1.40657 25.0164C1.63802 25.0164 1.86948 25.1227 1.9852 25.3351L16.5667 33.0882C17.0296 33.4069 17.1453 34.1503 16.7981 34.5752C16.6824 34.7876 16.3352 34.8938 16.1038 35Z" fill="#78DDA3"/>
<path d="M23 78C21.9189 78 21 77.1351 21 76C21 74.9189 21.8649 74 23 74C24.0811 74 25 74.8648 25 76C25 77.1351 24.0811 78 23 78ZM23 75.0811C22.4595 75.0811 22.027 75.5135 22.027 76.0541C22.027 76.5946 22.4595 77.027 23 77.027C23.5405 77.027 23.973 76.5946 23.973 76.0541C23.973 75.5135 23.5405 75.0811 23 75.0811Z" fill="#78DDA3"/>
<path d="M14.7701 21C14.4168 21 14.0636 20.7727 13.828 20.4318L9.35327 12.9318C8.88224 12.4773 8.88224 11.7955 9.35327 11.3409C9.8243 10.8864 10.5308 10.8864 11.0019 11.3409C11.1196 11.4545 11.2374 11.6818 11.3551 11.9091L15.8299 19.4091C16.1832 19.9773 15.9477 20.5455 15.4766 20.8864C15.1234 21 15.0056 21 14.7701 21Z" fill="#78DDA3"/>
<path d="M18.9318 29C18.5743 29 18.0978 28.7586 17.9786 28.3966L15.3574 24.0517C14.8809 23.569 14.8809 22.8448 15.3574 22.3621C15.834 21.8793 16.5489 21.8793 17.0255 22.3621C17.1446 22.4828 17.2638 22.7241 17.3829 22.9655L19.8849 27.431C20.1232 28.0345 20.0041 28.6379 19.4084 29C19.2892 29 19.0509 29 18.9318 29Z" fill="#78DDA3"/>
</svg>
