<svg width="90" height="92" viewBox="0 0 90 92" fill="none" xmlns="http://www.w3.org/2000/svg">
<path d="M45 91.6C69.8528 91.6 90 71.4528 90 46.6C90 21.7472 69.8528 1.59998 45 1.59998C20.1472 1.59998 0 21.7472 0 46.6C0 71.4528 20.1472 91.6 45 91.6Z" fill="#00B964"/>
<path d="M19.1 25.3H70.9C71.5 25.3 72 25.8 72 26.4V66.8001C72 67.4001 71.5 67.9001 70.9 67.9001H19.1C18.5 67.9001 18 67.4001 18 66.8001V26.4C18 25.8 18.5 25.3 19.1 25.3Z" fill="white"/>
<path d="M19.1 25.3H45V67.9001H19.1C18.5 67.9001 18 67.4001 18 66.8001V26.4C18 25.8 18.5 25.3 19.1 25.3Z" fill="white"/>
<path d="M66.1 33.8H50.9C50.4 33.8 50 33.4 50 32.9C50 32.4 50.4 31.9 50.9 31.9H66.1C66.7 31.9 67.1 32.3 67.1 32.9C67 33.4 66.6 33.8 66.1 33.8Z" fill="#78DDA3"/>
<path d="M66.1 41.1H50.9C50.4 41.1 50 40.7001 50 40.2001C50 39.7001 50.4 39.3 50.9 39.3H66.1C66.6 39.3 67 39.7001 67 40.2001C67 40.7001 66.6 41.1 66.1 41.1Z" fill="#78DDA3"/>
<path d="M66.1 48.4H50.9C50.4 48.4 50 48 50 47.5C50 47 50.4 46.5 50.9 46.5H66.1C66.7 46.5 67.1 46.9 67.1 47.5C67 48 66.6 48.4 66.1 48.4Z" fill="#78DDA3"/>
<path d="M66.1004 55.7H50.9004C50.4004 55.6 50.0004 55.2 50.1004 54.7C50.1004 54.3 50.5004 53.9 50.9004 53.9H66.1004C66.6004 54 67.0004 54.4 66.9004 54.9C66.9004 55.3 66.5004 55.7 66.1004 55.7Z" fill="#78DDA3"/>
<path d="M66.1 63H50.9C50.4 63 50 62.6 50 62.1C50 61.6 50.4 61.2 50.9 61.1H66.1C66.6 61.1 67.1 61.5 67.1 62.1C67 62.6 66.6 63 66.1 63Z" fill="#78DDA3"/>
<path d="M39.1 33.8H23.9C23.4 33.8 23 33.4 23 32.9C23 32.4 23.4 31.9 23.9 31.9H39.1C39.7 31.9 40.1 32.3 40.1 32.9C40.1 33.4 39.6 33.8 39.1 33.8Z" fill="#78DDA3"/>
<path d="M39.1 41.1H23.9C23.4 41.1 23 40.7001 23 40.2001C23 39.7001 23.4 39.3 23.9 39.3H39.1C39.6 39.3 40 39.7001 40 40.2001C40 40.7001 39.6 41.1 39.1 41.1Z" fill="#78DDA3"/>
<path d="M39.1 48.4H23.9C23.4 48.4 23 48 23 47.5C23 47 23.4 46.5 23.9 46.5H39.1C39.6 46.4 40.1 46.8 40.1 47.3C40.2 47.8 39.8 48.3 39.3 48.3C39.2 48.4 39.2 48.4 39.1 48.4Z" fill="#78DDA3"/>
<path d="M39.1002 55.7H23.9002C23.4002 55.8 22.9002 55.4 22.9002 54.9C22.8002 54.4 23.2002 53.9 23.7002 53.9C23.8002 53.9 23.8002 53.9 23.9002 53.9H39.1002C39.6002 54 40.0002 54.4 39.9002 54.9C39.9002 55.3 39.6002 55.7 39.1002 55.7Z" fill="#78DDA3"/>
<path d="M39.1 63H23.9C23.4 63 23 62.6 23 62.1C23 61.6 23.4 61.2 23.9 61.1H39.1C39.6 61.1 40.1 61.5 40.1 62.1C40.1 62.6 39.6 63 39.1 63Z" fill="#78DDA3"/>
<path d="M65.8004 14.2C65.3004 14.4 64.9004 14.7 64.6004 15C63.9004 15.7 63.4004 16.7 63.4004 17.7C63.4004 17.8 63.4004 17.9 63.4004 18.1V18.3C63.4004 18.4 63.4004 18.6 63.4004 18.7V18.9C63.5004 19.6 63.6004 20.3 63.8004 20.9C63.9004 21.3 64.3004 21.6 64.7004 21.7H64.9004C65.4004 21.6 65.7004 21.1 65.6004 20.6C65.5004 20 65.4004 19.3 65.2004 18.6V17.8C65.2004 17.3 65.4004 16.8 65.8004 16.4C66.0004 16.2 66.2004 16.1 66.5004 16C66.9004 15.7 67.0004 15.1 66.7004 14.7C66.4004 14.3 66.1004 14.2 65.8004 14.2Z" fill="#78DDA3"/>
<path d="M84.8004 12C83.3004 10.5 81.2004 9.7 79.0004 9.7H78.6004C79.1004 9.2 79.5004 8.6 79.8004 8C81.0004 5.7 81.1004 2.9 80.0004 0.6C79.8004 0.2 79.4004 0 79.0004 0C76.4004 0.4 74.1004 2 72.9004 4.4C72.7004 4.9 72.4004 5.4 72.3004 5.9C71.9004 5.2 71.4004 4.6 70.8004 4C70.4004 3.7 69.8004 3.7 69.5004 4C69.1004 4.4 69.1004 5 69.5004 5.3C71.0004 6.8 71.9004 8.8 72.2004 10.9C71.6004 10.8 71.1004 10.7 70.5004 10.5C69.6004 10.1 68.6004 9.9 67.6004 9.9H67.5004C63.1004 9.9 59.5004 13.4 59.4004 17.8V18.3C59.4004 18.4 59.4004 18.5 59.4004 18.6V18.9C59.4004 19.2 59.4004 19.5 59.5004 19.7C59.6004 20.4 59.8004 21.4 60.0004 22.4C60.1004 22.9 60.6004 23.2 61.1004 23.1C61.6004 23 61.9004 22.5 61.8004 22.1C61.6004 21 61.4004 20.1 61.3004 19.5C61.2004 19.3 61.2004 19 61.2004 18.8V18.6C61.2004 18.4 61.2004 18.2 61.2004 18.1C61.3004 14.7 64.1004 11.9 67.5004 12C68.3004 12 69.0004 12.2 69.7004 12.5C70.7004 12.9 71.7004 13.1 72.8004 13.1H73.1004C74.4004 13.1 75.6004 12.9 76.8004 12.4C77.5004 12.1 78.3004 12 79.0004 11.9C80.6004 11.9 82.2004 12.5 83.4004 13.7C84.6004 14.8 85.3004 16.4 85.3004 18.1V18.9C85.3004 19.1 85.3004 19.4 85.2004 19.6C83.6004 28.1 81.1004 34 78.7004 34C77.9004 34 77.2004 33.8 76.5004 33.6L75.9004 33.4C75.4004 33.3 74.9004 33.6 74.8004 34.1C74.7004 34.6 75.0004 35.1 75.5004 35.2L76.1004 35.4C77.0004 35.7 77.9004 35.8 78.8004 35.9C83.6004 35.9 86.1004 25.7 87.1004 19.6C87.2004 19.3 87.2004 19.1 87.2004 18.8V18.5C87.2004 18.4 87.2004 18.3 87.2004 18.2V17.7C87.2004 15.6 86.3004 13.5 84.8004 12ZM74.6004 5.2C75.4004 3.6 76.9004 2.4 78.7004 2C79.8004 5.4 78.0004 9.1 74.5004 10.2L74.2004 10.3C73.5004 8.7 73.7004 6.8 74.6004 5.2Z" fill="#78DDA3"/>
<path d="M9.60039 57C7.60039 57 5.90039 55.4 5.90039 53.3C5.90039 51.3 7.50039 49.6 9.60039 49.6C11.6004 49.6 13.3004 51.2 13.3004 53.3C13.3004 55.4 11.7004 57 9.60039 57ZM9.60039 51.6C8.60039 51.6 7.80039 52.4 7.80039 53.4C7.80039 54.4 8.60039 55.2 9.60039 55.2C10.6004 55.2 11.4004 54.4 11.4004 53.4C11.4004 52.4 10.6004 51.6 9.60039 51.6Z" fill="#78DDA3"/>
<path d="M15.7997 24.1C15.4997 24.1 15.1997 24 14.9997 23.7L5.19969 11.8C4.89969 11.4 4.99969 10.8 5.29969 10.5C5.69969 10.2 6.29969 10.2 6.59969 10.6L16.3997 22.5C16.6997 22.9 16.6997 23.5 16.2997 23.8C16.1997 24 15.9997 24.1 15.7997 24.1Z" fill="#78DDA3"/>
<path d="M17.5 14.6C17.1 14.6 16.7 14.3 16.6 13.9L15.4 8.6C15.3 8.1 15.6 7.6 16.1 7.5C16.6 7.4 17.1 7.69999 17.2 8.19999L18.4 13.5C18.5 14 18.2 14.5 17.7 14.6H17.5Z" fill="#78DDA3"/>
<path d="M19.4998 23.5001C19.0998 23.5001 18.6998 23.2001 18.5998 22.8001L17.1998 16.8001C17.0998 16.3001 17.3998 15.8001 17.8998 15.7001C18.3998 15.6001 18.8998 15.9001 18.9998 16.4001L20.3998 22.4001C20.4998 22.9001 20.1998 23.4001 19.6998 23.5001H19.4998Z" fill="#78DDA3"/>
<path d="M7.70027 25.8C7.60027 25.8 7.50027 25.8 7.40027 25.8L1.30027 23.7C0.800273 23.5 0.600273 23 0.800274 22.5C1.00027 22 1.50027 21.7 2.00027 21.9L8.10027 24C8.60027 24.2 8.80027 24.7 8.60027 25.2C8.40027 25.6 8.10027 25.8 7.70027 25.8Z" fill="#78DDA3"/>
<path d="M15.4001 28.4C15.3001 28.4 15.2001 28.4 15.1001 28.4L10.6001 26.9C10.1001 26.8 9.80015 26.2 10.0001 25.7C10.1001 25.2 10.7001 24.9 11.2001 25.1H11.3001L15.8001 26.6C16.3001 26.8 16.5001 27.3 16.3001 27.8C16.1001 28.1 15.7001 28.4 15.4001 28.4Z" fill="#78DDA3"/>
<path d="M85.8004 80.6C85.6004 80.6 85.4004 80.5 85.2004 80.4L82.5004 78.2C82.1004 77.9 82.1004 77.3 82.4004 76.9C82.7004 76.5 83.3004 76.5 83.7004 76.8L86.4004 79.1C86.8004 79.4 86.8004 80 86.5004 80.4C86.3004 80.5 86.1004 80.6 85.8004 80.6Z" fill="#78DDA3"/>
<path d="M80.7002 76.4C80.5002 76.4 80.3002 76.2999 80.1002 76.1999L73.3002 70.6C72.9002 70.3 72.9002 69.7 73.2002 69.3C73.5002 68.9 74.1002 68.7999 74.5002 69.1999L81.3002 74.8C81.7002 75.1 81.8002 75.7 81.5002 76.1C81.3002 76.3 81.0002 76.4 80.7002 76.4Z" fill="#78DDA3"/>
<path d="M88.8002 70.3001H88.6002L80.3002 68.5001C79.8002 68.4001 79.5002 67.9001 79.6002 67.4001C79.7002 66.9001 80.2002 66.6001 80.7002 66.7001L89.1002 68.6001C89.6002 68.7001 89.9002 69.2001 89.8002 69.7001C89.6002 70.0001 89.2002 70.3001 88.8002 70.3001Z" fill="#78DDA3"/>
<path d="M80.5002 68.4H80.3002L74.3002 67.1C73.8002 67 73.5002 66.5 73.6002 66C73.7002 65.5 74.2002 65.2 74.7002 65.3L80.7002 66.6C81.2002 66.7 81.5002 67.2 81.4002 67.7C81.3002 68.1 80.9002 68.4 80.5002 68.4Z" fill="#78DDA3"/>
<path d="M74.3003 84.9C73.9003 84.9 73.5003 84.7 73.4003 84.3L68.7003 70.6C68.5003 70.1 68.8003 69.6 69.3003 69.4C69.8003 69.3 70.3003 69.5 70.5003 70L75.2003 83.7C75.4003 84.2 75.1003 84.7 74.7003 84.9C74.6003 84.9 74.5003 84.9 74.3003 84.9Z" fill="#78DDA3"/>
<path d="M58.4998 74.5H26.5998L21.7998 77C21.4998 77.2 21.2998 77.5 21.2998 77.8C21.2998 78.1 21.4998 78.5 21.6998 78.6L26.5998 81.7C26.7998 81.8 26.8998 81.8 27.0998 81.8H58.4998C58.9998 81.8 59.3998 81.4 59.3998 80.9V75.5C59.3998 75 58.9998 74.5 58.4998 74.5ZM49.9998 80.1H28.6998L29.6998 78.4C29.8998 78.1 29.8998 77.7 29.6998 77.4L28.9998 76.4H49.9998V80.1ZM26.8998 76.8L27.8998 78.1L26.8998 79.8L24.2998 78.1L26.8998 76.8ZM51.8998 76.5H53.5998V80.1H51.8998V76.5ZM57.5998 80.2H55.2998V76.4H57.4998L57.5998 80.2Z" fill="#78DDA3"/>
<path d="M36.6998 14.3H34.0998V11.8C34.0998 11.3 33.6998 10.9 33.1998 10.9C32.6998 10.9 32.2998 11.3 32.2998 11.8V14.3H29.7998C29.2998 14.4 28.8998 14.8 28.9998 15.3C28.9998 15.7 29.3998 16.1 29.7998 16.1H32.2998V18.6C32.2998 19.1 32.6998 19.5 33.1998 19.5C33.6998 19.5 34.0998 19.1 34.0998 18.6V16H36.6998C37.1998 16 37.5998 15.6 37.5998 15.1C37.5998 14.6 37.1998 14.2 36.6998 14.3C36.6998 14.2 36.6998 14.2 36.6998 14.3Z" fill="#78DDA3"/>
<path d="M46.9996 13C47.7728 13 48.3996 12.3732 48.3996 11.6C48.3996 10.8268 47.7728 10.2 46.9996 10.2C46.2264 10.2 45.5996 10.8268 45.5996 11.6C45.5996 12.3732 46.2264 13 46.9996 13Z" fill="#78DDA3"/>
<path d="M81.4 56.2C82.1732 56.2 82.8 55.5732 82.8 54.8C82.8 54.0268 82.1732 53.4 81.4 53.4C80.6268 53.4 80 54.0268 80 54.8C80 55.5732 80.6268 56.2 81.4 56.2Z" fill="#78DDA3"/>
<path d="M9.6002 39.3C10.3734 39.3 11.0002 38.6732 11.0002 37.9C11.0002 37.1268 10.3734 36.5 9.6002 36.5C8.827 36.5 8.2002 37.1268 8.2002 37.9C8.2002 38.6732 8.827 39.3 9.6002 39.3Z" fill="#78DDA3"/>
<path d="M44.9996 68.9C44.4996 68.9 44.0996 68.5 44.0996 68V25.3C44.1996 24.8 44.5996 24.4 45.0996 24.5C45.4996 24.5 45.8996 24.9 45.8996 25.3V67.9C45.9996 68.4 45.5996 68.9 44.9996 68.9C44.9996 68.9 45.0996 68.9 44.9996 68.9Z" fill="#78DDA3"/>
</svg>
