<svg width="92" height="96" viewBox="0 0 92 96" fill="none" xmlns="http://www.w3.org/2000/svg">
<path d="M46 95.2C70.8528 95.2 91 75.0528 91 50.2C91 25.3471 70.8528 5.19995 46 5.19995C21.1472 5.19995 1 25.3471 1 50.2C1 75.0528 21.1472 95.2 46 95.2Z" fill="#00B964"/>
<path d="M46 95.2C70.8528 95.2 91 75.0528 91 50.2C91 25.3471 70.8528 5.19995 46 5.19995C21.1472 5.19995 1 25.3471 1 50.2C1 75.0528 21.1472 95.2 46 95.2Z" fill="#00B964"/>
<path d="M45.9994 29C45.4994 29 45.0994 28.6 45.0994 28.1V18.3999C44.9994 17.8999 45.3994 17.3999 45.8994 17.3999C46.3994 17.2999 46.8994 17.7 46.8994 18.2C46.8994 18.3 46.8994 18.2999 46.8994 18.3999V28.1C46.9994 28.6 46.5994 29 45.9994 29C45.9994 29 46.0994 29 45.9994 29Z" fill="#78DDA3"/>
<path d="M33.5998 30.2999C33.2998 30.2999 32.9998 30.0999 32.7998 29.7999L22.3998 11.7999C21.9998 11.3999 21.9998 10.7999 22.2998 10.3999C22.6998 9.99991 23.2998 9.9999 23.6998 10.2999C23.8998 10.3999 23.9998 10.5999 23.9998 10.7999L34.3998 28.7999C34.5998 29.2999 34.3998 29.8999 33.8998 30.0999C33.8998 30.1999 33.6998 30.2999 33.5998 30.2999Z" fill="#78DDA3"/>
<path d="M21.8996 50.8H0.999609C0.499609 50.8 0.0996094 50.4 0.0996094 49.9C0.0996094 49.4 0.499609 49 0.999609 49H21.8996C22.3996 49 22.7996 49.4 22.7996 49.9C22.7996 50.5 22.3996 50.9 21.8996 50.8C21.8996 50.9 21.8996 50.9 21.8996 50.8Z" fill="#78DDA3"/>
<path d="M24.7993 39.5C24.5993 39.5 24.4993 39.5 24.2993 39.4L17.1993 35.3C16.7993 35 16.5993 34.5 16.8993 34C17.1993 33.6 17.6993 33.4 18.1993 33.7L25.2993 37.8C25.6993 38.1 25.8993 38.6 25.6993 39.1C25.3993 39.3 25.0993 39.4 24.7993 39.5Z" fill="#78DDA3"/>
<path d="M82.4996 86.3H9.49961C8.99961 86.3 8.59961 85.9 8.59961 85.4C8.59961 84.9 8.99961 84.5 9.49961 84.5H82.4996C82.9996 84.5 83.3996 84.9 83.3996 85.4C83.3996 85.9 82.9996 86.3 82.4996 86.3Z" fill="#78DDA3"/>
<path d="M90.9998 50.8H70.1998C69.6998 50.8 69.2998 50.4 69.2998 49.9C69.2998 49.4 69.6998 49 70.1998 49H90.9998C91.4998 49 91.8998 49.4 91.8998 49.9C91.8998 50.4 91.4998 50.8 90.9998 50.8Z" fill="#78DDA3"/>
<path d="M87.3002 78.3H4.70019C4.20019 78.2 3.80019 77.8 3.90019 77.3C3.90019 76.9 4.30019 76.5 4.70019 76.5H87.3002C87.8002 76.6 88.2002 77 88.1002 77.5C88.1002 77.9 87.7002 78.3 87.3002 78.3Z" fill="#78DDA3"/>
<path d="M46.0004 14.3C45.5004 14.3 45.1004 13.9 45.1004 13.4V1.2C45.0004 0.699997 45.4004 0.199997 45.9004 0.199997C46.4004 0.0999968 46.9004 0.499985 46.9004 0.999985C46.9004 1.09998 46.9004 1.1 46.9004 1.2V13.4C46.9004 13.8 46.5004 14.3 46.0004 14.3Z" fill="#78DDA3"/>
<path d="M13.9003 33.2C13.7003 33.2 13.6003 33.1 13.4003 33.1L2.7003 26.9C2.3003 26.6 2.1003 26.1 2.4003 25.6C2.7003 25.2 3.2003 25 3.7003 25.3L14.4003 31.5C14.8003 31.8 15.0003 32.3 14.7003 32.8C14.5003 33 14.2003 33.2 13.9003 33.2Z" fill="#78DDA3"/>
<path d="M80.1998 59.5H77.6998V57C77.6998 56.5 77.2998 56.1 76.7998 56.1C76.2998 56.1 75.8998 56.5 75.8998 57V59.5H73.2998C72.7998 59.5 72.2998 59.9 72.2998 60.5C72.2998 61 72.7998 61.4 73.2998 61.4H75.7998V63.9C75.7998 64.4 76.1998 64.8 76.6998 64.8C77.1998 64.8 77.5998 64.4 77.5998 63.9V61.4H80.0998C80.5998 61.4 80.9998 61 80.9998 60.5C81.0998 60 80.6998 59.5 80.1998 59.5Z" fill="#78DDA3"/>
<path d="M20.3004 60.2C21.0736 60.2 21.7004 59.5732 21.7004 58.8C21.7004 58.0268 21.0736 57.4 20.3004 57.4C19.5272 57.4 18.9004 58.0268 18.9004 58.8C18.9004 59.5732 19.5272 60.2 20.3004 60.2Z" fill="#78DDA3"/>
<path d="M13.9002 69.9C11.9002 69.9 10.2002 68.3 10.2002 66.2C10.2002 64.2 11.8002 62.5 13.9002 62.5C16.0002 62.5 17.6002 64.1 17.6002 66.2C17.5002 68.2 15.9002 69.9 13.9002 69.9ZM13.9002 64.4C12.9002 64.4 12.1002 65.2 12.1002 66.2C12.1002 67.2 12.9002 68 13.9002 68C14.9002 68 15.7002 67.2 15.7002 66.2C15.7002 65.2 14.9002 64.4 13.9002 64.4Z" fill="#78DDA3"/>
<path d="M28.4998 66.6C27.7998 66.6 27.2998 66.1 27.2998 65.4V65.3L29.0998 45.3C29.0998 39.1 34.0998 34.1 40.2998 34.1H51.9998C58.1998 34.1 63.1998 39.1 63.1998 45.3L64.9998 65.3C65.0998 66 64.4998 66.6 63.8998 66.7L28.4998 66.6Z" fill="white"/>
<path d="M73.1998 29.3C73.6998 29.3 74.1998 29 74.1998 28.4C74.1998 28.4 74.1998 28.4 74.1998 28.3V18.6C74.0998 18.1 73.5998 17.7 73.0998 17.8C72.6998 17.9 72.2998 18.2 72.2998 18.6V28.3C72.2998 28.8 72.6998 29.2 73.1998 29.3Z" fill="#78DDA3"/>
<path d="M73.1003 12.8999C66.2003 12.8999 60.7003 18.4999 60.7003 25.2999C60.7003 27.0999 61.1003 28.7999 61.8003 30.3999L58.0003 37.9999C57.9003 38.2999 57.9003 38.6999 58.1003 38.9999C58.3003 39.1999 58.5003 39.2999 58.8003 39.2999H59.1003L67.7003 36.2999C69.4003 37.0999 71.3003 37.5999 73.1003 37.5999C80.0003 37.3999 85.4003 31.6999 85.2003 24.7999C85.0003 18.1999 79.7003 12.9 73.1003 12.7V12.8999ZM73.1003 35.8999C71.4003 35.8999 69.6003 35.5 68.1003 34.7C67.9003 34.6 67.6003 34.6 67.3003 34.7L60.6003 36.9999L63.6003 30.9999C63.7003 30.6999 63.7003 30.4 63.6003 30.2C62.9003 28.7 62.5003 27.0999 62.5003 25.4999C62.5003 19.6999 67.2003 14.9999 73.1003 14.9999C78.9003 14.9999 83.6003 19.6999 83.6003 25.5999C83.6003 31.4999 78.9003 35.8999 73.1003 35.8999C73.0003 35.8999 73.0003 35.8999 73.1003 35.8999Z" fill="#78DDA3"/>
<path d="M73.2002 30.6C72.6002 30.6 72.2002 31 72.2002 31.6C72.2002 32.2 72.6002 32.6 73.2002 32.6C73.8002 32.6 74.2002 32.2 74.2002 31.6C74.2002 31 73.8002 30.6 73.2002 30.6Z" fill="#78DDA3"/>
<path d="M33.4 46.6C32.9 46.6 32.5 46.1 32.5 45.6V45.2C32.5 41 35.9 37.6 40.2 37.6C40.7 37.7 41.1 38.1 41 38.6C41 39 40.6 39.4 40.2 39.4C37 39.4 34.4 42 34.4 45.2V45.6C34.4 46.1 33.9 46.6 33.4 46.6Z" fill="#78DDA3"/>
<path d="M53.7004 66.6V53C53.7004 50.3 51.6004 48.2 48.9004 48.1H43.2004C40.5004 48.1 38.4004 50.3 38.4004 52.9V66.6H40.3004V52.9C40.3004 51.3 41.7004 49.9 43.3004 49.9H49.0004C50.6004 49.9 51.9004 51.2 52.0004 52.9V66.6H53.7004Z" fill="#78DDA3"/>
<path d="M67.8004 69.3H24.2004C22.9004 69.5 22.0004 70.6001 22.1004 71.9001V73.9001C22.0004 75.2001 22.9004 76.3001 24.2004 76.5001H67.7003C69.0003 76.3001 69.9004 75.2001 69.8004 73.9001V71.9001C69.9004 70.6001 69.0004 69.4 67.8004 69.3Z" fill="white"/>
</svg>
