<svg width="93" height="91" viewBox="0 0 93 91" fill="none" xmlns="http://www.w3.org/2000/svg">
<path d="M48 90.1001C72.8528 90.1001 93 69.9529 93 45.1001C93 20.2473 72.8528 0.100098 48 0.100098C23.1472 0.100098 3 20.2473 3 45.1001C3 69.9529 23.1472 90.1001 48 90.1001Z" fill="#00B964"/>
<path d="M68.1994 40.7001C60.2994 44.8001 60.5994 47.0002 61.5994 52.8002C62.2994 56.8002 55.4994 62.9001 52.9994 59.7001C50.4994 56.5001 53.6994 44.1001 49.4994 44.6001C45.4994 45.1001 41.0994 46.8002 39.0994 42.8002C37.0994 38.8002 39.7994 35.4001 43.1994 33.2001C43.4994 32.9001 43.9994 32.7001 44.3994 32.2001C42.8994 32.4001 41.3994 32.4001 39.8994 32.0001C37.0994 31.5001 34.7994 30.3001 32.4994 28.9001C28.9994 31.5001 26.3994 35.0001 24.8994 39.2001L25.0994 39.4001C26.2994 40.4001 27.8994 44.7001 29.0994 45.7001C30.2994 46.7001 34.1994 46.5002 33.5994 49.3002C32.9994 52.1002 29.9994 55.9001 31.0994 57.6001C33.5994 61.4001 32.7994 65.2001 32.7994 65.2001V65.7001C36.8994 68.3001 41.5994 70.0001 46.6994 70.0001C59.2994 70.0001 69.3994 59.7001 69.3994 47.2001C69.1994 45.0001 68.7994 42.6001 68.1994 40.7001Z" fill="white"/>
<path d="M15.1998 26.6001L13.3998 28.4002C13.0998 28.7002 13.0998 29.4001 13.3998 29.7001C13.6998 30.0001 14.3998 30.0001 14.6998 29.7001L16.4998 27.9002L18.2998 29.7001C18.5998 30.0001 19.2998 30.0001 19.5998 29.7001C19.8998 29.4001 19.8998 28.7002 19.5998 28.4002L17.7998 26.6001L19.5998 24.8002C19.8998 24.5002 19.8998 23.8001 19.5998 23.5001C19.2998 23.2001 18.5998 23.2001 18.2998 23.5001L16.4998 25.3002L14.6998 23.5001C14.3998 23.2001 13.6998 23.2001 13.3998 23.5001C13.0998 23.8001 13.0998 24.5002 13.3998 24.8002L15.1998 26.6001Z" fill="#78DDA3"/>
<path d="M48.6994 82C47.8994 82 47.3994 82.7 47.3994 83.3C47.3994 83.9 48.0994 84.8 48.6994 84.8C49.3994 84.8 49.9994 84.1 49.9994 83.5C49.9994 82.9 49.4994 82 48.6994 82Z" fill="#78DDA3"/>
<path d="M12.0998 58.5001C12.8178 58.5001 13.3998 57.918 13.3998 57.2001C13.3998 56.4821 12.8178 55.9001 12.0998 55.9001C11.3818 55.9001 10.7998 56.4821 10.7998 57.2001C10.7998 57.918 11.3818 58.5001 12.0998 58.5001Z" fill="#78DDA3"/>
<path d="M75.2994 51.9001C76.2994 46.3001 75.4994 40.5001 73.2994 35.4001C74.2994 35.1001 76.0994 34.6001 78.0994 33.6001C82.0994 31.6001 84.9994 28.8002 86.1994 25.8002C87.4994 22.7002 87.4994 18.9001 85.9994 14.5001C84.9994 11.4001 83.6994 9.00014 83.4994 8.90014C83.2994 8.60014 82.7994 8.40014 82.2994 8.40014C82.0994 8.40014 79.6994 9.10009 76.4994 10.6001C72.4994 12.6001 69.5994 15.4001 68.3994 18.4001C67.1994 21.0001 67.0994 24.2001 67.8994 27.5001C66.1994 25.7001 64.3994 24.0001 62.3994 22.7001C61.6994 21.5001 60.0994 18.6001 57.5994 15.4001C56.7994 14.4001 55.0994 15.7001 55.8994 16.7001C57.5994 18.9001 58.8994 20.8002 59.6994 22.3002L50.2994 20.5001L41.3994 8.30017C42.1994 8.30017 43.0994 8.50009 43.9994 8.60009C46.7994 9.10009 49.4994 10.6001 52.0994 12.7001C53.0994 13.5001 54.3994 12.0001 53.3994 11.2001C50.7994 8.70007 47.7994 7.10009 44.5994 6.60009C39.7994 5.60009 34.2994 6.90009 28.6994 10.1001C24.3994 12.6001 21.5994 15.1001 21.3994 15.2001C21.0994 15.5001 20.8994 16.2001 21.1994 16.7001C21.6994 17.5001 23.1994 20.7001 25.7994 24.0001C27.2994 26.0001 28.8994 27.6001 30.5994 29.0001C30.0994 29.3001 29.5994 29.8002 29.2994 30.3002C26.7994 32.6002 24.9994 35.4001 23.7994 38.6001C22.7994 41.2001 22.0994 44.2001 22.0994 47.2001C22.0994 52.0001 23.3994 56.8002 26.1994 60.8002C28.7994 64.8002 32.6994 67.7001 36.9994 69.6001C38.1994 70.1001 38.9994 68.1001 37.7994 67.6001C36.0994 66.9001 34.6994 66.1001 33.2994 65.1001C33.4994 64.1001 33.9994 60.6001 31.4994 57.0001C31.1994 56.5001 32.1994 54.5001 32.6994 53.4001C33.3994 52.2001 33.8994 50.9002 34.1994 49.8002C34.4994 48.5002 34.1994 47.5001 33.1994 46.7001C32.4994 46.2001 31.4994 45.9001 30.6994 45.5001C30.1994 45.3001 29.4994 45.2001 29.3994 45.0001C28.8994 44.7001 28.1994 43.2001 27.5994 42.2001C26.8994 41.0001 26.2994 39.9001 25.7994 39.1001C27.2994 35.8001 29.3994 32.8001 32.2994 30.5001C34.8994 32.3001 37.8994 33.5002 40.8994 33.8002C37.2994 36.6002 36.0994 40.3001 37.7994 43.7001C39.7994 47.7001 43.7994 47.2001 47.3994 46.5001C48.0994 46.3001 48.6994 46.3001 49.1994 46.2001C49.3994 46.2001 49.4994 46.2001 49.4994 46.2001C50.2994 46.9001 50.2994 50.2001 50.1994 52.7001C50.1994 56.0001 50.1994 59.2002 51.3994 60.8002C52.0994 61.6002 52.8994 62.1001 53.9994 62.1001C54.6994 62.1001 55.2994 61.9001 55.9994 61.6001C59.0994 60.3001 62.2994 56.3001 61.7994 53.2001C61.2994 50.4001 61.0994 48.6001 61.7994 47.1001C62.4994 45.8001 63.9994 44.5002 66.8994 42.8002C67.1994 44.5002 67.3994 46.1002 67.3994 47.8002C67.3994 53.6002 65.0994 59.1001 60.7994 63.2001C56.1994 67.7001 49.6994 70.0002 43.0994 69.3002C41.7994 69.1002 41.5994 71.3002 42.8994 71.3002C49.9994 72.1002 57.0994 69.6001 62.2994 64.7001C66.7994 60.2001 69.3994 54.3001 69.3994 48.0001C69.5994 39.6001 65.0994 32.1002 58.5994 27.8002C59.8994 26.8002 60.8994 26.0001 61.5994 25.5001C64.0994 27.2001 66.0994 29.3002 67.8994 31.8002C72.1994 37.8002 73.8994 45.0001 72.6994 52.2001C70.1994 67.1001 56.1994 77.2001 41.2994 74.7001C33.9994 73.5001 27.6994 69.6001 23.5994 63.6001C19.2994 57.6001 17.5994 50.4001 18.7994 43.2001C18.9994 41.9001 16.9994 41.5001 16.7994 42.9001C15.4994 50.7001 17.2994 58.5001 21.8994 64.9001C26.4994 71.4001 33.2994 75.5002 41.0994 76.8002C42.7994 77.1002 44.3994 77.1001 45.8994 77.1001C51.9994 77.1001 57.9994 75.3001 62.8994 71.6001C69.7994 66.5001 74.0994 59.7001 75.2994 51.9001ZM26.2994 42.8002C27.0994 44.3002 27.7994 45.6002 28.5994 46.3002C29.0994 46.8002 29.8994 47.0002 30.5994 47.3002C32.5994 48.0002 32.8994 48.3001 32.5994 49.0001C32.3994 50.0001 31.7994 51.2002 31.2994 52.3002C30.2994 54.5002 29.0994 56.6001 30.0994 58.1001C31.3994 60.3001 31.7994 62.2001 31.5994 63.6001C25.4994 58.1001 22.9994 49.4001 25.2994 41.4001C25.6994 41.7001 25.9994 42.2002 26.2994 42.8002ZM39.3994 8.40014L47.7994 19.8002L39.6994 18.1001L33.5994 9.80017C35.3994 9.20017 37.3994 8.70014 39.3994 8.40014ZM31.7994 10.9001L36.7994 17.7001L24.6994 15.4001C26.1994 14.2001 28.5994 12.4001 31.7994 10.9001ZM24.2994 17.3002L36.1994 19.6001L29.5994 24.6001C27.1994 22.0001 25.2994 19.2002 24.2994 17.3002ZM31.0994 26.1001L38.9994 20.3002L47.5994 22.0001L36.6994 30.1001C34.5994 28.9001 32.7994 27.6001 31.0994 26.1001ZM66.9994 40.3002C63.3994 42.3002 61.4994 43.8002 60.4994 45.8002C59.4994 47.8002 59.7994 50.1001 60.2994 53.1001C60.5994 54.9001 58.4994 58.2001 55.6994 59.4001C54.6994 59.9001 53.8994 59.7001 53.4994 59.2001C52.7994 58.2001 52.7994 54.9002 52.7994 52.3002C52.7994 48.7002 52.7994 45.7001 51.2994 44.4001C50.7994 43.9001 50.0994 43.7001 49.2994 43.7001C48.5994 43.7001 47.9994 43.9001 47.2994 44.0001C43.4994 44.7001 41.1994 44.8002 39.8994 42.3002C37.8994 38.2002 41.8994 35.2001 43.6994 34.0001C43.9994 33.8001 44.3994 33.5001 44.6994 33.2001C49.1994 32.7001 53.2994 30.7001 57.0994 28.4001C61.8994 31.1001 65.3994 35.4002 66.9994 40.3002ZM40.0994 31.1001C39.7994 31.1001 39.3994 30.9002 38.8994 30.8002L50.2994 22.4001L59.6994 24.2001C56.2994 26.9001 47.9994 32.6001 40.0994 31.1001ZM84.3994 24.9001C83.0994 28.2001 79.7994 30.4001 77.2994 31.7001C76.0994 32.4001 74.9994 32.7001 74.1994 33.0001L77.2994 25.6001L85.1994 22.3002C84.8994 23.1002 84.6994 24.1001 84.3994 24.9001ZM82.8994 11.7001C83.1994 12.5001 83.6994 13.7001 84.1994 15.0001C84.6994 16.5001 84.9994 18.1001 85.1994 20.0001L78.3994 22.8002L82.8994 11.7001ZM77.7994 12.4001C78.9994 11.7001 80.0994 11.4001 81.0994 11.1001L76.2994 22.7001L73.2994 15.4001C74.5994 14.0001 76.2994 13.0001 77.7994 12.4001ZM70.7994 28.9001C69.9994 26.3001 69.2994 22.4001 70.5994 19.1001C70.8994 18.4001 71.2994 17.8001 71.7994 17.1001L75.0994 25.2001L72.0994 32.3002C71.6994 31.4002 71.1994 30.2001 70.7994 28.9001Z" fill="#78DDA3"/>
<path d="M80.0998 75.4001C79.5998 75.1001 78.8998 75.1 78.5998 75.6C78.3998 75.8 78.3998 76.1001 78.2998 76.3001C78.2998 76.6001 78.4998 77 78.5998 77.1L85.9998 83.2C86.4998 83.5 87.1998 83.5 87.4998 83C87.7998 82.5 87.7998 81.8 87.2998 81.5L80.0998 75.4001Z" fill="#78DDA3"/>
<path d="M70.8 69.6001C70.6 69.8001 70.6 70.1002 70.5 70.3002C70.5 70.6002 70.7 71.0001 70.8 71.1001L75.1 74.7001C75.6 75.0001 76.3 75.0001 76.6 74.5001C76.9 74.0001 76.9 73.3001 76.4 73.0001L72.1 69.4002C72 69.0002 71.3 69.1001 70.8 69.6001Z" fill="#78DDA3"/>
<path d="M17.3998 65.2001L1.39982 70.8002C0.899824 71.0002 0.599824 71.6002 0.699824 72.3002C0.899824 72.8002 1.49982 73.1002 2.19982 73.0002L18.1998 67.4002C18.6998 67.2002 18.9998 66.7001 18.8998 66.2001C18.8998 66.0001 18.8998 66.0002 18.8998 65.9002C18.4998 65.3002 17.8998 65.0001 17.3998 65.2001Z" fill="#78DDA3"/>
<path d="M69 74.1001C68.7 73.6001 68 73.4002 67.5 73.8002C67.2 74.0002 67 74.3001 67 74.6001C67 74.8001 67 75.1002 67.2 75.3002L77.3 89.9002C77.6 90.4002 78.3 90.6001 78.8 90.2001C79.3 89.9001 79.5 89.2001 79.1 88.7001L69 74.1001Z" fill="#78DDA3"/>
<path d="M81.5996 49.1C81.5996 51.1 83.2996 52.7 85.1996 52.7C87.0996 52.7 88.7996 51 88.7996 49.1C88.7996 47.2 87.0996 45.5 85.1996 45.5C83.2996 45.5 81.5996 47.1 81.5996 49.1ZM86.8996 49.1C86.8996 50.1 86.0996 50.9 85.0996 50.9C84.0996 50.9 83.2996 50.1 83.2996 49.1C83.2996 48.1 84.0996 47.3 85.0996 47.3C86.1996 47.3 86.8996 48.1 86.8996 49.1Z" fill="#78DDA3"/>
</svg>
