<svg width="90" height="101" viewBox="0 0 90 101" fill="none" xmlns="http://www.w3.org/2000/svg">
<path d="M45 95.1C69.8528 95.1 90 74.9528 90 50.1C90 25.2472 69.8528 5.09998 45 5.09998C20.1472 5.09998 0 25.2472 0 50.1C0 74.9528 20.1472 95.1 45 95.1Z" fill="#00B964"/>
<path d="M80.6998 30.4C80.3998 30.4 80.0998 30.2 79.8998 29.9C79.6998 29.4 79.7998 28.9 80.1998 28.6L83.4998 26.7C83.9998 26.5 84.5998 26.8 84.7998 27.4C84.8998 27.8 84.7998 28.2 84.4998 28.4L81.0998 30.3C81.0998 30.4 80.8998 30.4 80.6998 30.4Z" fill="#78DDA3"/>
<path d="M74.2003 34.1999C73.9003 34.1999 73.5003 33.9999 73.4003 33.7999C73.1003 33.3999 73.3003 32.7999 73.7003 32.4999L77.0003 30.4999C77.5003 30.2999 78.1003 30.5999 78.3003 31.1999C78.4003 31.5999 78.3003 31.9999 78.0003 32.1999L74.7003 34.1999C74.5003 34.1999 74.3003 34.1999 74.2003 34.1999Z" fill="#78DDA3"/>
<path d="M60.2003 24.6999C60.0003 24.6999 59.9003 24.5999 59.7003 24.5999C59.3003 24.2999 59.1003 23.7999 59.4003 23.2999L66.7003 10.6999C67.0003 10.2999 67.6003 10.0999 68.0003 10.3999C68.4003 10.6999 68.6003 11.1999 68.3003 11.6999L61.0003 24.2999C60.9003 24.4999 60.6003 24.6999 60.2003 24.6999Z" fill="#78DDA3"/>
<path d="M44.9996 27.7C44.4996 27.7 44.0996 27.3 44.0996 26.8V21.4C44.1996 20.9 44.5996 20.5 45.0996 20.6C45.4996 20.6 45.8996 21 45.8996 21.4V26.8C45.8996 27.3 45.4996 27.7 44.9996 27.7Z" fill="#78DDA3"/>
<path d="M22.4999 90C22.2999 90 22.1999 90 21.9999 89.9C21.5999 89.6 21.3999 89.1 21.5999 88.6L25.3999 81.9C25.6999 81.5 26.1999 81.3 26.6999 81.6C27.0999 81.9 27.2999 82.4 26.9999 82.9L23.1999 89.6C23.0999 89.8 22.7999 90 22.4999 90Z" fill="#78DDA3"/>
<path d="M28.5001 79.6999C28.3001 79.6999 28.2001 79.6999 28.0001 79.5999C27.6001 79.2999 27.4001 78.7999 27.7001 78.2999L30.1001 74.1999C30.5001 73.7999 31.1001 73.7999 31.5001 74.1999C31.7001 74.3999 31.8001 74.7999 31.7001 75.0999L29.4001 79.1999C29.1001 79.4999 28.8001 79.6999 28.5001 79.6999Z" fill="#78DDA3"/>
<path d="M44.9996 96C44.4996 96 44.0996 95.6 44.0996 95.1V82.5C44.1996 82 44.5996 81.6 45.0996 81.7C45.4996 81.7 45.8996 82.1 45.8996 82.5V95.1C45.8996 95.6 45.4996 96 44.9996 96Z" fill="#78DDA3"/>
<path d="M70.3002 44.8C70.3002 36.9 63.9002 30.5 56.0002 30.5C51.1002 30.3 46.6002 33.4 45.0002 38C42.1002 32.6 38.4002 30.5 34.0002 30.5C26.1002 30.5 19.7002 36.9 19.7002 44.8V45.9C19.7002 53.5 28.2002 66.3 44.1002 76.1C44.6002 76.4 45.3002 76.4 45.9002 76.1C61.8002 66.3 70.3002 53.4 70.3002 45.9C70.3002 45.5 70.3002 45.2 70.3002 44.8Z" fill="white"/>
<path d="M25.1002 45.7C24.6002 45.7 24.2002 45.3 24.2002 44.8C24.2002 39.4 28.6002 35 34.0002 35C34.5002 35 34.9002 35.4 34.9002 35.9C34.9002 36.4 34.5002 36.8 34.0002 36.8C29.6002 36.8 26.0002 40.4 26.0002 44.7C26.0002 45.4 25.6002 45.8 25.1002 45.7Z" fill="#78DDA3"/>
<path d="M45.0998 63.9C44.6998 63.9 44.3998 63.7 44.2998 63.3L39.0998 51.5L36.5998 57.3C36.3998 57.6 36.0998 57.9 35.6998 57.9H15.2998C14.7998 58 14.2998 57.6 14.2998 57.1C14.2998 56.6 14.5998 56.1 15.0998 56.1C15.1998 56.1 15.1998 56.1 15.2998 56.1H35.0998L38.1998 48.9C38.3998 48.6 38.6998 48.4 38.9998 48.3C39.3998 48.3 39.6998 48.5 39.7998 48.9L44.7998 60.4L50.2998 42.8C50.3998 42.3 50.8998 42 51.3998 42.2C51.6998 42.3 51.9998 42.5 52.0998 42.8L55.2998 56H74.4998C74.9998 56.1 75.3998 56.5 75.2998 57C75.2998 57.4 74.8998 57.8 74.4998 57.8H54.7998C54.3998 57.8 53.9998 57.5 53.8998 57.1L51.2998 46.4L45.9998 63.2C45.8998 63.6 45.4998 63.8 45.1998 63.9H45.0998Z" fill="#78DDA3"/>
<path d="M15.7999 34H15.6999C13.0999 33.9 11.0999 31.8 11.1999 29.2C11.1999 28 11.6999 26.9 12.5999 26C13.4999 25.2 14.6999 24.7 15.8999 24.7C18.4999 24.7 20.4999 26.7999 20.4999 29.3999C20.4999 31.9999 18.3999 34.1 15.7999 34ZM15.7999 26.6C14.2999 26.6 13.0999 27.8 12.9999 29.3C12.9999 30.8 14.1999 32.1 15.6999 32.1C16.3999 32.2 17.1999 31.9 17.6999 31.3C18.1999 30.8 18.5999 30.1 18.5999 29.3C18.5999 27.8 17.3999 26.5 15.7999 26.6C15.8999 26.5 15.8999 26.5 15.7999 26.6Z" fill="#78DDA3"/>
<path d="M56.1996 84.0999C57.0833 84.0999 57.7996 83.3836 57.7996 82.4999C57.7996 81.6163 57.0833 80.8999 56.1996 80.8999C55.316 80.8999 54.5996 81.6163 54.5996 82.4999C54.5996 83.3836 55.316 84.0999 56.1996 84.0999Z" fill="#78DDA3"/>
<path d="M8.8002 47.8C9.68385 47.8 10.4002 47.0836 10.4002 46.2C10.4002 45.3163 9.68385 44.6 8.8002 44.6C7.91654 44.6 7.2002 45.3163 7.2002 46.2C7.2002 47.0836 7.91654 47.8 8.8002 47.8Z" fill="#78DDA3"/>
<path d="M44.9996 100.1C44.4996 100.1 44.0996 99.7 44.0996 99.2V82.7C44.1996 82.2 44.5996 81.7999 45.0996 81.8999C45.4996 81.8999 45.8996 82.3 45.8996 82.7V99.2C45.8996 99.7 45.4996 100.1 44.9996 100.1Z" fill="#78DDA3"/>
<path d="M44.9996 18.1C44.4996 18.1 44.0996 17.7 44.0996 17.2V1C44.0996 0.5 44.4996 0 45.0996 0C45.5996 0 46.0996 0.4 46.0996 1V17.1C46.0996 17.6 45.7996 18.1 45.2996 18.1H44.9996Z" fill="#78DDA3"/>
<path d="M81.0001 30.3C80.7001 30.3 80.3001 30.1 80.2001 29.8C80.0001 29.3 80.1001 28.8 80.6001 28.5L87.1001 24.9C87.6001 24.7 88.1001 24.8 88.4001 25.3C88.6001 25.8 88.5001 26.3001 88.0001 26.6001L81.5001 30.2C81.3001 30.2 81.2001 30.2 81.0001 30.3Z" fill="#78DDA3"/>
<path d="M2.6002 75.5C2.3002 75.5 1.9002 75.3 1.8002 75C1.6002 74.5 1.7002 74 2.1002 73.7L19.0002 64C19.5002 63.9 20.1002 64.2 20.2002 64.8C20.3002 65.1 20.2002 65.5 19.9002 65.7L3.0002 75.4C2.9002 75.5 2.7002 75.5 2.6002 75.5Z" fill="#78DDA3"/>
<path d="M74.9004 66.5C73.5004 66.5 72.0004 66.9 70.7004 67.5L64.3004 65.3C63.8004 65.2 63.3004 65.4 63.1004 65.9C63.0004 66.1 63.0004 66.4 63.1004 66.6L65.9004 72.3C63.6004 77.3 65.8004 83.1 70.8004 85.4C75.8004 87.7 81.6004 85.5 83.9004 80.5C86.2004 75.5 84.0004 69.7 79.0004 67.4C77.9004 66.9 76.7004 66.6 75.5004 66.5H74.9004ZM74.9004 83.9C70.6004 83.9 67.1004 80.4 67.1004 76.1C67.1004 74.9 67.4004 73.7 67.9004 72.6C68.0004 72.3 68.0004 72 67.9004 71.7L65.9004 67.6L70.5004 69.2C70.7004 69.3 71.0004 69.3 71.3004 69.2C75.1004 67.2 79.8004 68.7 81.8004 72.5C83.8004 76.3 82.3004 81 78.5004 83C77.4004 83.7 76.1004 84 74.9004 83.9Z" fill="#78DDA3"/>
<path d="M78.7004 74.9H76.1004V72.3C76.1004 71.8 75.7004 71.4 75.2004 71.4C74.7004 71.4 74.3004 71.8 74.3004 72.3V74.9H71.8004C71.3004 74.9 70.9004 75.3 70.9004 75.8C70.9004 76.3 71.3004 76.8 71.8004 76.8H74.4004V79.4C74.5004 79.9 74.9004 80.3 75.4004 80.2C75.8004 80.2 76.2004 79.8 76.2004 79.4V76.8H78.8004C79.3004 76.8 79.7004 76.3 79.7004 75.8C79.7004 75.3 79.3004 74.9 78.7004 74.9Z" fill="#78DDA3"/>
<path d="M34.4996 17.6H31.8996V15C31.7996 14.5 31.3996 14.1 30.8996 14.2C30.4996 14.2 30.0996 14.6 30.0996 15V17.6H27.4996C26.9996 17.6 26.5996 18 26.5996 18.5C26.5996 19 26.9996 19.4 27.4996 19.4H29.9996V22C29.9996 22.5 30.3996 22.9 30.8996 22.9C31.3996 22.9 31.7996 22.5 31.7996 22V19.4H34.3996C34.8996 19.3 35.2996 18.9 35.1996 18.4C35.2996 18 34.8996 17.7 34.4996 17.6Z" fill="#78DDA3"/>
<path d="M80.4005 52.4C77.7005 52.3 75.7005 50.2 75.8005 47.6C75.9005 45 78.0005 43 80.6005 43C83.2005 43 85.2005 45.1 85.2005 47.7C85.0005 50.3 82.9005 52.4 80.4005 52.4ZM80.4005 45C79.0005 45 77.9005 46.2 77.9005 47.6C77.9005 49 79.1005 50.1 80.5005 50.1C81.9005 50.1 83.0005 48.9 83.0005 47.5C82.9005 46.1 81.8005 45 80.4005 45Z" fill="#78DDA3"/>
</svg>
