<svg width="100" height="94" viewBox="0 0 100 94" fill="none" xmlns="http://www.w3.org/2000/svg">
<path d="M50 90.5C74.8528 90.5 95 70.3528 95 45.5C95 20.6472 74.8528 0.5 50 0.5C25.1472 0.5 5 20.6472 5 45.5C5 70.3528 25.1472 90.5 50 90.5Z" fill="#00B964"/>
<path d="M65.4004 71.9001C64.9004 71.9001 64.4004 72.3 64.4004 72.8V78.5001H42.8004V72.7001C42.8004 72.2001 42.4004 71.8 41.8004 71.8C41.3004 71.8 40.9004 72.2001 40.9004 72.7001V92.5001C40.9004 93.0001 41.3004 93.4001 41.8004 93.4001H65.4004C65.9004 93.4001 66.3004 93.0001 66.3004 92.5001V72.7001C66.4004 72.2001 66.0004 71.8001 65.4004 71.9001ZM42.8004 91.7001V80.4001H64.5004V91.7001H42.8004Z" fill="#78DDA3"/>
<path d="M72.7996 77.7999C70.7996 77.7999 69.0996 76.1999 69.0996 74.0999C69.0996 71.9999 70.6996 70.3999 72.7996 70.3999C74.7996 70.3999 76.4996 71.9999 76.4996 73.9999C76.4996 76.0999 74.8996 77.6999 72.7996 77.7999C72.7996 77.6999 72.7996 77.6999 72.7996 77.7999ZM72.7996 72.2999C71.7996 72.2999 70.9996 73.0999 70.9996 74.0999C70.9996 75.0999 71.7996 75.8999 72.7996 75.8999C73.7996 75.8999 74.5996 75.0999 74.5996 74.0999C74.5996 73.0999 73.7996 72.2999 72.7996 72.2999Z" fill="#78DDA3"/>
<path d="M77.8004 64.9001C78.5736 64.9001 79.2004 64.2733 79.2004 63.5001C79.2004 62.7269 78.5736 62.1001 77.8004 62.1001C77.0272 62.1001 76.4004 62.7269 76.4004 63.5001C76.4004 64.2733 77.0272 64.9001 77.8004 64.9001Z" fill="#78DDA3"/>
<path d="M76.4 26.3C77.1732 26.3 77.8 25.6732 77.8 24.9C77.8 24.1268 77.1732 23.5 76.4 23.5C75.6268 23.5 75 24.1268 75 24.9C75 25.6732 75.6268 26.3 76.4 26.3Z" fill="#78DDA3"/>
<path d="M42.8004 12.6C43.5736 12.6 44.2004 11.9733 44.2004 11.2001C44.2004 10.4269 43.5736 9.80005 42.8004 9.80005C42.0272 9.80005 41.4004 10.4269 41.4004 11.2001C41.4004 11.9733 42.0272 12.6 42.8004 12.6Z" fill="#78DDA3"/>
<path d="M27.8004 30.4001C28.5736 30.4001 29.2004 29.7733 29.2004 29.0001C29.2004 28.2269 28.5736 27.6001 27.8004 27.6001C27.0272 27.6001 26.4004 28.2269 26.4004 29.0001C26.4004 29.7733 27.0272 30.4001 27.8004 30.4001Z" fill="#78DDA3"/>
<path d="M31.6002 80.6C32.3734 80.6 33.0002 79.9733 33.0002 79.2001C33.0002 78.4269 32.3734 77.8 31.6002 77.8C30.827 77.8 30.2002 78.4269 30.2002 79.2001C30.2002 79.9733 30.827 80.6 31.6002 80.6Z" fill="#78DDA3"/>
<path d="M21.1998 72.8C21.973 72.8 22.5998 72.1732 22.5998 71.4C22.5998 70.6268 21.973 70 21.1998 70C20.4266 70 19.7998 70.6268 19.7998 71.4C19.7998 72.1732 20.4266 72.8 21.1998 72.8Z" fill="#78DDA3"/>
<path d="M30.4998 21.2001C28.4998 21.2001 26.7998 19.6001 26.7998 17.5001C26.7998 15.5001 28.3998 13.8 30.4998 13.8C32.5998 13.8 34.1998 15.4001 34.1998 17.5001C34.1998 19.6001 32.5998 21.2001 30.4998 21.2001ZM30.4998 15.8C29.4998 15.8 28.6998 16.6 28.6998 17.6C28.6998 18.6 29.4998 19.4001 30.4998 19.4001C31.4998 19.4001 32.2998 18.6 32.2998 17.6C32.2998 16.6 31.4998 15.8 30.4998 15.8Z" fill="#78DDA3"/>
<path d="M71.2002 40.2001C70.7002 40.2001 70.2002 39.8 70.2002 39.3C70.2002 38.9 70.4002 38.5001 70.8002 38.4001L84.0002 33.7001C84.5002 33.6001 85.0002 33.8 85.2002 34.3C85.4002 34.8 85.1002 35.3 84.7002 35.5L71.5002 40.2001C71.4002 40.2001 71.3002 40.2001 71.2002 40.2001Z" fill="#78DDA3"/>
<path d="M84.4004 58.7001C84.3004 58.7001 84.2004 58.7001 84.1004 58.7001L70.9004 54C70.4004 53.8 70.2004 53.3 70.3004 52.8C70.5004 52.3 71.0004 52.1001 71.5004 52.2001L84.7004 56.9001C85.2004 57.1001 85.4004 57.6 85.3004 58.1C85.1004 58.5 84.8004 58.8001 84.4004 58.7001Z" fill="#78DDA3"/>
<path d="M99.1002 46.7999H83.7002C83.2002 46.7999 82.7002 46.3999 82.7002 45.7999C82.7002 45.2999 83.2002 44.8999 83.7002 44.8999H99.1002C99.6002 44.8999 100 45.2999 100 45.7999C100 46.3999 99.6002 46.7999 99.1002 46.7999Z" fill="#78DDA3"/>
<path d="M79.8002 46.7999H71.2002C70.7002 46.7999 70.2002 46.3999 70.2002 45.7999C70.2002 45.2999 70.7002 44.8999 71.2002 44.8999H79.8002C80.3002 44.8999 80.8002 45.2999 80.8002 45.7999C80.8002 46.3999 80.3002 46.7999 79.8002 46.7999Z" fill="#78DDA3"/>
<path d="M29 40.2001C28.9 40.2001 28.8 40.2001 28.7 40.2001L15.5 35.5C15 35.3 14.8 34.8 14.9 34.3C15.1 33.8 15.6 33.6001 16.1 33.7001L29.3 38.4001C29.8 38.6001 30 39.2 29.8 39.6C29.7 40.1 29.4 40.3001 29 40.2001Z" fill="#78DDA3"/>
<path d="M15.9 58.6999C15.4 58.6999 15 58.2999 15 57.7999C15 57.3999 15.2 56.9999 15.6 56.8999L28.8 52.1999C29.3 51.9999 29.8 52.1999 30 52.6999V52.7999C30.1 53.2999 29.9 53.7999 29.4 53.9999L16.2 58.6999H15.9V58.6999Z" fill="#78DDA3"/>
<path d="M16.6 46.7999H0.9C0.4 46.7999 0 46.3999 0 45.7999C0 45.2999 0.4 44.8999 0.9 44.8999H16.5C17 44.8999 17.4 45.2999 17.4 45.7999C17.5 46.3999 17.1 46.7999 16.6 46.7999Z" fill="#78DDA3"/>
<path d="M29 46.7999H20.4C19.9 46.7999 19.5 46.3999 19.5 45.7999C19.5 45.2999 19.9 44.8999 20.4 44.8999H29C29.5 44.8999 29.9 45.2999 29.9 45.7999C30 46.3999 29.6 46.7999 29 46.7999Z" fill="#78DDA3"/>
<path d="M65.1004 13.4L66.9004 11.5999C67.3004 11.1999 67.3004 10.6 66.9004 10.3C66.5004 9.99995 65.9004 9.99995 65.6004 10.3L63.8004 12.0999L62.0004 10.3C61.6004 9.99995 61.0004 9.99995 60.7004 10.3C60.3004 10.7 60.3004 11.2999 60.7004 11.5999L62.5004 13.4L60.7004 15.2C60.3004 15.6 60.3004 16.2 60.7004 16.5C61.1004 16.9 61.7004 16.9 62.0004 16.5L63.8004 14.7L65.6004 16.5C65.8004 16.7 66.0004 16.8 66.3004 16.8C66.6004 16.8 66.8004 16.7 67.0004 16.5C67.4004 16.1 67.4004 15.6 67.0004 15.2L65.1004 13.4Z" fill="#78DDA3"/>
<path d="M32.7996 69.9C30.7996 69.9 29.0996 68.2 29.0996 66.2C29.0996 64.2 30.7996 62.5 32.7996 62.5C34.7996 62.5 36.4996 64.2 36.4996 66.2C36.4996 68.2 34.7996 69.9 32.7996 69.9ZM32.7996 64.5C31.7996 64.5 30.9996 65.3 30.9996 66.3C30.9996 67.3 31.7996 68.1 32.7996 68.1C33.7996 68.1 34.5996 67.3 34.5996 66.3C34.5996 65.3 33.7996 64.5 32.7996 64.5C32.7996 64.5 32.7996 64.4 32.7996 64.5Z" fill="#78DDA3"/>
<path d="M56.0002 57.8H40.5002C40.0002 57.8 39.7002 57.4001 39.7002 57.0001V36.1C39.7002 35.6 40.1002 35.3 40.5002 35.3H56.0002C56.5002 35.3 56.8002 35.7 56.8002 36.1V57.1C56.8002 57.5 56.4002 57.8 56.0002 57.8ZM41.3002 56.2001H55.2002V36.9001H41.3002V56.2001Z" fill="#00B964"/>
<path d="M41.9004 69.5001H65.4004C66.0004 69.5001 66.4004 69.1001 66.4004 68.5001V29.7001C66.6004 28.3001 65.7004 27.0001 64.3004 26.8001C62.9004 26.6001 61.6004 27.5001 61.4004 28.9001C61.4004 29.0001 61.4004 29.1001 61.4004 29.2001C61.4004 29.4001 61.4004 29.6001 61.4004 29.8001V44.5001C61.4004 45.0001 61.0004 45.3001 60.6004 45.3001C60.1004 45.3001 59.8004 44.9001 59.8004 44.5001V25.5001C59.8004 24.1001 58.7004 23.0001 57.3004 23.0001C55.9004 23.0001 54.8004 24.1001 54.8004 25.5001V44.5001C54.8004 45.0001 54.4004 45.3001 54.0004 45.3001C53.5004 45.3001 53.2004 44.9001 53.2004 44.5001V21.2001C53.0004 19.8001 51.8004 18.8001 50.4004 19.0001C49.3004 19.1001 48.4004 20.0001 48.2004 21.2001V44.5001C48.2004 45.0001 47.8004 45.3001 47.4004 45.3001C46.9004 45.3001 46.6004 44.9001 46.6004 44.5001V25.5001C46.4004 24.1001 45.2004 23.1001 43.8004 23.3001C42.7004 23.4001 41.8004 24.3001 41.6004 25.5001V46.4001C41.6004 46.8001 42.0004 47.0001 42.8004 47.6001C44.6004 48.5001 45.7004 50.3001 45.7004 52.3001C45.7004 52.8001 45.3004 53.1001 44.9004 53.1001C44.4004 53.1001 44.1004 52.7001 44.1004 52.3001C44.1004 50.9001 43.3004 49.6001 41.9004 49.0001C41.0004 48.4001 40.0004 47.7001 40.0004 46.4001V42.9001C40.1004 40.3001 38.3004 38.1001 35.8004 37.7001C35.2004 37.7001 34.6004 37.9001 34.1004 38.3001C34.0004 38.4001 33.9004 38.6001 34.0004 38.8001C34.9004 43.1001 35.4004 47.5001 35.3004 51.9001C35.5004 54.0001 36.4004 55.9001 38.0004 57.2001C40.1004 59.0001 41.3004 61.7001 41.3004 64.5001V68.7001C41.0004 69.0001 41.4004 69.5001 41.9004 69.5001Z" fill="white"/>
<path d="M61.2 51.2001H60.9C57.3 49.9001 53.3 49.7001 49.6 50.7001C49.1 50.8001 48.6 50.6001 48.4 50.1001C48.3 49.6001 48.5 49.1001 49 49.0001C53.1 47.9001 57.5 48.1001 61.5 49.6001C62 49.8001 62.2 50.3001 62.1 50.8001C62 51.0001 61.6 51.3001 61.2 51.2001Z" fill="#78DDA3"/>
</svg>
