<svg width="100" height="96" viewBox="0 0 100 96" fill="none" xmlns="http://www.w3.org/2000/svg">
<path d="M50 95.2C74.8528 95.2 95 75.0528 95 50.2C95 25.3471 74.8528 5.19995 50 5.19995C25.1472 5.19995 5 25.3471 5 50.2C5 75.0528 25.1472 95.2 50 95.2Z" fill="#00B964"/>
<path d="M19.9 74.1001C20.6732 74.1001 21.3 73.4731 21.3 72.7C21.3 71.9268 20.6732 71.3 19.9 71.3C19.1268 71.3 18.5 71.9268 18.5 72.7C18.5 73.4731 19.1268 74.1001 19.9 74.1001Z" fill="#78DDA3"/>
<path d="M66.6998 85.2C67.473 85.2 68.0998 84.5732 68.0998 83.8C68.0998 83.0269 67.473 82.3999 66.6998 82.3999C65.9266 82.3999 65.2998 83.0269 65.2998 83.8C65.2998 84.5732 65.9266 85.2 66.6998 85.2Z" fill="#78DDA3"/>
<path d="M76.1004 78.7C74.1004 78.7 72.4004 77.1 72.4004 75C72.4004 73 74.0004 71.3 76.1004 71.3C78.1004 71.3 79.8004 72.9 79.8004 75C79.7004 77.1 78.1004 78.7 76.1004 78.7ZM76.1004 73.2C75.1004 73.2 74.3004 74 74.3004 75C74.3004 76 75.1004 76.8 76.1004 76.8C77.1004 76.8 77.9004 76 77.9004 75C78.0004 74 77.2004 73.2001 76.2004 73.1001C76.1004 73.2001 76.1004 73.2 76.1004 73.2Z" fill="#78DDA3"/>
<path d="M29.1004 84.1001C27.1004 84.1001 25.4004 82.3999 25.4004 80.3999C25.4004 78.3999 27.1004 76.7 29.1004 76.7C31.1004 76.7 32.8004 78.3999 32.8004 80.3999C32.8004 82.4999 31.1004 84.1001 29.1004 84.1001ZM29.1004 78.6001C28.1004 78.6001 27.3004 79.3999 27.3004 80.3999C27.3004 81.3999 28.1004 82.2 29.1004 82.2C30.1004 82.2 30.9004 81.3999 30.9004 80.3999C30.9004 79.3999 30.1004 78.6001 29.1004 78.6001Z" fill="#78DDA3"/>
<path d="M81.1998 66.8001H69.0998C68.5998 66.8001 68.1998 66.4 68.1998 65.9C68.1998 65.4 68.5998 65.0001 69.0998 65.0001H80.0998C78.0998 55.5001 73.0998 48.0001 67.0998 45.3001C66.7998 45.2001 66.5998 44.9001 66.4998 44.5001C66.4998 44.2001 66.5998 43.9002 66.8998 43.6002C68.9998 42.0002 70.2998 39.6 70.1998 36.9C70.2998 32.4 66.6998 28.6001 62.1998 28.5001C58.5998 28.4001 55.3998 30.7001 54.2998 34.0001C54.1998 34.5001 53.7998 34.9001 53.2998 34.8001C52.7998 34.7001 52.3998 34.3001 52.4998 33.8001C52.4998 33.6001 52.5998 33.5001 52.6998 33.3001C54.7998 28.2001 60.5998 25.8 65.7998 27.9C70.9998 30 73.2998 35.8001 71.1998 41.0001C70.6998 42.1001 70.0998 43.1001 69.1998 44.0001C75.4998 47.5001 80.3998 55.4002 82.2998 65.6002C82.3998 65.9002 82.2998 66.2 82.0998 66.4C81.7998 66.6 81.5998 66.7001 81.1998 66.8001Z" fill="#78DDA3"/>
<path d="M31.0004 66.8H18.8004C18.5004 66.8 18.2004 66.6999 18.1004 66.4999C17.9004 66.2999 17.9004 65.9999 17.9004 65.6999C19.8004 55.5999 24.6004 47.6 31.0004 44.1C27.3004 40 27.5004 33.6999 31.6004 29.9999C35.6004 26.2999 41.8004 26.4998 45.5004 30.3998C46.4004 31.2998 47.0004 32.2999 47.5004 33.4999C47.7004 33.9999 47.4004 34.4999 46.9004 34.6999C46.4004 34.8999 45.9004 34.6 45.7004 34.1C44.1004 29.9 39.4004 27.7 35.1004 29.3C30.9004 30.9 28.7004 35.5998 30.3004 39.8998C30.9004 41.3998 31.8004 42.7 33.1004 43.6C33.4004 43.8 33.5004 44.0999 33.5004 44.4999C33.5004 44.7999 33.2004 45.1 33.0004 45.3C26.9004 48 22.0004 55.4999 19.9004 64.9999H31.0004C31.5004 64.8999 32.0004 65.3 32.0004 65.8C32.1004 66.3 31.7004 66.8 31.2004 66.8C31.1004 66.8 31.1004 66.8 31.0004 66.8Z" fill="#78DDA3"/>
<path d="M66.3998 68.8999C64.3998 60.6999 60.0998 54.4001 54.6998 52.1001C58.2998 49.5001 59.0998 44.4999 56.4998 40.8999C53.8998 37.2999 48.8998 36.5001 45.2998 39.1001C41.6998 41.7001 40.8998 46.7 43.4998 50.3C43.9998 51 44.5998 51.6001 45.2998 52.1001C39.8998 54.5001 35.5998 60.7999 33.5998 68.8999C33.3998 69.6999 33.8998 70.6 34.6998 70.8C34.7998 70.8 34.9998 70.8 35.0998 70.8H64.7998C65.6998 70.8 66.3998 70.0999 66.3998 69.1999C66.3998 69.1999 66.3998 68.9999 66.3998 68.8999Z" fill="white"/>
<path d="M49.9999 49.5C48.5999 49.4 47.2999 48.9999 46.2999 48.1999C45.8999 47.8999 45.6999 47.3999 45.9999 46.8999C46.2999 46.4999 46.7999 46.3001 47.2999 46.6001L47.3999 46.6999C48.1999 47.2999 49.0999 47.5999 50.0999 47.6999C51.0999 47.5999 51.9999 47.2999 52.7999 46.6999C53.1999 46.3999 53.7999 46.6 54.0999 47C54.2999 47.4 54.2999 47.8999 53.8999 48.1999L53.7999 48.3C52.6999 49 51.3999 49.5 49.9999 49.5Z" fill="#78DDA3"/>
<path d="M49.9996 30.3999C49.4996 30.3999 49.0996 29.8999 49.0996 29.3999V15.2C49.1996 14.7 49.5996 14.2999 50.0996 14.3999C50.4996 14.3999 50.8996 14.8 50.8996 15.2V29.3999C50.8996 29.8999 50.4996 30.3999 49.9996 30.3999Z" fill="#78DDA3"/>
<path d="M49.9996 11.7C49.4996 11.7 49.0996 11.3001 49.0996 10.8001V1.00004C49.1996 0.500044 49.5996 0.0999949 50.0996 0.199995C50.4996 0.199995 50.8996 0.600044 50.8996 1.00004V10.8001C50.8996 11.3001 50.4996 11.7 49.9996 11.7Z" fill="#78DDA3"/>
<path d="M99.1002 54.6001H82.6002C82.1002 54.6001 81.7002 54.2 81.7002 53.7C81.7002 53.2 82.1002 52.7 82.6002 52.7H99.1002C99.6002 52.7 100 53.2 100 53.7C100 54.2 99.6002 54.6001 99.1002 54.6001Z" fill="#78DDA3"/>
<path d="M76.0996 39.6C75.5996 39.5 75.1996 39.1 75.2996 38.6C75.2996 38.3 75.4996 38.1 75.5996 38L81.4996 34.6999C81.8996 34.2999 82.4996 34.2999 82.8996 34.6999C83.2996 35.0999 83.2996 35.7 82.8996 36.1C82.7996 36.2 82.5996 36.2999 82.3996 36.3999L76.4996 39.6999C76.3996 39.5999 76.1996 39.6 76.0996 39.6Z" fill="#78DDA3"/>
<path d="M85.4004 34.1C84.9004 34 84.5004 33.6 84.6004 33.1C84.6004 32.8 84.8004 32.6 84.9004 32.5L94.2004 27.1C94.6004 26.7 95.2004 26.7 95.6004 27.1C96.0004 27.5 96.0004 28.1 95.6004 28.5C95.5004 28.6 95.4004 28.6999 95.2004 28.6999L85.9004 34.1C85.7004 34.2 85.6004 34.2 85.4004 34.1Z" fill="#78DDA3"/>
<path d="M67.1998 24.8C66.6998 24.8 66.2998 24.3999 66.2998 23.8999C66.2998 23.6999 66.2998 23.5999 66.3998 23.3999L75.6998 7.3C76.0998 6.9 76.6998 6.9 77.0998 7.3C77.2998 7.5 77.3998 7.8999 77.3998 8.1999L68.0998 24.3C67.8998 24.7 67.4998 24.8 67.1998 24.8Z" fill="#78DDA3"/>
<path d="M17.4 54.6001H0.9C0.4 54.6001 0 54.2 0 53.7C0 53.2 0.4 52.7 0.9 52.7H17.4C17.9 52.7 18.3 53.2 18.3 53.7C18.4 54.2 18 54.6001 17.4 54.6001Z" fill="#78DDA3"/>
<path d="M23.9996 39.6001C23.7996 39.6001 23.6996 39.5 23.4996 39.5L17.5996 36.2C17.0996 36.1 16.6996 35.6 16.7996 35C16.8996 34.5 17.3996 34.1 17.9996 34.2C18.1996 34.2 18.3996 34.3 18.4996 34.5L24.3996 37.8001C24.7996 38.1001 24.8996 38.7001 24.5996 39.1001C24.3996 39.3001 24.1996 39.4 23.9996 39.5V39.6001Z" fill="#78DDA3"/>
<path d="M14.5998 34.1001C14.3998 34.1001 14.2998 34.0001 14.0998 34.0001L4.7998 28.6001C4.2998 28.5001 3.8998 28 3.9998 27.4C4.0998 26.9 4.5998 26.5001 5.1998 26.6001C5.3998 26.6001 5.5998 26.7 5.6998 26.9L15.0998 32.3001C15.4998 32.5001 15.6998 33.1001 15.3998 33.6001C15.2998 33.9001 14.8998 34.1001 14.5998 34.1001Z" fill="#78DDA3"/>
<path d="M32.8004 24.8C32.5004 24.8 32.1004 24.6 32.0004 24.3L22.7004 8.1999C22.3004 7.7999 22.3004 7.2 22.7004 6.8C23.1004 6.4 23.7004 6.4 24.1004 6.8C24.2004 6.9 24.3004 7.1 24.4004 7.3L33.7004 23.3999C34.0004 23.7999 33.8004 24.3999 33.4004 24.6999C33.2004 24.7999 33.0004 24.8 32.8004 24.8Z" fill="#78DDA3"/>
<path d="M50.0003 92.1C49.8003 92.1 49.7003 92.0999 49.5003 91.9999C43.3003 88.2999 40.1003 83.3 40.1003 80.3C40.1003 80.2 40.1003 80.0999 40.1003 79.9999C40.0003 76.6999 42.7003 73.8998 46.0003 73.8998H46.1003C47.6003 73.8998 49.0004 74.4999 49.9004 75.6999C50.9004 74.4999 52.3004 73.7998 53.9004 73.8998C57.2004 73.8998 59.9004 76.5998 59.9004 79.8998H59.0003L60.0003 79.9999C60.0003 80.0999 60.0003 80.1998 60.0003 80.3998C60.0003 83.3998 56.8003 88.4 50.6003 92.1C50.4003 92.1 50.2003 92.1 50.0003 92.1ZM46.1003 75.6999C43.8003 75.6999 42.0003 77.6 42.0003 79.8V80.1C42.0003 82.5 44.8003 86.7999 50.0003 89.9999C55.2003 86.6999 58.0003 82.4999 58.0003 80.1999V79.8C58.0003 77.5 56.1004 75.6999 53.9004 75.6999C52.5004 75.6999 51.3004 76.5 50.9004 77.8C50.8004 78.1 50.4003 78.3998 50.1003 78.3998C49.7003 78.3998 49.4003 78.1998 49.2003 77.8998C48.2003 75.9998 47.0003 75.6999 46.1003 75.6999Z" fill="#78DDA3"/>
</svg>
