<svg width="787" height="552" viewBox="0 0 787 552" fill="none" xmlns="http://www.w3.org/2000/svg">
<path d="M0 480.449H787V480.055H0V480.449Z" fill="#E7E8E5"/>
<path d="M674.021 505.39H708.144V505.783H674.021V505.39Z" fill="#E7E8E5"/>
<path d="M488.818 497.616H542.506V497.223H488.818V497.616Z" fill="#E7E8E5"/>
<path d="M624.226 490.773H694.309V491.166H624.226V490.773Z" fill="#E7E8E5"/>
<path d="M272.324 499.102H254.794V498.708H272.324V499.102Z" fill="#E7E8E5"/>
<path d="M180.357 499.102H240.779V498.708H180.357V499.102Z" fill="#E7E8E5"/>
<path d="M147.959 492.457H104.367V492.063H147.959V492.457Z" fill="#E7E8E5"/>
<path d="M200.332 261.349C155.036 259.796 119.566 221.809 121.117 176.511C122.672 131.161 160.658 95.6937 205.955 97.244C251.251 98.796 286.723 136.781 285.168 182.131C283.616 227.431 245.629 262.9 200.332 261.349ZM340.099 194.341L340.807 173.659L328.108 169.51C327.586 162.442 326.405 155.463 324.723 148.739L335.486 140.803L328.174 121.375L314.861 122.447C311.688 116.164 307.959 110.189 303.779 104.582L310.676 93.0714L296.496 77.9436L284.595 84.0382C279.234 79.483 273.582 75.3544 267.533 71.7059L269.461 58.4953L250.576 49.9233L241.924 60.0646C235.332 57.9255 228.502 56.3264 221.437 55.2655L218.218 42.313L197.48 41.6031L193.385 54.3022C186.261 54.8783 179.338 56.0084 172.614 57.6894L164.622 46.9783L145.195 54.2376L146.269 67.5521C139.985 70.7772 134.011 74.506 128.403 78.6866L116.948 71.7925L101.765 85.9144L107.858 97.8689C103.305 103.176 99.1762 108.884 95.5799 114.934L82.3712 112.953L73.7474 131.833L83.941 140.488C81.8038 147.082 80.1462 153.965 79.1415 160.978L66.1345 164.246L65.4255 184.932L78.1781 189.084C78.6988 196.205 79.883 203.13 81.5645 209.853L70.803 217.789L78.114 237.22L91.4272 236.143C94.6006 242.425 98.3295 248.402 102.509 254.01L95.6112 265.519L109.791 280.648L121.692 274.552C127 279.107 132.705 283.237 138.754 286.886L136.771 300.093L155.656 308.664L164.363 298.526C170.955 300.665 177.785 302.265 184.852 303.326L188.069 316.276L208.807 316.987L212.904 304.286C220.026 303.712 226.949 302.583 233.673 300.901L241.611 311.609L261.037 304.351L260.019 291.041C266.303 287.815 272.223 284.083 277.883 279.904L289.341 286.801L304.522 272.676L298.43 260.721C302.982 255.412 307.113 249.706 310.708 243.656L323.917 245.639L332.541 226.756L322.346 218.102C324.485 211.512 326.139 204.682 327.145 197.613L340.099 194.341Z" fill="#E7E8E5"/>
<path d="M656.895 95.8306C653.057 91.7209 653.278 85.277 657.387 81.4395C661.503 77.5958 667.947 77.8177 671.785 81.9275C675.624 86.0387 675.402 92.4811 671.287 96.3248C667.178 100.162 660.732 99.9419 656.895 95.8306ZM694.066 125.943L699.283 121.071L697.199 116.965C698.795 115.114 700.208 113.124 701.437 111.075L705.997 111.763L708.952 105.243L705.443 102.257C706.202 99.9545 706.75 97.5872 707.097 95.201L711.586 94.074L711.818 86.9281L707.43 85.513C707.233 83.0954 706.861 80.7108 706.276 78.345L709.968 75.5937L707.453 68.8995L702.87 69.2615C701.784 67.1334 700.509 65.0762 699.045 63.0946L701.418 59.1533L696.534 53.9213L692.439 56.021C690.561 54.4249 688.598 53.0115 686.549 51.7822L687.212 47.2223L680.705 44.2538L677.72 47.7622C675.4 47.0177 673.035 46.47 670.648 46.1205L669.536 41.6457L662.39 41.3875L660.96 45.7884C658.555 45.9742 656.158 46.3582 653.805 46.9563L651.068 43.2527L644.361 45.7538L644.736 50.3499C642.608 51.436 640.525 52.7109 638.569 54.1763L634.601 51.8011L629.384 56.6726L631.481 60.7949C629.872 62.657 628.471 64.6355 627.242 66.6848L622.682 65.9939L619.728 72.5165L623.236 75.4992C622.479 77.8051 621.93 80.1724 621.582 82.5586L617.095 83.6825L616.862 90.8316L621.252 92.245C621.434 94.6501 621.818 97.0489 622.404 99.4146L618.7 102.15L621.215 108.846L625.81 108.497C626.896 110.626 628.171 112.682 629.636 114.662L627.263 118.605L632.145 123.835L636.242 121.737C638.118 123.335 640.081 124.747 642.132 125.976L641.455 130.523L647.964 133.49L650.961 129.996C653.279 130.742 655.634 131.276 658.033 131.636L659.144 136.112L666.29 136.369L667.721 131.968C670.124 131.785 672.523 131.401 674.875 130.802L677.612 134.507L684.32 132.006L683.944 127.408C686.072 126.322 688.142 125.061 690.111 123.583L694.066 125.943Z" fill="#E7E8E5"/>
<path d="M395.919 390.852C374.428 390.115 357.64 372.072 358.375 350.642C359.11 329.151 377.091 312.361 398.582 313.096C420.075 313.833 436.865 331.814 436.129 353.306C435.395 374.737 417.411 391.588 395.919 390.852ZM503.663 338.296L487.386 327.056L487.376 327.017C485.768 321.105 483.545 315.411 480.83 310.063L485.001 293.697L461.391 268.41L444.771 271.453C439.626 268.382 434.101 265.779 428.317 263.769L428.276 263.756L418.171 246.741L383.6 245.556L372.358 261.834L372.294 261.85C366.386 263.458 360.701 265.676 355.357 268.387L338.999 264.217L313.714 287.829L316.75 304.414L316.741 304.43C313.605 309.633 311.063 315.16 309.053 320.946L292.042 331.046L290.856 365.621L307.149 376.87C308.756 382.824 310.909 388.503 313.676 393.897L313.679 393.904L309.521 410.221L333.131 435.503L349.647 432.481C354.86 435.563 360.391 438.171 366.246 440.183L366.26 440.187L376.348 457.177L410.921 458.362L422.155 442.097C428.131 440.488 433.826 438.269 439.234 435.55L439.239 435.547L455.523 439.698L480.808 416.089L477.77 399.499C480.906 394.294 483.449 388.766 485.459 382.98L485.461 382.977L502.479 372.87L503.663 338.296Z" fill="#E7E8E5"/>
<path d="M529.95 109.727C506.815 109.727 487.61 128.135 486.812 151.432C485.996 175.228 504.692 195.249 528.489 196.066C540.019 196.452 551.015 192.339 559.447 184.455C567.873 176.578 572.73 165.9 573.125 154.39C573.939 130.592 555.243 110.57 531.447 109.753C530.946 109.735 530.446 109.727 529.95 109.727ZM530.01 202.74C529.428 202.74 528.847 202.729 528.261 202.71C500.801 201.769 479.226 178.662 480.168 151.204C481.109 123.745 504.251 102.177 531.674 103.109C559.134 104.05 580.708 127.156 579.767 154.616C579.312 167.901 573.707 180.224 563.986 189.31C554.682 198.007 542.674 202.74 530.01 202.74ZM554.427 83.3566H554.443H554.427ZM515.419 232.591L539.043 233.401L546.867 222.072C547.314 221.423 547.977 220.956 548.737 220.751C553.09 219.58 557.409 217.926 561.573 215.831L561.595 215.82C562.29 215.478 563.099 215.373 563.89 215.579L574.97 218.4L592.246 202.268L590.179 190.977C590.033 190.181 590.184 189.358 590.601 188.664C592.88 184.881 594.813 180.732 596.348 176.333C596.6 175.552 597.133 174.896 597.827 174.487L609.669 167.454L610.479 143.83L599.14 135.999C598.547 135.59 598.104 134.998 597.876 134.316L597.799 134.05C596.614 129.709 594.966 125.444 592.898 121.372C592.532 120.653 592.443 119.826 592.641 119.046L595.48 107.905L579.347 90.6254L568.032 92.6967C567.238 92.8431 566.421 92.6936 565.73 92.2812C561.795 89.9328 557.64 87.9937 553.381 86.511C553.14 86.4291 552.896 86.3173 552.687 86.1883C552.227 85.9065 551.844 85.5178 551.571 85.055L544.532 73.2028L520.906 72.3937L513.077 83.7328C512.611 84.4081 511.912 84.8834 511.12 85.0739C506.749 86.2717 502.498 87.915 498.443 89.9738C497.724 90.3373 496.896 90.4302 496.119 90.2303L484.983 87.3908L467.705 103.526L469.771 114.816C469.9 115.524 469.797 116.256 469.474 116.9L469.324 117.168C467.04 120.964 465.104 125.126 463.573 129.538C463.315 130.278 462.803 130.906 462.13 131.305L450.281 138.341L449.472 161.965L460.82 169.802C461.467 170.249 461.934 170.912 462.139 171.671C463.362 176.197 465.01 180.494 467.034 184.447C467.151 184.673 467.242 184.913 467.303 185.161C467.437 185.695 467.437 186.255 467.3 186.787L464.47 197.89L480.604 215.167L491.839 213.111C492.629 212.968 493.441 213.114 494.129 213.52C498.135 215.889 502.311 217.828 506.543 219.289C507.308 219.531 507.971 220.048 508.393 220.759L515.419 232.591ZM540.745 240.107H540.631L513.374 239.173C512.243 239.134 511.208 238.522 510.631 237.549L503.291 225.188C499.389 223.773 495.544 221.988 491.829 219.871L480.013 222.032C478.897 222.243 477.759 221.861 476.987 221.031L458.372 201.1C457.6 200.272 457.302 199.109 457.581 198.01L460.552 186.347C458.747 182.654 457.236 178.708 456.052 174.589L444.199 166.402C443.267 165.76 442.727 164.687 442.765 163.555L443.7 136.297C443.737 135.166 444.35 134.131 445.324 133.553L457.705 126.201C459.174 122.183 460.952 118.355 463.009 114.793L460.837 102.936C460.634 101.823 461.012 100.68 461.838 99.9088L481.773 81.2931C482.601 80.5187 483.766 80.2228 484.863 80.5014L496.564 83.4857C500.351 81.6441 504.284 80.1268 508.29 78.9667L516.469 67.1208C517.113 66.189 518.169 65.6129 519.318 65.6885L546.575 66.6234C547.706 66.6612 548.741 67.2735 549.318 68.2478L556.672 80.6289C560.579 82.0597 564.396 83.8398 568.047 85.9364L579.937 83.7596C581.053 83.5565 582.191 83.9327 582.966 84.7591L601.578 104.695C602.351 105.525 602.648 106.688 602.37 107.785L599.387 119.491C601.23 123.28 602.746 127.211 603.906 131.213L615.75 139.391C616.682 140.033 617.222 141.108 617.184 142.24L616.251 169.499C616.212 170.63 615.599 171.664 614.625 172.242L602.239 179.597C600.772 183.616 598.994 187.442 596.941 190.998L599.112 202.859C599.316 203.972 598.939 205.115 598.111 205.886L578.178 224.499C577.35 225.273 576.188 225.571 575.088 225.289L563.439 222.322C559.598 224.175 555.644 225.69 551.652 226.839L543.48 238.673C542.859 239.573 541.835 240.107 540.745 240.107Z" fill="#E7E8E5"/>
<path d="M603.533 43.939L592.241 40.9059L589.21 29.6156L593.631 25.1958L598.295 34.8539L607.954 39.5176L603.533 43.939Z" fill="#DADBD8"/>
<path d="M604.235 36.3806C606.291 34.3234 606.291 30.9708 604.233 28.9136C602.178 26.8579 598.839 26.8721 596.782 28.9277L602.398 20.5037L609.931 24.3112L611.582 32.2253L604.235 36.3806Z" fill="#DADBD8"/>
<path d="M607.764 32.8517C609.821 30.7929 609.821 27.4403 607.764 25.3831C605.707 23.3274 602.37 23.3432 600.313 25.3988C598.255 27.4561 598.255 30.7788 600.313 32.836C602.37 34.8916 605.707 34.9074 607.764 32.8517ZM592.74 26.0867L601.015 17.8121L612.305 20.8437L615.336 32.134L607.063 40.4101L595.772 37.377L592.74 26.0867Z" fill="#EDEDEB"/>
<path d="M142.008 345.177L148.067 343.55L149.694 337.493L147.322 335.121L144.818 340.303L139.636 342.807L142.008 345.177Z" fill="#DADBD8"/>
<path d="M141.632 341.123C140.528 340.018 140.528 338.22 141.632 337.115C142.735 336.012 144.526 336.02 145.63 337.123L142.617 332.603L138.574 334.646L137.689 338.892L141.632 341.123Z" fill="#DADBD8"/>
<path d="M139.737 339.228C138.633 338.124 138.633 336.325 139.737 335.222C140.841 334.118 142.632 334.126 143.736 335.23C144.839 336.333 144.839 338.116 143.736 339.22C142.632 340.323 140.841 340.331 139.737 339.228ZM147.8 335.596L143.359 331.158L137.301 332.784L135.673 338.844L140.114 343.284L146.172 341.656L147.8 335.596Z" fill="#EDEDEB"/>
<path d="M120.195 12.991L125.223 18.0215C126.532 19.331 128.675 19.331 129.985 18.0215C131.294 16.7119 131.294 14.5681 129.985 13.2585L124.956 8.23118C123.646 6.92161 121.504 6.92161 120.195 8.23118C118.885 9.54075 118.885 11.6814 120.195 12.991Z" fill="#EDEDEB"/>
<path d="M116.652 0.466628C120.527 -0.923214 124.728 0.896343 126.034 4.53386C127.341 8.17137 125.258 12.248 121.383 13.6395C117.508 15.0309 113.308 13.2113 112.001 9.57538C110.695 5.9363 112.777 1.85962 116.652 0.466628Z" fill="#DADBD8"/>
<path d="M111.171 8.72698L111.9 10.7559L126.864 5.38223L126.135 3.35336L111.171 8.72698Z" fill="#EDEDEB"/>
<path d="M698.681 533.319C698.681 543.163 562.049 551.142 393.5 551.142C224.953 551.142 88.3185 543.163 88.3185 533.319C88.3185 523.475 224.953 515.495 393.5 515.495C562.049 515.495 698.681 523.475 698.681 533.319Z" fill="#F3F2F1"/>
<path d="M149.624 65.1329C150.599 69.4205 152.095 72.3198 154.114 73.8292C156.132 75.3419 158.513 75.7826 161.255 75.1577C164.074 74.5186 166.048 73.1068 167.175 70.9205C168.303 68.7358 168.327 65.2667 167.247 60.5179C166.337 56.5215 164.867 53.7828 162.837 52.3048C160.805 50.8284 158.409 50.4034 155.648 51.0314C153.002 51.6327 151.091 53.054 149.915 55.2891C148.738 57.5273 148.64 60.8075 149.624 65.1329ZM136.49 68.0574C134.915 61.1271 135.618 55.2923 138.602 50.5498C141.586 45.8105 146.525 42.6577 153.418 41.09C160.485 39.4846 166.361 40.1425 171.047 43.0686C175.732 45.9931 178.852 50.8725 180.406 57.7083C181.534 62.6712 181.624 66.9304 180.676 70.4861C179.729 74.0417 177.876 77.0638 175.122 79.5476C172.366 82.0329 168.632 83.8084 163.921 84.8787C159.133 85.9695 154.997 86.108 151.512 85.2958C148.027 84.4837 144.935 82.6483 142.234 79.7884C139.533 76.9316 137.619 73.0202 136.49 68.0574Z" fill="#17282F"/>
<path d="M198.477 60.1496C199.098 62.8915 200.115 64.7929 201.524 65.8553C202.933 66.9146 204.477 67.2531 206.158 66.8721C207.856 66.4849 209.104 65.5201 209.901 63.9791C210.699 62.4366 210.771 60.2377 210.123 57.3825C209.517 54.7161 208.514 52.8573 207.118 51.8042C205.72 50.7512 204.211 50.4081 202.59 50.7764C200.871 51.1668 199.602 52.1521 198.784 53.7292C197.964 55.3048 197.861 57.447 198.477 60.1496ZM186.665 62.8647C185.598 58.1727 186.303 53.9465 188.779 50.1846C191.254 46.4243 195.185 43.9311 200.572 42.7065C206.732 41.3072 211.791 42.0344 215.751 44.8912C218.934 47.194 221.004 50.449 221.961 54.6579C223.036 59.3909 222.35 63.6234 219.899 67.3585C217.448 71.0936 213.452 73.59 207.91 74.8492C202.967 75.973 198.684 75.6283 195.063 73.8103C190.61 71.5548 187.811 67.9047 186.665 62.8647Z" fill="#17282F"/>
<path d="M239.553 50.841C240.106 53.2744 241.028 54.9633 242.319 55.9092C243.61 56.8552 245.037 57.148 246.602 56.7938C247.973 56.4806 248.993 55.6558 249.663 54.3148C250.332 52.9753 250.36 50.9543 249.747 48.2502C249.18 45.7585 248.281 44.0397 247.05 43.0906C245.819 42.1415 244.508 41.8267 243.118 42.1415C241.612 42.4846 240.491 43.3613 239.755 44.7638C239.018 46.1709 238.951 48.1966 239.553 50.841ZM233.873 80.5235L224.219 38.0617L235.255 35.5527L236.287 40.0984C237.38 37.8429 238.485 36.2311 239.605 35.2647C241.118 33.9677 242.917 33.08 245.003 32.6062C249.115 31.6712 252.654 32.5228 255.618 35.1561C258.583 37.7925 260.593 41.4285 261.646 46.0623C262.809 51.1794 262.471 55.3631 260.631 58.615C258.791 61.8653 255.999 63.9178 252.252 64.7693C250.438 65.1817 248.711 65.2494 247.074 64.9708C245.437 64.6922 243.891 64.0815 242.438 63.1323L245.777 77.8162L233.873 80.5235Z" fill="#17282F"/>
<path d="M266.691 51.7696L278.142 48.0093C278.94 49.289 279.841 50.1295 280.847 50.5324C281.851 50.9322 283.079 50.97 284.527 50.641C286.109 50.279 287.26 49.6636 287.974 48.7916C288.536 48.1368 288.731 47.4332 288.56 46.6809C288.368 45.8325 287.774 45.2769 286.781 45.0171C286.07 44.8346 284.288 44.8141 281.438 44.9542C277.181 45.173 274.188 45.1572 272.456 44.9133C270.725 44.6646 269.149 43.9453 267.73 42.7459C266.311 41.5481 265.391 40.0197 264.969 38.1687C264.509 36.1429 264.701 34.2651 265.545 32.5306C266.39 30.7976 267.763 29.3322 269.664 28.1407C271.565 26.9476 274.254 25.956 277.729 25.1659C281.4 24.3317 284.17 23.9979 286.046 24.1585C287.921 24.3222 289.575 24.8605 291.011 25.7718C292.448 26.6848 293.779 28.0557 295.009 29.8895L284.079 33.5317C283.566 32.6109 282.919 31.9986 282.138 31.6885C281.069 31.2809 279.879 31.2242 278.567 31.5248C277.235 31.827 276.319 32.2835 275.817 32.8942C275.316 33.5049 275.142 34.1487 275.296 34.8239C275.466 35.5747 275.982 36.0564 276.843 36.2657C277.702 36.4766 279.461 36.4404 282.119 36.1602C286.139 35.7148 289.196 35.6692 291.286 36.0249C293.378 36.3806 295.097 37.1786 296.444 38.4126C297.791 39.6482 298.663 41.1435 299.063 42.9001C299.466 44.674 299.323 46.5219 298.633 48.4437C297.942 50.3656 296.556 52.0844 294.475 53.6033C292.394 55.1191 289.364 56.3327 285.387 57.2377C279.767 58.5142 275.584 58.6212 272.836 57.5619C270.086 56.501 268.038 54.5698 266.691 51.7696Z" fill="#17282F"/>
<path d="M305.75 45.7191L317.808 45.6515L317.868 56.3122L305.809 56.3814L305.75 45.7191ZM305.118 12.8414L318.038 12.769L318.094 22.69L315.711 42.6325L307.722 42.6782L305.175 22.7608L305.118 12.8414Z" fill="#17282F"/>
<path d="M171.988 110.714C171.722 110.96 170.957 111.95 169.86 115.784C168.412 120.841 169.304 125.455 171.004 128.763C171.33 128.082 171.557 127.295 171.712 126.557C173.345 118.828 172.869 111.833 171.988 110.714ZM182.354 115.674C181.947 116.437 181.265 118.01 180.245 121.229C178.893 125.491 178.887 128.916 179.639 131.535L179.785 131.14C181.636 125.729 182.538 118.273 182.354 115.674ZM193.643 122.305C193.638 122.305 192.752 122.312 190.767 125.998C188.49 130.224 187.91 133.703 188.992 136.633C189.124 136.992 189.281 137.342 189.466 137.688C190.306 137.329 191.025 136.744 191.545 135.95C193.748 132.58 194.805 125.659 193.984 122.954C193.816 122.4 193.644 122.305 193.643 122.305ZM202.542 148.227L202.259 148.174C195.174 145.431 190.936 142.75 188.734 139.53C187.134 139.851 185.345 139.638 183.646 138.831C181.997 138.047 180.41 136.676 179.271 134.704C178.207 135.522 176.894 135.747 175.452 135.294C173.853 134.79 172.189 133.444 170.806 131.499C169.926 132.135 169.024 132.229 168.363 132.174C163.683 131.793 157.342 122.478 156.887 112.553C156.867 112.118 157.203 111.75 157.638 111.731C158.063 111.695 158.44 112.046 158.459 112.482C158.891 121.902 164.928 130.317 168.49 130.605C169.068 130.662 169.551 130.481 169.957 130.166C167.818 126.415 166.71 121.065 168.347 115.351C169.701 110.621 170.895 108.772 172.333 109.115C175.043 109.789 174.687 120.088 173.252 126.882C172.926 128.422 172.457 129.528 171.922 130.319C173.164 132.152 174.635 133.386 175.924 133.792C177.075 134.153 177.928 133.847 178.559 133.248C177.322 130.2 177.066 126.048 178.745 120.752C180.953 113.782 181.843 113.592 182.375 113.48C182.749 113.401 183.124 113.524 183.39 113.826C184.844 115.468 183.107 126.295 181.274 131.65C181.037 132.347 180.741 132.955 180.398 133.471C181.375 135.387 182.814 136.692 184.322 137.408C185.531 137.984 186.771 138.192 187.899 138.086C187.758 137.789 187.63 137.487 187.515 137.18C186.269 133.799 186.878 129.898 189.381 125.252C191.041 122.17 192.395 120.733 193.641 120.731H193.643C194.014 120.731 194.705 120.868 195.196 121.773C196.569 124.306 195.574 132.664 192.862 136.811C192.223 137.789 191.34 138.528 190.315 139.012C192.425 141.785 196.429 144.228 202.827 146.709C203.232 146.864 203.433 147.319 203.276 147.725C203.156 148.037 202.857 148.227 202.542 148.227Z" fill="#17282F"/>
<path d="M266.478 213.127C266.566 213.372 266.917 214.019 268.313 215.311C270.654 217.474 272.78 218.436 274.816 218.212C274.984 218.197 275.153 218.171 275.319 218.137C275.208 217.66 274.981 217.217 274.636 216.838C272.422 214.411 267.553 212.875 266.478 213.127ZM260.985 219.815C261.514 220.205 262.272 220.721 263.355 221.4C265.491 222.734 267.396 223.351 269.023 223.48C266.414 221.864 263.003 220.432 260.985 219.815ZM262.383 230.73C259.982 230.73 257.458 230.184 255.204 228.86C254.827 228.638 254.703 228.158 254.922 227.782C255.142 227.406 255.625 227.285 256 227.502C261.615 230.798 268.872 228.498 270.366 226.096C270.539 225.815 270.698 225.457 270.597 225.04C268.376 225.276 265.646 224.688 262.521 222.733C258.515 220.23 258.207 219.486 258.232 218.889C258.248 218.536 258.448 218.23 258.769 218.066C260.335 217.271 267.434 220.543 270.393 222.487C270.78 222.742 271.107 223.018 271.372 223.31C272.68 222.991 273.693 222.316 274.367 221.507C274.828 220.953 275.138 220.347 275.291 219.741L274.976 219.778C272.459 220.033 269.935 218.952 267.246 216.467C265.398 214.759 264.681 213.582 264.92 212.648C264.995 212.352 265.244 211.822 266.05 211.62C268.228 211.079 273.602 213.369 275.799 215.777C276.294 216.319 276.63 216.956 276.808 217.641C278.862 216.676 281.035 214.512 283.606 210.918C283.86 210.564 284.351 210.482 284.705 210.736C285.058 210.988 285.14 211.48 284.888 211.834C281.913 215.988 279.434 218.343 276.944 219.305C276.846 220.413 276.388 221.54 275.576 222.516C274.778 223.471 273.615 224.293 272.143 224.736C272.3 225.445 272.159 226.194 271.702 226.926C270.375 229.063 266.569 230.73 262.383 230.73Z" fill="#17282F"/>
<path d="M159.122 251.117L199.981 179.393L211.382 241.622L159.122 251.117ZM283.229 228.571L258.703 233.025L236.435 111.495L189.116 120.091L112.007 257.027L120.287 302.213L219.192 284.246L225.963 321.205L273.284 312.61L266.513 275.652L291.039 271.195L283.229 228.571Z" fill="#1AAC7A"/>
<path d="M480.747 103.228C479.832 94.8326 478.154 87.3719 475.715 80.8492C473.277 74.325 469.609 67.9298 464.712 61.6621C459.817 55.3961 453.151 49.9579 444.716 45.3461C436.28 40.739 425.145 37.528 411.313 35.7258C382.521 31.9749 360.076 37.0857 343.974 51.0565C327.871 65.0289 317.276 91.7932 312.182 131.349C310.111 147.437 309.598 162.308 310.646 175.964C311.688 189.617 314.194 200.601 318.165 208.911C323.597 220.589 331.285 229.915 341.223 236.885C351.159 243.854 364.775 248.469 382.068 250.723C412.914 254.74 435.773 248.82 450.646 232.956C465.517 217.093 475.384 190.282 480.245 152.523C482.414 135.68 482.581 119.247 480.747 103.228Z" fill="#1AAC7A"/>
<path d="M396.28 234.566C392.494 234.435 388.465 234.094 384.305 233.551C369.896 231.676 358.748 228.029 351.167 222.711C343.689 217.466 338.029 210.566 333.866 201.61L333.787 201.448C330.762 195.115 328.785 186.095 327.91 174.646C326.958 162.23 327.444 148.407 329.355 133.559C334.972 89.9265 346.576 71.7216 355.321 64.135C365.517 55.2891 379.279 51.2896 397.394 51.9113C401.106 52.0372 405.036 52.3693 409.075 52.8951C420.702 54.4092 429.9 56.9827 436.417 60.54C442.727 63.9902 447.657 67.9551 451.069 72.3229C454.853 77.1646 457.688 82.0723 459.496 86.9107C461.421 92.0593 462.78 98.1806 463.535 105.103C465.211 119.755 465.052 134.937 463.074 150.311C458.709 184.214 450.277 208.035 438.016 221.112C428.92 230.815 415.268 235.216 396.283 234.566H396.28Z" fill="#383838"/>
<path d="M386.796 123.007C373.74 122.56 363.515 111.611 363.964 98.5536C364.411 85.4815 375.361 75.2584 388.418 75.7054C401.474 76.154 411.699 87.1011 411.25 100.173C410.803 113.231 399.853 123.454 386.796 123.007ZM427.083 103.693L427.287 97.7304L423.626 96.5357C423.477 94.499 423.135 92.4858 422.65 90.5482L425.753 88.2612L423.647 82.6609L419.808 82.9694C418.893 81.1593 417.818 79.4357 416.614 77.8208L418.602 74.5029L414.514 70.1429L411.085 71.8979C409.539 70.5852 407.91 69.3968 406.166 68.3454L406.722 64.5363L401.279 62.0651L398.785 64.9896C396.884 64.3726 394.917 63.9114 392.88 63.6061L391.951 59.8725L385.975 59.6679L384.794 63.3275C382.74 63.4943 380.744 63.8201 378.807 64.3033L376.502 61.2167L370.904 63.3085L371.212 67.1476C369.402 68.0778 367.678 69.1512 366.064 70.3569L362.761 68.369L358.384 72.4393L360.141 75.8864C358.828 77.4148 357.638 79.0596 356.602 80.8052L352.795 80.2322L350.309 85.6751L353.246 88.1699C352.631 90.0713 352.153 92.0545 351.863 94.0755L348.114 95.0183L347.911 100.981L351.586 102.177C351.735 104.229 352.077 106.227 352.562 108.163L349.459 110.453L351.567 116.052L355.404 115.743C356.319 117.553 357.394 119.275 358.6 120.892L356.61 124.21L360.698 128.57L364.129 126.813C365.659 128.126 367.302 129.317 369.046 130.369L368.475 134.176L373.918 136.646L376.428 133.725C378.328 134.34 380.297 134.801 382.334 135.108L383.261 138.84L389.239 139.045L390.42 135.384C392.472 135.218 394.468 134.894 396.406 134.408L398.694 137.494L404.294 135.402L404 131.567C405.812 130.636 407.518 129.56 409.15 128.356L412.452 130.344L416.828 126.272L415.073 122.828C416.384 121.296 417.574 119.651 418.612 117.907L422.419 118.48L424.904 113.036L421.966 110.541C422.583 108.641 423.06 106.674 423.349 104.636L427.083 103.693Z" fill="#1AAC7A"/>
<path d="M424.599 235.131L420.581 234.681L420.135 232.104C420.038 232.082 419.94 232.06 419.844 232.037C427.226 229.828 433.248 226.199 438.016 221.112C442.979 215.818 447.315 208.765 451.008 199.995L451.793 202.724L449.59 204.122C449.821 205.457 449.939 206.824 449.947 208.206L452.363 209.19L451.932 213.21L449.338 213.655C449.034 214.971 448.639 216.265 448.116 217.554L449.969 219.386L448.025 222.929L445.483 222.364C444.671 223.498 443.788 224.535 442.834 225.497L443.857 227.908L440.693 230.434L438.573 228.925C437.405 229.658 436.187 230.278 434.934 230.807L434.937 233.422L431.067 234.561L429.669 232.34C428.317 232.57 426.949 232.707 425.586 232.715L424.599 235.131Z" fill="#1AAC7A"/>
<path d="M414.385 232.739L410.842 230.793L411.426 228.232C410.293 227.441 409.256 226.556 408.294 225.604L405.864 226.625L403.337 223.462L404.849 221.322C404.113 220.173 403.493 218.955 402.964 217.702L400.348 217.705L399.21 213.816L401.433 212.42C401.202 211.085 401.065 209.717 401.074 208.354L398.66 207.35L399.091 203.332L401.666 202.905C401.97 201.57 402.382 200.276 402.906 198.986L401.054 197.154L402.997 193.611L405.538 194.177C406.333 193.044 407.233 192.007 408.17 191.043L407.165 188.632L410.309 186.106L412.449 187.617C413.617 186.883 414.836 186.262 416.088 185.734L416.066 183.117L419.956 181.98L421.353 184.201C422.706 183.97 424.054 183.833 425.436 183.825L426.422 181.411L430.44 181.861L430.887 184.434C432.203 184.738 433.516 185.133 434.786 185.673L436.637 183.803L440.18 185.747L439.595 188.308C440.729 189.101 441.767 189.984 442.728 190.938L445.14 189.934L447.666 193.079L446.174 195.219C446.909 196.367 447.529 197.587 448.056 198.857L450.672 198.836L451.008 199.995C447.315 208.765 442.979 215.818 438.016 221.112C433.248 226.199 427.226 229.828 419.844 232.037C418.626 231.744 417.412 231.369 416.235 230.886L414.385 232.739ZM425.504 201.254C423.028 201.254 420.631 202.567 419.354 204.891C417.488 208.291 418.723 212.568 422.122 214.436C423.192 215.023 424.347 215.302 425.488 215.302C427.974 215.302 430.388 213.98 431.668 211.649C433.533 208.25 432.28 203.99 428.88 202.124C427.807 201.534 426.647 201.254 425.504 201.254Z" fill="#13805A"/>
<path d="M443.174 160.336C436.979 160.124 432.14 154.923 432.351 148.747C432.564 142.552 437.747 137.712 443.94 137.924C450.136 138.135 454.976 143.318 454.763 149.515C454.552 155.691 449.368 160.549 443.174 160.336ZM474.23 145.188L469.538 141.947L469.535 141.936C469.071 140.232 468.43 138.59 467.648 137.049L468.851 132.332L462.046 125.044L457.255 125.921C455.772 125.035 454.179 124.285 452.512 123.705L452.5 123.701L449.588 118.797L439.621 118.455L436.382 123.147L436.363 123.152C434.66 123.616 433.022 124.255 431.482 125.036L426.767 123.834L419.477 130.641L420.354 135.421L420.351 135.426C419.447 136.926 418.714 138.519 418.135 140.186L413.232 143.098L412.89 153.064L417.585 156.305C418.05 158.022 418.67 159.659 419.468 161.215V161.216L418.27 165.919L425.074 173.208L429.836 172.336C431.337 173.224 432.932 173.977 434.621 174.556L434.624 174.557L437.533 179.454L447.498 179.796L450.735 175.108C452.459 174.644 454.099 174.003 455.659 173.219H455.66L460.354 174.416L467.642 167.611L466.767 162.829C467.67 161.329 468.404 159.735 468.983 158.067L473.889 155.153L474.23 145.188Z" fill="white"/>
<path d="M500.46 55.4512C500.05 53.1595 501.579 50.9732 503.864 50.5639C506.156 50.1547 508.341 51.6768 508.75 53.9685C509.161 56.2587 507.639 58.4434 505.347 58.8542C503.061 59.2634 500.87 57.7414 500.46 55.4512ZM508.468 65.6602L509.29 63.6848L509.293 63.6817C509.882 63.3763 510.434 63.0127 510.939 62.6035L512.765 62.6743L514.906 59.6003L514.207 57.9114C514.415 57.2959 514.566 56.6538 514.646 55.9942L514.648 55.9895L516.218 54.5336L515.559 50.8473L513.58 50.0288L513.577 50.0225C513.274 49.4338 512.91 48.8814 512.501 48.3777L512.572 46.5518L509.498 44.4112L507.812 45.1101L507.81 45.1085C507.188 44.8944 506.545 44.7512 505.887 44.6709L504.432 43.1001L500.746 43.758L499.924 45.7381C499.331 46.0419 498.779 46.4007 498.27 46.8162L496.449 46.747L494.308 49.8194L495.004 51.4973C494.796 52.1206 494.645 52.7644 494.565 53.4302V53.4318L492.996 54.8861L493.655 58.5725L495.632 59.391C495.938 59.9875 496.303 60.54 496.712 61.05L496.713 61.0515L496.644 62.8679L499.717 65.0085L501.402 64.3113C502.026 64.5253 502.668 64.6686 503.326 64.7489H503.327L504.783 66.3197L508.468 65.6602Z" fill="#1AAC7A"/>
<path d="M465.285 55.2183L464.084 54.203C466.173 51.7287 469.137 48.5933 473.541 46.2874L474.27 47.6835C469.576 50.1389 466.57 53.6994 465.285 55.2183Z" fill="#1AAC7A"/>
<path d="M477.852 46.2653L477.23 44.8172C483.185 42.2674 489.405 41.2726 495.708 41.8581L495.561 43.4259C489.517 42.8498 483.561 43.8162 477.852 46.2653Z" fill="#1AAC7A"/>
<path d="M474.881 57.1543L473.579 56.2697C476.812 51.5209 483.201 47.386 489.117 46.2134L489.423 47.7559C483.879 48.8577 477.899 52.7219 474.881 57.1543Z" fill="#1AAC7A"/>
<path d="M353.152 165.672C350.291 169.991 349.282 175.166 350.314 180.244C351.345 185.322 354.292 189.695 358.611 192.558C367.529 198.465 379.591 196.022 385.496 187.108C391.405 178.193 388.961 166.127 380.047 160.213C371.135 154.306 359.07 156.754 353.152 165.672ZM369.298 197.354C365.319 197.354 361.299 196.228 357.74 193.87C353.072 190.776 349.886 186.048 348.772 180.557C347.656 175.067 348.746 169.473 351.839 164.803H351.841C358.239 155.163 371.283 152.515 380.916 158.901C390.553 165.294 393.196 178.338 386.809 187.977C382.779 194.059 376.099 197.354 369.298 197.354ZM361.557 202.447L361.779 202.479C363.465 202.974 365.218 203.302 366.991 203.448C367.181 203.464 367.359 203.549 367.491 203.686L370.694 206.988L379.984 205.104L381.653 200.804C381.722 200.626 381.854 200.478 382.022 200.39C383.601 199.568 385.092 198.589 386.453 197.478C386.596 197.36 386.759 197.281 386.963 197.3L392.425 197.383L397.662 189.482L395.452 184.472C395.376 184.302 395.365 184.112 395.417 183.934C395.915 182.216 396.24 180.463 396.385 178.722C396.401 178.532 396.484 178.355 396.621 178.222L399.927 175.017L398.043 165.729L393.75 164.063C393.568 163.993 393.418 163.857 393.332 163.683C392.513 162.109 391.533 160.623 390.418 159.266C390.3 159.121 390.236 158.94 390.239 158.754L390.322 153.286L382.422 148.05L377.423 150.255C377.253 150.327 377.064 150.34 376.886 150.291C375.18 149.795 373.42 149.469 371.656 149.321C371.466 149.306 371.289 149.221 371.157 149.085L367.956 145.786L358.667 147.67L357.004 151.963C356.934 152.14 356.802 152.288 356.632 152.375C355.065 153.192 353.572 154.174 352.198 155.295C352.055 155.411 351.863 155.495 351.687 155.474L346.225 155.389L340.99 163.292L343.197 168.294C343.291 168.51 343.285 168.756 343.181 168.965C342.737 170.537 342.411 172.294 342.263 174.055C342.247 174.244 342.164 174.42 342.027 174.554L338.725 177.757L340.607 187.047L344.898 188.709C345.09 188.783 345.244 188.93 345.329 189.114C346.145 190.675 347.122 192.158 348.23 193.507C348.348 193.652 348.414 193.836 348.411 194.021L348.328 199.486L356.229 204.725L361.239 202.515L361.557 202.447ZM370.43 208.631C370.219 208.631 370.014 208.548 369.865 208.392L366.564 204.991C364.883 204.832 363.221 204.523 361.614 204.068L356.47 206.336C356.226 206.45 355.943 206.42 355.718 206.273L347.1 200.56C346.877 200.412 346.744 200.162 346.747 199.892L346.834 194.283C345.787 192.979 344.852 191.566 344.053 190.069L339.638 188.358C339.389 188.261 339.205 188.043 339.151 187.781L337.097 177.649C337.044 177.386 337.129 177.114 337.321 176.926L340.722 173.627C340.88 171.956 341.188 170.29 341.641 168.671L339.375 163.533C339.266 163.287 339.291 163.004 339.439 162.781L345.151 154.161C345.299 153.938 345.509 153.799 345.82 153.809L351.425 153.895C352.741 152.844 354.158 151.911 355.642 151.117L357.355 146.701C357.452 146.45 357.669 146.266 357.932 146.213L368.064 144.159C368.329 144.107 368.599 144.19 368.787 144.381L372.083 147.779C373.757 147.936 375.424 148.246 377.045 148.7L382.181 146.436C382.425 146.328 382.709 146.353 382.934 146.501L391.551 152.213C391.775 152.361 391.907 152.613 391.902 152.882L391.817 158.493C392.866 159.798 393.797 161.211 394.594 162.704L399.012 164.418C399.264 164.514 399.447 164.731 399.5 164.994L401.554 175.126C401.608 175.388 401.523 175.661 401.331 175.848L397.928 179.149C397.772 180.803 397.463 182.464 397.007 184.097L399.275 189.241C399.384 189.487 399.36 189.772 399.212 189.995L393.5 198.611C393.352 198.835 393.116 198.946 392.833 198.964L387.224 198.879C385.918 199.921 384.503 200.851 383.012 201.647L381.297 206.074C381.199 206.325 380.98 206.508 380.719 206.561L370.586 208.617L370.43 208.631Z" fill="white"/>
<path d="M545.246 225.906L606.251 170.3L597.884 233.011L545.246 225.906ZM670.25 242.776L645.548 239.442L661.886 116.971L614.224 110.54L498.609 216.983L492.533 262.519L592.155 275.964L587.185 313.208L634.849 319.639L639.817 282.397L664.521 285.729L670.25 242.776Z" fill="#1AAC7A"/>
<path d="M620.367 318.473L620.224 318.46C619.797 318.382 619.514 317.971 619.593 317.544L656.308 116.182C656.385 115.756 656.799 115.49 657.222 115.55C657.65 115.627 657.934 116.038 657.855 116.466L621.14 317.826C621.071 318.207 620.74 318.473 620.367 318.473Z" fill="#17282F"/>
<path d="M652.944 119.565C652.92 120.276 652.324 120.832 651.611 120.81C650.899 120.785 650.342 120.187 650.366 119.475C650.391 118.764 650.988 118.205 651.699 118.23C652.412 118.255 652.969 118.85 652.944 119.565Z" fill="#17282F"/>
<path d="M647.699 146.795C647.674 147.507 647.078 148.064 646.366 148.04C645.653 148.017 645.096 147.418 645.121 146.707C645.145 145.996 645.743 145.437 646.454 145.462C647.166 145.486 647.723 146.084 647.699 146.795Z" fill="#17282F"/>
<path d="M642.453 174.027C642.43 174.738 641.832 175.296 641.12 175.272C640.409 175.247 639.851 174.65 639.875 173.937C639.9 173.226 640.497 172.669 641.208 172.692C641.921 172.717 642.478 173.315 642.453 174.027Z" fill="#17282F"/>
<path d="M632.139 202.375C632.115 203.086 631.519 203.643 630.806 203.62C630.094 203.595 629.537 202.998 629.561 202.286C629.586 201.575 630.182 201.018 630.894 201.041C631.607 201.067 632.164 201.663 632.139 202.375Z" fill="#17282F"/>
<path d="M631.963 228.49C631.939 229.202 631.342 229.758 630.629 229.735C629.918 229.71 629.361 229.112 629.386 228.401C629.41 227.689 630.006 227.13 630.718 227.156C631.431 227.181 631.988 227.777 631.963 228.49Z" fill="#17282F"/>
<path d="M626.718 255.721C626.693 256.434 626.096 256.989 625.385 256.966C624.673 256.942 624.115 256.344 624.14 255.633C624.163 254.921 624.762 254.364 625.473 254.388C626.184 254.411 626.742 255.009 626.718 255.721Z" fill="#17282F"/>
<path d="M621.472 282.952C621.448 283.664 620.852 284.223 620.14 284.197C619.427 284.174 618.87 283.576 618.894 282.864C618.919 282.151 619.515 281.596 620.227 281.619C620.94 281.643 621.497 282.241 621.472 282.952Z" fill="#17282F"/>
<path d="M616.227 310.184C616.204 310.896 615.606 311.454 614.894 311.429C614.183 311.404 613.625 310.806 613.649 310.094C613.674 309.383 614.271 308.827 614.982 308.849C615.694 308.875 616.253 309.473 616.227 310.184Z" fill="#17282F"/>
<path d="M630.85 203.118C630.486 203.118 630.16 202.866 630.082 202.496C629.99 202.071 630.26 201.654 630.685 201.561L634.594 200.722C635.026 200.637 635.438 200.9 635.529 201.328C635.621 201.751 635.35 202.17 634.925 202.263L631.015 203.102L630.85 203.118Z" fill="#17282F"/>
<path d="M643.9 188.618C643.9 188.618 640.377 197.793 639.192 203.351C638.005 208.91 637.934 221.333 637.934 221.333" fill="#17282F"/>
<path d="M637.934 222.121H637.93C637.495 222.117 637.144 221.763 637.147 221.329C637.151 220.819 637.232 208.76 638.422 203.185C639.608 197.631 643.02 188.712 643.165 188.335C643.321 187.93 643.774 187.729 644.182 187.883C644.588 188.037 644.791 188.494 644.635 188.898C644.599 188.991 641.12 198.081 639.962 203.514C638.806 208.934 638.721 221.215 638.721 221.338C638.718 221.771 638.367 222.121 637.934 222.121Z" fill="#17282F"/>
<path d="M350.139 357.979C352.326 322.718 348.304 258.618 414.585 267.104C485.629 276.197 465.304 359.271 465.304 359.271L350.139 357.979Z" fill="#383838"/>
<path d="M424.805 307.861C424.805 323.836 411.856 336.783 395.883 336.783C379.909 336.783 366.959 323.836 366.959 307.861C366.959 291.888 379.909 278.939 395.883 278.939C411.856 278.939 424.805 291.888 424.805 307.861Z" fill="white"/>
<path d="M399.681 278.986C385.983 276.644 371.333 286.743 369.89 296.974L424.204 301.968C422.29 290.306 410.551 280.84 399.681 278.986Z" fill="#17282F"/>
<path d="M418.017 307.142C417.628 314.703 413.507 320.639 408.812 320.396C404.117 320.155 400.626 313.83 401.014 306.27C401.402 298.708 405.522 292.773 410.217 293.015C414.913 293.254 418.405 299.58 418.017 307.142Z" fill="#17282F"/>
<path d="M395.883 280.513C380.803 280.513 368.533 292.781 368.533 307.861C368.533 322.942 380.803 335.209 395.883 335.209C410.962 335.209 423.231 322.942 423.231 307.861C423.231 292.781 410.962 280.513 395.883 280.513ZM395.883 338.357C379.066 338.357 365.385 324.678 365.385 307.861C365.385 291.046 379.066 277.365 395.883 277.365C412.698 277.365 426.379 291.046 426.379 307.861C426.379 324.678 412.698 338.357 395.883 338.357Z" fill="#1AAC7A"/>
<path d="M459.728 345.009L458.152 344.974C458.952 336.722 459.189 324.892 456.317 312.987C456.214 312.566 456.474 312.141 456.896 312.038C456.956 312.024 457.016 312.018 457.074 312.018C457.43 312.018 457.758 312.256 457.845 312.619C460.754 324.66 460.53 336.624 459.728 345.009Z" fill="#57666B"/>
<path d="M452.837 301.186C452.538 301.186 452.253 301.016 452.12 300.726C450.096 296.311 447.586 292.255 444.657 288.674C444.383 288.337 444.431 287.843 444.768 287.567C444.915 287.446 445.091 287.388 445.267 287.388C445.494 287.388 445.721 287.487 445.876 287.678C448.889 291.362 451.472 295.532 453.551 300.071C453.734 300.466 453.559 300.934 453.164 301.113L452.837 301.186Z" fill="#57666B"/>
<path d="M202.629 523.37C202.432 523.37 202.239 523.369 202.043 523.364C197.698 523.242 194.273 519.624 194.392 515.28C194.51 510.935 198.089 507.575 202.475 507.629L202.626 507.63C207.173 507.63 218.112 502.107 240.997 466.031C242.228 464.093 244.241 462.789 246.512 462.458C248.786 462.135 251.084 462.809 252.816 464.315C281.055 488.935 310.98 504.263 311.279 504.414C315.154 506.382 316.7 511.12 314.734 514.993C312.766 518.868 308.03 520.419 304.157 518.45C302.968 517.848 276.812 504.474 249.385 482.018C230.204 510.852 215.97 523.37 202.629 523.37Z" fill="#383838"/>
<path d="M251.321 462.9C251.099 462.9 250.874 462.886 250.647 462.852C248.066 462.484 246.271 460.092 246.641 457.511C247.76 449.677 246.372 420.323 236.449 397.5C235.544 395.42 236.246 392.991 238.121 391.714C259.682 377.021 305.608 375.264 307.553 375.197C310.146 375.14 312.345 377.145 312.436 379.75C312.527 382.357 310.487 384.543 307.882 384.634C307.456 384.65 267.305 386.19 246.673 397.544C255.462 420.27 257.453 448.599 255.989 458.847C255.652 461.202 253.633 462.9 251.321 462.9Z" fill="#383838"/>
<path d="M259.254 456.788C256.112 449.381 241.958 450.221 233.648 456.569C229.206 459.961 223.195 470.17 222.562 473.869C221.931 477.569 224.495 480.922 228.896 480.54C234.321 480.071 241.773 472.185 241.773 472.185C236.816 477.046 243.211 480.474 252.755 473.448C258.048 469.547 262.77 465.081 259.254 456.788Z" fill="#1AAC7A"/>
<path d="M545.748 326.182C546.457 326.447 547.261 326.603 548.01 326.691C555.852 327.619 562.777 326.522 563.813 325.545C563.546 325.303 562.489 324.629 558.573 323.88C553.406 322.896 548.892 324.191 545.748 326.182ZM543.762 335.031L544.17 335.142C549.726 336.503 557.231 336.734 559.804 336.313C559.006 335.976 557.379 335.437 554.081 334.71C549.716 333.749 546.304 334.048 543.762 335.031ZM538.514 345.369C538.949 346.175 539.596 346.84 540.435 347.285C543.985 349.175 550.974 349.608 553.595 348.551C554.131 348.333 554.212 348.154 554.212 348.152C554.212 348.148 554.125 347.268 550.275 345.62C545.863 343.732 542.344 343.468 539.523 344.804C539.178 344.97 538.842 345.157 538.514 345.369ZM529.975 360.058L529.756 360.027C529.339 359.907 529.099 359.469 529.218 359.054C531.315 351.75 533.605 347.288 536.616 344.808C536.155 343.24 536.207 341.439 536.857 339.678C537.49 337.964 538.713 336.261 540.573 334.948C539.662 333.963 539.323 332.674 539.644 331.2C540.002 329.562 541.193 327.785 543.006 326.231C542.295 325.413 542.12 324.519 542.114 323.859C542.075 319.164 550.784 312.013 560.629 310.671C561.06 310.59 561.457 310.911 561.515 311.343C561.573 311.774 561.271 312.171 560.84 312.229C551.495 313.504 543.658 320.27 543.688 323.845C543.693 324.424 543.908 324.89 544.258 325.266C547.802 322.8 553.033 321.213 558.868 322.334C563.7 323.258 565.664 324.278 565.436 325.745C565.008 328.504 554.719 329.074 547.823 328.252C546.261 328.066 545.117 327.698 544.281 327.237C542.567 328.639 541.47 330.213 541.182 331.534C540.926 332.714 541.306 333.536 541.961 334.109C544.884 332.603 548.997 331.973 554.421 333.173C561.562 334.748 561.83 335.619 561.989 336.136C562.104 336.508 562.011 336.887 561.735 337.178C560.231 338.773 549.291 338.017 543.795 336.67C543.08 336.495 542.448 336.256 541.903 335.96C540.08 337.106 538.911 338.656 538.333 340.222C537.87 341.479 537.765 342.73 537.979 343.847C538.262 343.677 538.55 343.525 538.846 343.383C542.103 341.837 546.043 342.096 550.894 344.172C554.113 345.55 555.665 346.769 555.778 348.011C555.812 348.379 555.74 349.081 554.881 349.651C552.48 351.245 544.067 351.004 539.693 348.675C538.662 348.124 537.845 347.313 537.272 346.336C534.699 348.686 532.624 352.893 530.731 359.487C530.632 359.833 530.317 360.058 529.975 360.058Z" fill="#17282F"/>
<path d="M325.075 520.741C326.111 520.411 325.765 519.409 324.606 519.409H303.296C262.716 515.111 234.364 520.872 252.23 522.229C270.095 523.587 250.971 523.302 237.924 528.237C224.879 533.173 334.968 534.418 344.981 528.237C354.216 522.539 310.695 525.35 325.075 520.741Z" fill="#383838"/>
<path d="M477.66 527.023L292.24 520.875L284.545 341.091L503.505 345.988L477.66 527.023Z" fill="#1AAC7A"/>
<path d="M350.139 523.582C349.733 523.582 349.389 523.273 349.356 522.86L334.491 342.289C334.456 341.856 334.777 341.477 335.212 341.441C335.655 341.417 336.025 341.727 336.06 342.16L350.925 522.731C350.959 523.165 350.638 523.544 350.204 523.579L350.139 523.582Z" fill="#17282F"/>
<path d="M477.66 527.023L527.496 519.435L543.194 352.26L503.505 345.988L477.66 527.023Z" fill="#1AAC7A"/>
<path d="M477.66 527.023L479.607 513.386C479.821 513.38 480.032 513.377 480.237 513.377C486.227 513.377 488.315 516.092 488.429 516.25C488.3 516.073 488.248 515.963 488.248 515.963L501.797 507.952C501.502 507.452 495.895 498.312 481.85 497.667L503.505 345.988L543.194 352.26L537.822 409.463L537.785 409.856L531.193 480.055L531.157 480.449L529.582 497.223L529.546 497.616L527.496 519.435L477.66 527.023Z" fill="#0A9264"/>
<path d="M308.085 486.222L303.514 379.406C303.037 368.259 312.083 359.024 323.24 359.274L461.845 362.373C473.418 362.633 482.165 372.949 480.53 384.409L465.163 492.058C463.77 501.814 455.254 508.955 445.406 508.629L326.74 504.696C316.648 504.361 308.518 496.308 308.085 486.222Z" fill="#383838"/>
<path d="M323.059 392.053L344.503 392.734L344.327 398.264L330.902 397.837L330.771 401.952L343.225 402.348L343.056 407.629L330.603 407.234L330.441 412.338L344.254 412.779L344.067 418.642L322.236 417.948L323.059 392.053Z" fill="white"/>
<path d="M357.012 403.636L360.385 403.743C360.75 403.754 361.46 403.66 362.516 403.458C363.049 403.368 363.49 403.112 363.84 402.686C364.189 402.261 364.373 401.766 364.39 401.201C364.417 400.365 364.173 399.715 363.657 399.251C363.142 398.786 362.154 398.529 360.693 398.484L357.178 398.371L357.012 403.636ZM348.484 418.782L349.308 392.887L362.643 393.312C365.118 393.391 367 393.663 368.294 394.129C369.588 394.593 370.616 395.413 371.381 396.587C372.146 397.761 372.501 399.172 372.448 400.82C372.402 402.257 372.056 403.486 371.411 404.509C370.765 405.532 369.896 406.351 368.802 406.963C368.107 407.354 367.159 407.667 365.96 407.9C366.903 408.249 367.587 408.589 368.012 408.92C368.3 409.142 368.713 409.609 369.249 410.322C369.786 411.035 370.143 411.583 370.318 411.967L373.956 419.595L364.913 419.305L360.888 411.255C360.378 410.215 359.917 409.533 359.503 409.214C358.938 408.795 358.291 408.575 357.561 408.551L356.856 408.528L356.52 419.039L348.484 418.782Z" fill="white"/>
<path d="M385.15 404.53L388.523 404.638C388.888 404.651 389.598 404.555 390.654 404.352C391.188 404.264 391.63 404.006 391.978 403.582C392.327 403.156 392.512 402.661 392.529 402.096C392.556 401.259 392.312 400.609 391.795 400.145C391.281 399.68 390.292 399.425 388.832 399.38L385.317 399.268L385.15 404.53ZM376.622 419.678L377.447 393.783L390.783 394.208C393.256 394.286 395.139 394.559 396.432 395.023C397.726 395.489 398.754 396.309 399.519 397.481C400.284 398.655 400.64 400.068 400.586 401.715C400.541 403.152 400.196 404.382 399.551 405.405C398.904 406.428 398.035 407.245 396.942 407.86C396.245 408.251 395.298 408.56 394.098 408.794C395.041 409.143 395.726 409.483 396.152 409.815C396.439 410.036 396.851 410.503 397.388 411.216C397.925 411.931 398.282 412.478 398.458 412.861L402.094 420.489L393.051 420.201L389.027 412.151C388.518 411.111 388.056 410.429 387.642 410.109C387.078 409.691 386.43 409.469 385.701 409.445L384.994 409.423L384.659 419.935L376.622 419.678Z" fill="white"/>
<path d="M411.442 407.878C411.359 410.494 411.785 412.387 412.72 413.56C413.655 414.732 414.958 415.346 416.632 415.4C418.35 415.455 419.699 414.937 420.677 413.848C421.654 412.76 422.189 410.766 422.281 407.87C422.359 405.433 421.923 403.636 420.977 402.48C420.028 401.323 418.714 400.719 417.03 400.664C415.415 400.614 414.102 401.144 413.088 402.255C412.075 403.366 411.525 405.241 411.442 407.878ZM403.441 407.59C403.577 403.36 404.858 400.107 407.288 397.828C409.719 395.547 413.035 394.473 417.239 394.607C421.55 394.744 424.834 396.007 427.092 398.394C429.349 400.783 430.412 404.062 430.28 408.23C430.184 411.257 429.595 413.722 428.515 415.626C427.434 417.531 425.915 418.991 423.955 420.008C421.996 421.025 419.58 421.487 416.705 421.395C413.786 421.303 411.384 420.761 409.5 419.769C407.614 418.777 406.111 417.257 404.985 415.206C403.86 413.153 403.345 410.615 403.441 407.59Z" fill="white"/>
<path d="M442.806 406.365L446.179 406.474C446.544 406.485 447.254 406.389 448.31 406.187C448.843 406.099 449.284 405.841 449.634 405.416C449.983 404.99 450.167 404.495 450.184 403.931C450.211 403.094 449.967 402.444 449.451 401.98C448.935 401.516 447.948 401.259 446.487 401.213L442.972 401.102L442.806 406.365ZM434.278 421.513L435.101 395.616L448.439 396.041C450.912 396.122 452.794 396.392 454.088 396.858C455.382 397.322 456.411 398.144 457.175 399.316C457.94 400.491 458.295 401.903 458.242 403.549C458.196 404.986 457.851 406.217 457.205 407.239C456.559 408.263 455.689 409.08 454.596 409.694C453.901 410.084 452.953 410.396 451.754 410.629C452.697 410.977 453.381 411.318 453.806 411.649C454.094 411.873 454.507 412.338 455.043 413.053C455.58 413.766 455.937 414.312 456.114 414.696L459.75 422.324L450.707 422.036L446.682 413.985C446.172 412.944 445.711 412.264 445.297 411.944C444.734 411.526 444.085 411.304 443.355 411.281L442.65 411.259L442.314 421.77L434.278 421.513Z" fill="white"/>
<path d="M447.014 465.511C446.454 465.511 445.897 465.285 445.488 464.839L432.014 450.093L417.475 463.375C416.633 464.147 415.327 464.085 414.555 463.245L401.082 448.498L386.543 461.781C385.701 462.552 384.393 462.492 383.625 461.65L370.15 446.903L355.611 460.19C355.208 460.56 354.663 460.753 354.125 460.729C353.577 460.704 353.062 460.463 352.693 460.059L339.217 445.312L324.678 458.595C323.838 459.365 322.53 459.304 321.76 458.464C320.991 457.623 321.05 456.314 321.892 455.546L337.955 440.867C338.797 440.094 340.105 440.156 340.875 440.998L354.348 455.746L368.887 442.46C369.292 442.09 369.833 441.9 370.375 441.92C370.921 441.945 371.437 442.186 371.807 442.591L385.281 457.337L399.82 444.054C400.66 443.283 401.968 443.343 402.739 444.185L416.213 458.932L430.752 445.647C431.594 444.874 432.9 444.934 433.67 445.778L448.54 462.05C449.309 462.894 449.25 464.201 448.407 464.97C448.011 465.332 447.512 465.511 447.014 465.511Z" fill="white"/>
<path d="M197.931 530.845L188.08 526.146L179.293 483.386L184.062 478.133L197.931 530.845Z" fill="#1AAC7A"/>
<path d="M197.931 530.845L211.003 523.209L199.796 487.977L184.062 478.133L197.931 530.845Z" fill="#1AAC7A"/>
<path d="M197.931 530.845L184.062 478.133L199.796 487.977L211.003 523.209L197.931 530.845Z" fill="#0A9264"/>
<path d="M412.308 538.619C411.936 538.619 411.573 538.612 411.22 538.603C406.876 538.483 403.449 534.865 403.569 530.519C403.689 526.178 407.277 522.762 411.651 522.869C423.776 523.266 449.437 515.818 464.096 501.589C465.002 500.709 466.106 500.06 467.316 499.697C492.166 492.24 501.417 507.306 501.798 507.952L488.249 515.963C488.249 515.963 488.301 516.073 488.43 516.25C488.28 516.043 484.761 511.468 473.554 514.299C455.158 531.09 426.921 538.619 412.308 538.619Z" fill="#17282F"/>
<path d="M411.436 549.079L382.769 547.274L380.507 494.425L419.033 495.864L411.436 549.079Z" fill="#1AAC7A"/>
<path d="M411.436 549.079L418.136 542.412L422.29 509.459L419.033 495.864L411.436 549.079Z" fill="#1AAC7A"/>
<path d="M411.436 549.079L419.033 495.864L422.29 509.459L418.136 542.412L411.436 549.079Z" fill="#0A9264"/>
<path d="M577.516 529.068C576.522 529.068 575.517 528.753 574.663 528.105C558.303 515.67 536.186 493.593 527.699 472.295C527.577 471.985 527.485 471.661 527.43 471.331C523.292 446.724 519.338 394.927 519.171 392.733C518.975 390.134 520.923 387.866 523.522 387.669C526.116 387.477 528.392 389.419 528.589 392.02C528.63 392.548 532.621 444.854 536.66 469.26C545.123 489.97 568.072 511.233 580.378 520.586C582.454 522.164 582.859 525.126 581.28 527.203C580.351 528.424 578.942 529.068 577.516 529.068Z" fill="#383838"/>
<path d="M599.345 531.452C595.693 531.452 591.555 529.797 587.044 526.534C584.931 525.004 584.458 522.053 585.988 519.94C587.518 517.828 590.469 517.354 592.581 518.883C596.48 521.705 598.61 522.008 599.345 522.008C601.953 522.008 604.067 524.122 604.067 526.73C604.067 529.339 601.953 531.452 599.345 531.452Z" fill="#383838"/>
<path d="M588.368 526.4C593.42 511.39 614.134 514.357 621.267 516.586C628.401 518.815 634.827 521.618 638.69 524.146C642.554 526.671 642.617 530.891 637.465 533.3C631.113 536.272 615.174 533.634 615.174 533.634C623.425 537.246 615.159 543.036 600.686 537.349C595.975 535.498 586.584 531.898 588.368 526.4Z" fill="#1AAC7A"/>
<path d="M538.091 399.211C536.215 411.963 525.656 421.367 517.065 420.104C508.474 418.841 508.119 407.453 509.992 394.7C511.868 381.948 515.265 372.661 523.854 373.925C532.445 375.187 539.965 386.459 538.091 399.211Z" fill="#383838"/>
<path d="M331.632 347.014C331.632 347.727 331.056 348.305 330.343 348.305C329.63 348.305 329.054 347.727 329.054 347.014C329.054 346.303 329.63 345.725 330.343 345.725C331.056 345.725 331.632 346.303 331.632 347.014Z" fill="#17282F"/>
<path d="M343.459 356.306C343.459 357.019 342.883 357.596 342.17 357.596C341.457 357.596 340.88 357.019 340.88 356.306C340.88 355.594 341.457 355.015 342.17 355.015C342.883 355.015 343.459 355.594 343.459 356.306Z" fill="#17282F"/>
<path d="M344.903 508.834C344.903 509.547 344.325 510.123 343.614 510.123C342.901 510.123 342.323 509.547 342.323 508.834C342.323 508.123 342.901 507.545 343.614 507.545C344.325 507.545 344.903 508.123 344.903 508.834Z" fill="#17282F"/>
<path d="M356.73 518.125C356.73 518.838 356.152 519.416 355.439 519.416C354.728 519.416 354.15 518.838 354.15 518.125C354.15 517.413 354.728 516.835 355.439 516.835C356.152 516.835 356.73 517.413 356.73 518.125Z" fill="#17282F"/>
<path d="M147.181 517.835H147.178C147.175 517.837 146.587 518.135 146.359 520.763C146.129 523.412 146.61 525.207 147.829 526.247C148.106 526.485 148.422 526.683 148.773 526.844C149.217 526.352 149.521 525.8 149.628 525.226C150.05 522.945 148.963 519.605 147.745 518.253C147.428 517.902 147.225 517.835 147.181 517.835ZM137.279 519.202C137.27 519.794 137.323 520.789 137.558 522.443C137.878 524.689 138.706 526.416 139.948 527.514C139.58 524.354 138.178 520.694 137.279 519.202ZM128.51 520.575C128.419 520.815 128.254 521.612 128.643 523.791C129.16 526.688 131.035 528.611 133.112 529.628C133.102 529.293 133.04 528.921 132.929 528.513C131.693 524.015 129.343 520.915 128.51 520.575ZM129.871 533.603C126.125 533.603 121.06 531.333 118.329 527.386C118.081 527.031 118.17 526.54 118.527 526.293C118.885 526.044 119.374 526.134 119.622 526.492C122.56 530.733 129.034 532.995 131.908 531.655C132.21 531.514 132.455 531.336 132.643 531.122C130.075 529.935 127.726 527.612 127.094 524.069C126.737 522.073 126.454 519.377 128.1 519.005C130.357 518.498 133.31 523.957 134.447 528.095C134.657 528.861 134.723 529.57 134.651 530.209C135.647 530.481 136.625 530.552 137.464 530.431C138.145 530.332 139.114 530.051 139.627 529.258C137.715 527.964 136.428 525.687 136 522.663C135.389 518.36 135.847 517.609 136.324 517.242C136.634 517.003 137.028 516.959 137.407 517.12C139.09 517.835 141.13 523.941 141.519 527.396C141.562 527.777 141.562 528.142 141.524 528.487C142.167 528.743 142.877 528.884 143.646 528.9C145.01 528.978 146.36 528.544 147.439 527.909C147.216 527.77 147.004 527.615 146.806 527.445C145.173 526.05 144.515 523.82 144.791 520.628C145.005 518.161 145.567 516.812 146.558 516.389C146.906 516.235 147.615 516.09 148.46 516.766C150.158 518.124 151.747 522.428 151.175 525.512C151.057 526.149 150.782 526.762 150.385 527.324C153.272 527.821 157.337 527.011 160.842 526.145C161.263 526.042 161.691 526.298 161.795 526.719C161.899 527.143 161.642 527.568 161.22 527.673C156.955 528.728 152.363 529.586 149.12 528.644C147.677 529.791 145.648 530.488 143.613 530.474C142.686 530.455 141.822 530.289 141.034 529.988C140.413 531.045 139.259 531.759 137.691 531.989C136.645 532.145 135.414 532.045 134.168 531.689C133.814 532.279 133.279 532.751 132.573 533.082C131.821 533.432 130.895 533.601 129.871 533.603Z" fill="#383838"/>
<path d="M360.246 545.5L364.512 538.103L360.246 530.706H355.68L358.26 538.104L355.68 545.5H360.246Z" fill="#17282F"/>
<path d="M355.981 541.959C353.856 541.959 352.124 540.228 352.124 538.103C352.124 535.978 353.856 534.262 355.981 534.262L348.729 532.811L346.804 538.668L350.04 543.609L355.981 541.959Z" fill="#17282F"/>
<path d="M352.335 541.959C350.21 541.959 348.479 540.228 348.479 538.103C348.479 535.978 350.21 534.262 352.335 534.262C354.46 534.262 356.176 535.978 356.176 538.103C356.176 540.228 354.46 541.959 352.335 541.959ZM356.601 530.706H348.054L343.788 538.103L348.054 545.5H356.601L360.866 538.103L356.601 530.706Z" fill="#1AAC7A"/>
<path d="M657.757 530.212L654.59 524.719L657.757 519.226H661.149L659.234 524.719L661.149 530.212H657.757Z" fill="#1AAC7A"/>
<path d="M660.926 527.582C662.505 527.582 663.79 526.298 663.79 524.719C663.79 523.142 662.505 521.865 660.926 521.865L666.312 520.789L667.741 525.137L665.338 528.807L660.926 527.582Z" fill="#1AAC7A"/>
<path d="M663.635 527.582C665.212 527.582 666.498 526.298 666.498 524.719C666.498 523.142 665.212 521.865 663.635 521.865C662.056 521.865 660.781 523.142 660.781 524.719C660.781 526.298 662.056 527.582 663.635 527.582ZM660.466 519.226H666.814L669.981 524.719L666.814 530.212H660.466L657.298 524.719L660.466 519.226Z" fill="#383838"/>
<path d="M539.8 537.506H546.912C548.763 537.506 550.278 535.99 550.278 534.138C550.278 532.287 548.763 530.772 546.912 530.772H539.8C537.948 530.772 536.433 532.287 536.433 534.138C536.433 535.99 537.948 537.506 539.8 537.506Z" fill="#383838"/>
<path d="M528.439 531.155C530.194 527.43 534.452 525.747 537.948 527.394C541.443 529.044 542.854 533.398 541.099 537.124C539.342 540.848 535.084 542.53 531.589 540.88C528.093 539.233 526.682 534.879 528.439 531.155Z" fill="#1AAC7A"/>
<path d="M530.403 540.869L532.354 541.79L539.134 527.407L537.184 526.488L530.403 540.869Z" fill="#383838"/>
</svg>
