<svg width="786" height="530" viewBox="0 0 786 530" fill="none" xmlns="http://www.w3.org/2000/svg">
<g clip-path="url(#clip0)">
<g opacity="0.31">
<path opacity="0.31" d="M129.105 529.924C84.4519 527.99 40.6112 508.998 19.184 476.41C-0.638138 446.278 -4.31248 399.61 4.54462 366.074C11.99 337.914 33.2625 313.565 57.5132 292.929C106.517 251.251 169.677 221.022 211.081 174.006C234.094 147.877 249.469 117.59 271.553 90.9008C314.582 39.0883 385.864 2.32251 461.633 0.00167811C537.402 -2.31915 614.969 33.2282 646.491 90.4947C673.565 139.754 666.507 199.438 699.866 245.971C715.201 267.361 738.04 284.342 754.884 304.939C784.84 341.589 793.89 389.475 778.903 431.985C763.915 474.495 725.199 510.739 676.079 528.164" fill="#C5E1F9"/>
</g>
<g opacity="0.31">
<path opacity="0.31" d="M619.978 525.921C651.113 524.567 681.688 512.074 696.637 490.606C710.464 470.743 713.036 439.973 706.847 417.887C701.665 399.339 686.813 383.268 669.911 369.671C635.739 342.208 591.763 322.269 562.755 291.285C546.704 274.073 527.501 234.29 512.049 216.729C482.036 182.574 446.298 160.159 393.813 154.55C326.031 147.336 281.03 198.491 259.08 236.243C240.187 268.696 245.118 308.053 221.854 338.746C211.159 352.845 195.224 364.043 183.486 377.62C162.6 401.776 156.276 433.339 166.738 461.344C177.201 489.349 204.236 513.253 238.446 524.741" fill="#C5E1F9"/>
</g>
<path d="M189.828 486.467C187.508 479.872 180.662 477.338 174.531 476.41C161.13 497.375 144.382 501.552 135.216 502.094L137.885 517.798H168.092L169.716 505.266C177.451 505.13 184.143 502.5 187.778 498.033C189.118 496.462 190.014 494.561 190.374 492.528C190.735 490.495 190.546 488.403 189.828 486.467ZM181.977 493.333C180.178 495.557 176.175 497.491 170.683 497.781L172.501 483.663C176.987 484.204 181.629 485.597 182.789 488.923C183.075 489.661 183.151 490.465 183.007 491.243C182.864 492.022 182.507 492.745 181.977 493.333Z" fill="#00AED6"/>
<path d="M174.551 476.409L173.468 476.235L175.285 462.078C175.313 461.88 175.298 461.678 175.241 461.486C175.183 461.294 175.085 461.116 174.953 460.966C174.821 460.815 174.658 460.695 174.475 460.613C174.292 460.532 174.093 460.49 173.893 460.492H130.014C129.787 460.492 129.562 460.541 129.356 460.637C129.15 460.732 128.967 460.871 128.82 461.043C128.673 461.216 128.565 461.419 128.504 461.638C128.443 461.857 128.43 462.086 128.467 462.31L135.216 502.093C144.402 501.552 161.149 497.374 174.551 476.409Z" fill="#00B7D8"/>
<path d="M154.4 454.613C150.029 452.292 145.872 443.937 144.15 440.069C143.207 438.168 142.691 436.084 142.637 433.963C142.584 431.841 142.995 429.734 143.841 427.788C145.446 424.597 148.54 422.392 150.455 419.394C151.44 417.831 152.097 416.083 152.387 414.258C152.676 412.433 152.591 410.568 152.137 408.776C150.822 403.748 146.703 399.744 145.755 394.639C144.653 388.643 148.134 382.88 149.623 376.981C151.024 371.508 150.748 365.74 148.83 360.426C153.085 362.959 155.638 367.524 157.978 371.875C160.124 375.859 162.329 380.114 162.019 384.62C161.623 387.441 160.822 390.19 159.641 392.782C157.842 397.598 156.604 402.878 157.9 407.867C159.834 415.391 167.26 421.29 166.97 429.142C166.731 431.444 166.005 433.668 164.842 435.669C163.678 437.669 162.103 439.4 160.221 440.746C157.692 442.368 155.434 444.378 153.53 446.703C151.886 449.217 151.828 453.143 154.361 454.729" fill="white"/>
<path d="M422.607 226.84C419.136 234.494 416.628 242.55 415.142 250.822C413.846 258.867 413.401 267.087 411.39 274.978C409.462 281.924 406.818 288.652 403.5 295.053C403.156 295.643 402.958 296.305 402.92 296.987C403.023 297.62 403.27 298.222 403.642 298.745C404.015 299.268 404.502 299.699 405.067 300.004C413.023 305.692 422.287 309.28 431.998 310.436C441.71 311.592 451.557 310.279 460.626 306.618" fill="#4B3C51"/>
<path d="M418.429 281.131C426.995 281.131 433.939 272.498 433.939 261.849C433.939 251.199 426.995 242.566 418.429 242.566C409.864 242.566 402.92 251.199 402.92 261.849C402.92 272.498 409.864 281.131 418.429 281.131Z" fill="#00B7D8"/>
<path d="M425.722 283.857C434.287 283.857 441.231 275.225 441.231 264.575C441.231 253.926 434.287 245.293 425.722 245.293C417.156 245.293 410.212 253.926 410.212 264.575C410.212 275.225 417.156 283.857 425.722 283.857Z" fill="#04A2BC"/>
<path d="M460.609 306.622L428.255 238.719C424.677 250.652 421.1 262.585 417.716 274.556C416.472 278.515 415.598 282.581 415.105 286.702C414.781 290.322 415.029 293.97 415.84 297.513C416.508 300.999 418.082 304.247 420.404 306.932C420.855 307.379 421.333 307.798 421.835 308.189C434.556 312.133 448.247 311.58 460.609 306.622Z" fill="#3E3244"/>
<path d="M453.82 304.279C455.29 312.518 456.489 321.878 451.384 328.493C450.039 329.753 449.109 331.392 448.715 333.193C448.618 335.591 450.9 337.37 453.066 338.434C457.247 340.494 461.805 341.68 466.46 341.92C471.115 342.159 475.77 341.447 480.14 339.826C480.879 339.603 481.546 339.19 482.074 338.627C483.176 337.273 482.461 335.281 481.803 333.676C478.748 326.266 477.216 318.317 477.299 310.302C477.382 302.288 479.078 294.372 482.287 287.027" fill="#E8A17E"/>
<path d="M453.085 301.883C454.688 307.497 455.277 313.352 454.825 319.173C454.8 319.271 454.795 319.374 454.811 319.474C454.828 319.574 454.866 319.669 454.922 319.754C455.116 319.947 455.444 319.87 455.696 319.754C457.625 319.149 459.47 318.305 461.188 317.239C464.344 315.03 466.934 312.108 468.749 308.71C470.781 304.653 471.682 300.124 471.36 295.598" fill="#D88D6C"/>
<path d="M434.017 227.945C428.216 234.502 426.765 243.843 425.992 252.623C425.104 260.334 425.104 268.121 425.992 275.832C426.892 283.596 429.924 290.959 434.752 297.106C436.851 299.643 439.322 301.847 442.081 303.643C443.949 304.917 446.033 305.841 448.231 306.37C452.428 307.26 456.74 306.061 460.821 304.745C470.103 301.728 479.656 297.667 485.4 289.757C492.865 279.468 497.796 252.372 499.749 239.801" fill="#E8A17E"/>
<path d="M422.317 235.95C431.063 243.49 441.714 248.481 453.105 250.377C459.694 251.311 466.355 251.635 473.004 251.344C475.498 251.376 477.988 251.136 480.43 250.629C483.845 249.897 486.845 247.874 488.804 244.981C489.748 243.53 490.263 241.84 490.286 240.108C490.31 238.376 489.843 236.673 488.939 235.195" fill="#D88D6C"/>
<path d="M497.255 201.625C480.701 193.619 456.643 195.282 444.692 202.167C432.741 209.052 427.655 215.222 421.37 229.591C421.002 230.442 418.817 235.742 419.146 236.612C419.258 237.001 419.463 237.357 419.742 237.65C420.022 237.943 420.368 238.164 420.751 238.294C435.622 243.98 448.715 245.006 464.611 245.779C469.904 246.209 475.231 245.877 480.43 244.793C487.721 269.22 483.93 286.742 471.786 309.157C479.695 312.484 510.463 314.418 525.064 303.084C528.924 300.252 532.162 296.658 534.578 292.524C540.38 281.907 537.905 268.813 534.733 257.132C532.612 248.365 529.491 239.87 525.431 231.815C518.875 219.631 509.96 207.118 497.235 201.625" fill="#4B3C51"/>
<path d="M439.278 281.789C440.477 285.522 441.869 288.964 445.079 291.072C446.781 292.026 448.693 292.543 450.644 292.577C452.594 292.611 454.523 292.16 456.257 291.266C459.777 289.622 463.122 285.464 465.597 282.466C456.805 283.38 447.932 283.146 439.2 281.77" fill="white"/>
<path d="M507.911 301.419C506.87 300.655 506.044 299.636 505.512 298.46C504.584 296.158 505.396 293.547 506.112 291.149C507.431 287.13 508.084 282.923 508.046 278.694C508.002 274.445 506.485 270.343 503.753 267.09C499.653 262.545 493.232 261.114 487.237 259.914L483.37 259.16C485.613 276.682 481.436 291.42 471.767 309.213C479.676 312.539 510.444 314.473 525.045 303.14C525.586 302.734 526.089 302.27 526.611 301.844C525.723 302.373 524.799 302.838 523.846 303.237C521.253 304.311 518.431 304.707 515.643 304.389C512.855 304.071 510.194 303.049 507.911 301.419Z" fill="#3E3244"/>
<path d="M453.993 259.762C452.879 259.119 451.615 258.78 450.329 258.78C449.042 258.78 447.778 259.119 446.664 259.762L445.871 258.582C447.203 257.802 448.718 257.391 450.261 257.391C451.804 257.391 453.319 257.802 454.651 258.582L453.993 259.762Z" fill="#161119"/>
<path d="M483.582 259.353L479.889 259.295V257.883H483.408L483.582 259.353Z" fill="#161119"/>
<path d="M449.218 262.312L444.751 276.025L451.79 276.586" fill="#D88D6C"/>
<path d="M463.199 251.426C463.486 251.254 463.783 251.099 464.088 250.962L464.63 250.71H464.437C464.901 250.517 465.371 250.343 465.848 250.188C466.439 250.002 467.039 249.847 467.647 249.724L468.826 249.531H468.594C469.728 249.376 470.875 249.337 472.017 249.415L473.062 249.531H472.83C473.982 249.685 475.116 249.957 476.214 250.343L477.219 250.73H477.026C478.254 251.256 479.427 251.904 480.526 252.664C480.673 252.746 480.84 252.783 481.008 252.771C481.175 252.758 481.335 252.696 481.467 252.593C481.6 252.489 481.698 252.349 481.751 252.19C481.804 252.03 481.808 251.859 481.764 251.697C481.697 251.49 481.56 251.312 481.377 251.194C479.644 249.996 477.732 249.082 475.711 248.486C474.059 248.007 472.345 247.772 470.625 247.79C469.216 247.808 467.814 247.99 466.448 248.332C465.44 248.588 464.457 248.931 463.508 249.357C463.116 249.525 462.734 249.718 462.367 249.937C462.181 250.051 462.043 250.23 461.981 250.44C461.895 250.65 461.895 250.886 461.981 251.097C462.092 251.286 462.272 251.425 462.483 251.484C462.694 251.57 462.93 251.57 463.141 251.484L463.199 251.426Z" fill="#3E3244"/>
<path d="M440.38 251.423C440.128 251.202 439.863 250.995 439.587 250.804L439.084 250.456L439.258 250.572C438.846 250.301 438.414 250.044 437.963 249.799C437.416 249.505 436.855 249.24 436.28 249.006L435.158 248.6H435.371C434.284 248.242 433.163 247.996 432.026 247.865H430.962H431.252C430.088 247.81 428.922 247.875 427.771 248.058L426.707 248.251H426.92C425.605 248.542 427.346 249.431 424.986 248.793C425.37 248.129 425.898 247.558 426.53 247.123C427.162 246.688 427.884 246.4 428.641 246.279C430.353 246.111 432.079 246.196 433.766 246.53C435.153 246.804 436.503 247.239 437.789 247.826C438.734 248.262 439.64 248.78 440.496 249.373C440.854 249.608 441.197 249.866 441.521 250.147C441.683 250.292 441.786 250.492 441.811 250.708C441.829 250.931 441.759 251.153 441.618 251.327C441.475 251.492 441.274 251.595 441.057 251.617C440.833 251.634 440.612 251.565 440.438 251.423H440.38Z" fill="#3E3244"/>
<path d="M463.741 260.824C464.389 260.02 465.2 259.361 466.12 258.89C467.27 258.375 468.55 258.222 469.789 258.45C471.029 258.677 472.17 259.276 473.062 260.167C473.546 260.553 474.222 259.877 473.739 259.49C472.752 258.52 471.512 257.849 470.16 257.555C468.808 257.26 467.401 257.354 466.1 257.826C464.815 258.384 463.706 259.279 462.89 260.418C462.523 260.921 463.373 261.404 463.722 260.902L463.741 260.824Z" fill="#3E3244"/>
<path d="M428.602 259.566C429.251 258.762 430.061 258.103 430.981 257.632C432.132 257.117 433.411 256.964 434.651 257.192C435.89 257.42 437.032 258.018 437.924 258.909C438.407 259.296 439.084 258.619 438.601 258.232C437.614 257.262 436.373 256.591 435.021 256.297C433.67 256.002 432.262 256.097 430.962 256.569C429.684 257.129 428.581 258.024 427.771 259.16C427.403 259.663 428.254 260.147 428.602 259.644V259.566Z" fill="#3E3244"/>
<path opacity="0.45" d="M474.435 279.412C477.778 279.412 480.488 276.701 480.488 273.358C480.488 270.015 477.778 267.305 474.435 267.305C471.092 267.305 468.382 270.015 468.382 273.358C468.382 276.701 471.092 279.412 474.435 279.412Z" fill="#F27B53"/>
<path opacity="0.45" d="M430.826 276.102C433.646 276.102 435.932 273.816 435.932 270.996C435.932 268.177 433.646 265.891 430.826 265.891C428.006 265.891 425.721 268.177 425.721 270.996C425.721 273.816 428.006 276.102 430.826 276.102Z" fill="#F27B53"/>
<path d="M433.378 273.029C430.732 273.029 428.144 272.244 425.944 270.773C423.743 269.303 422.028 267.212 421.015 264.767C420.002 262.321 419.737 259.63 420.253 257.034C420.77 254.438 422.044 252.053 423.916 250.182C425.787 248.31 428.172 247.035 430.768 246.519C433.364 246.002 436.054 246.268 438.5 247.28C440.945 248.293 443.035 250.009 444.505 252.21C445.976 254.411 446.761 256.998 446.761 259.645C446.756 263.193 445.344 266.594 442.836 269.103C440.327 271.612 436.926 273.024 433.378 273.029ZM433.378 247.79C431.034 247.79 428.742 248.485 426.792 249.788C424.843 251.09 423.323 252.942 422.426 255.108C421.529 257.275 421.294 259.658 421.752 261.958C422.209 264.258 423.338 266.37 424.996 268.028C426.654 269.686 428.766 270.815 431.066 271.273C433.365 271.73 435.749 271.496 437.915 270.598C440.081 269.701 441.933 268.181 443.235 266.232C444.538 264.282 445.233 261.99 445.233 259.645C445.233 256.501 443.984 253.485 441.761 251.262C439.538 249.039 436.522 247.79 433.378 247.79Z" fill="#161119"/>
<path d="M467.067 273.029C464.42 273.029 461.833 272.244 459.632 270.773C457.431 269.303 455.716 267.212 454.703 264.767C453.69 262.321 453.425 259.63 453.942 257.034C454.458 254.438 455.733 252.053 457.604 250.182C459.476 248.31 461.86 247.035 464.456 246.519C467.052 246.002 469.743 246.268 472.188 247.28C474.633 248.293 476.723 250.009 478.194 252.21C479.664 254.411 480.449 256.998 480.449 259.645C480.444 263.193 479.033 266.594 476.524 269.103C474.015 271.612 470.615 273.024 467.067 273.029ZM467.067 247.79C464.722 247.79 462.43 248.485 460.481 249.788C458.531 251.09 457.012 252.942 456.115 255.108C455.217 257.275 454.983 259.658 455.44 261.958C455.898 264.258 457.027 266.37 458.684 268.028C460.342 269.686 462.455 270.815 464.754 271.273C467.054 271.73 469.437 271.496 471.603 270.598C473.77 269.701 475.621 268.181 476.924 266.232C478.226 264.282 478.921 261.99 478.921 259.645C478.921 256.501 477.673 253.485 475.449 251.262C473.226 249.039 470.211 247.79 467.067 247.79Z" fill="#161119"/>
<path d="M453.584 302.357C456.146 302.11 458.067 300.289 457.874 298.29C457.681 296.292 455.448 294.872 452.886 295.119C450.324 295.366 448.403 297.187 448.596 299.186C448.789 301.184 451.022 302.604 453.584 302.357Z" fill="#161119"/>
<path d="M461.672 299.429C459.576 299.63 457.47 299.688 455.367 299.603V297.669C479.637 298.636 498.318 279.025 498.492 278.832L499.962 280.205C499.865 280.321 483.718 297.302 461.672 299.429Z" fill="#161119"/>
<path d="M419.649 243.881C421.583 230.343 428.718 215.296 440.399 207.599C450.861 200.714 464.862 200.269 476.388 204.698C486.328 208.566 492.903 216.998 496.133 226.9C498.898 235.333 499.266 243.997 500.001 252.758C500.213 255.64 504.739 255.679 504.526 252.758C503.907 244.423 503.578 236.106 501.296 228.003C498.318 217.443 492.246 207.754 482.383 202.454C476.335 199.304 469.661 197.543 462.846 197.299C456.032 197.055 449.248 198.334 442.99 201.043C433.128 205.568 425.934 214.368 421.35 223.999C418.442 229.896 416.428 236.192 415.375 242.682C414.969 245.525 419.243 246.763 419.745 243.881H419.649Z" fill="#00B7D8"/>
<path d="M499.729 286.564C508.295 286.564 515.239 277.931 515.239 267.282C515.239 256.633 508.295 248 499.729 248C491.164 248 484.22 256.633 484.22 267.282C484.22 277.931 491.164 286.564 499.729 286.564Z" fill="#00B7D8"/>
<path d="M502.167 285.599C510.305 285.599 516.903 277.399 516.903 267.284C516.903 257.169 510.305 248.969 502.167 248.969C494.028 248.969 487.431 257.169 487.431 267.284C487.431 277.399 494.028 285.599 502.167 285.599Z" fill="#04A2BC"/>
<path opacity="0.07" d="M612.842 118.148H536.841C531.757 118.148 527.636 122.27 527.636 127.354V172.204C527.636 177.289 531.757 181.41 536.841 181.41H612.842C617.926 181.41 622.047 177.289 622.047 172.204V127.354C622.047 122.27 617.926 118.148 612.842 118.148Z" fill="#26476D"/>
<path d="M610.618 116.023H534.617C529.533 116.023 525.412 120.145 525.412 125.229V170.079C525.412 175.164 529.533 179.285 534.617 179.285H610.618C615.702 179.285 619.823 175.164 619.823 170.079V125.229C619.823 120.145 615.702 116.023 610.618 116.023Z" fill="white"/>
<path d="M579.018 127.644C580.856 128.496 582.428 129.833 583.563 131.512C584.658 133.104 585.239 134.994 585.226 136.927C585.242 138.255 584.986 139.571 584.471 140.795C583.989 141.867 583.336 142.853 582.538 143.716C581.638 144.687 580.675 145.598 579.656 146.443C578.322 147.541 577.115 148.787 576.059 150.156C575.242 151.342 574.829 152.759 574.879 154.198V154.991C574.874 155.39 574.714 155.77 574.432 156.052C574.15 156.334 573.769 156.495 573.371 156.5H571.302C570.903 156.495 570.523 156.334 570.241 156.052C569.959 155.77 569.798 155.39 569.793 154.991V153.811C569.78 152.48 570.051 151.162 570.586 149.943C571.071 148.878 571.724 147.899 572.52 147.042C573.255 146.256 574.235 145.302 575.46 144.18C576.75 143.122 577.923 141.929 578.96 140.621C579.742 139.558 580.15 138.266 580.12 136.947C580.142 136.102 579.947 135.266 579.555 134.518C579.162 133.769 578.584 133.134 577.877 132.672C576.287 131.598 574.4 131.05 572.481 131.106C570.679 131.04 568.905 131.57 567.434 132.614C566.027 133.772 565.058 135.375 564.688 137.159C564.62 137.511 564.428 137.827 564.146 138.049C563.885 138.263 563.556 138.38 563.218 138.378H560.82C560.652 138.379 560.485 138.348 560.329 138.285C560.173 138.222 560.031 138.128 559.911 138.01C559.789 137.903 559.695 137.768 559.638 137.616C559.581 137.465 559.562 137.301 559.583 137.14C559.729 135.206 560.358 133.339 561.412 131.71C562.466 130.082 563.912 128.744 565.616 127.818C567.75 126.683 570.143 126.123 572.559 126.193C574.793 126.191 576.999 126.687 579.018 127.644ZM575.15 165.686C575.012 165.828 574.847 165.941 574.664 166.017C574.481 166.094 574.285 166.132 574.087 166.131H570.896C570.497 166.126 570.116 165.965 569.835 165.684C569.553 165.402 569.392 165.021 569.387 164.622V161.354C569.392 160.955 569.553 160.575 569.835 160.293C570.116 160.011 570.497 159.85 570.896 159.845H574.087C574.485 159.85 574.866 160.011 575.148 160.293C575.429 160.575 575.59 160.955 575.595 161.354V164.545C575.59 164.752 575.541 164.956 575.451 165.143C575.361 165.33 575.232 165.495 575.073 165.628L575.15 165.686Z" fill="#FFCE45"/>
<path opacity="0.07" d="M420.654 59.0078H345.388C344.118 59.0078 342.861 59.2579 341.688 59.7439C340.515 60.2299 339.449 60.9422 338.551 61.8401C337.653 62.7381 336.941 63.8041 336.455 64.9773C335.969 66.1506 335.719 67.408 335.719 68.6779V112.774C335.719 115.338 336.737 117.798 338.551 119.611C340.364 121.425 342.824 122.444 345.388 122.444H398.763L418.991 136.794V122.289H420.654C423.219 122.289 425.678 121.27 427.491 119.457C429.305 117.643 430.323 115.184 430.323 112.619V68.6006C430.303 66.0493 429.275 63.6095 427.464 61.8127C425.653 60.0159 423.205 59.0077 420.654 59.0078Z" fill="#26476D"/>
<path d="M418.391 56.957H343.125C340.561 56.957 338.102 57.9758 336.288 59.7893C334.475 61.6028 333.456 64.0625 333.456 66.6272V110.723C333.456 113.288 334.475 115.747 336.288 117.561C338.102 119.374 340.561 120.393 343.125 120.393H396.442L416.67 134.743V120.219H418.333C420.898 120.219 423.357 119.2 425.171 117.387C426.984 115.573 428.003 113.114 428.003 110.549V66.5498C427.982 64.0086 426.963 61.5775 425.164 59.7823C423.365 57.9871 420.932 56.9722 418.391 56.957Z" fill="white"/>
<path d="M418.082 73.3008H343.454C343.254 73.3008 343.063 73.3802 342.921 73.5217C342.78 73.6632 342.7 73.855 342.7 74.055C342.7 74.2551 342.78 74.4469 342.921 74.5884C343.063 74.7299 343.254 74.8093 343.454 74.8093H418.082C418.282 74.8093 418.474 74.7299 418.616 74.5884C418.757 74.4469 418.836 74.2551 418.836 74.055C418.836 73.855 418.757 73.6632 418.616 73.5217C418.474 73.3802 418.282 73.3008 418.082 73.3008Z" fill="#FFCE45"/>
<path d="M418.082 83.1641H343.454C343.254 83.1641 343.063 83.2435 342.921 83.385C342.78 83.5264 342.7 83.7183 342.7 83.9183C342.7 84.1184 342.78 84.3102 342.921 84.4517C343.063 84.5931 343.254 84.6726 343.454 84.6726H418.082C418.282 84.6726 418.474 84.5931 418.616 84.4517C418.757 84.3102 418.836 84.1184 418.836 83.9183C418.836 83.7183 418.757 83.5264 418.616 83.385C418.474 83.2435 418.282 83.1641 418.082 83.1641Z" fill="#FFCE45"/>
<path d="M395.785 92.9688H343.454C343.254 92.9688 343.063 93.0482 342.921 93.1897C342.78 93.3311 342.7 93.523 342.7 93.723C342.7 93.9231 342.78 94.1149 342.921 94.2564C343.063 94.3978 343.254 94.4773 343.454 94.4773H395.785C395.985 94.4773 396.177 94.3978 396.318 94.2564C396.46 94.1149 396.539 93.9231 396.539 93.723C396.539 93.523 396.46 93.3311 396.318 93.1897C396.177 93.0482 395.985 92.9688 395.785 92.9688Z" fill="#FFCE45"/>
<path d="M395.785 102.797H343.454C343.254 102.797 343.063 102.876 342.921 103.018C342.78 103.159 342.7 103.351 342.7 103.551C342.7 103.751 342.78 103.943 342.921 104.084C343.063 104.226 343.254 104.305 343.454 104.305H395.785C395.985 104.305 396.177 104.226 396.318 104.084C396.46 103.943 396.539 103.751 396.539 103.551C396.539 103.351 396.46 103.159 396.318 103.018C396.177 102.876 395.985 102.797 395.785 102.797Z" fill="#FFCE45"/>
<path opacity="0.07" d="M380.352 137.625H331.464C329.813 137.625 328.229 138.281 327.061 139.449C325.893 140.617 325.237 142.201 325.237 143.853V172.495C325.237 174.147 325.893 175.731 327.061 176.899C328.229 178.067 329.813 178.723 331.464 178.723H366.139L379.269 188.045V178.723H380.352C382.004 178.723 383.588 178.067 384.756 176.899C385.923 175.731 386.579 174.147 386.579 172.495V143.853C386.579 142.201 385.923 140.617 384.756 139.449C383.588 138.281 382.004 137.625 380.352 137.625Z" fill="#26476D"/>
<path d="M378.883 136.293H329.995C328.343 136.293 326.759 136.949 325.591 138.117C324.424 139.285 323.768 140.869 323.768 142.521V171.163C323.768 172.815 324.424 174.399 325.591 175.567C326.759 176.735 328.343 177.391 329.995 177.391H364.669L377.8 186.713V177.391H378.883C380.534 177.391 382.118 176.735 383.286 175.567C384.454 174.399 385.11 172.815 385.11 171.163V142.521C385.11 140.869 384.454 139.285 383.286 138.117C382.118 136.949 380.534 136.293 378.883 136.293Z" fill="white"/>
<path d="M378.67 146.988H330.188C330.058 146.988 329.932 147.04 329.84 147.133C329.747 147.225 329.695 147.351 329.695 147.481C329.695 147.612 329.747 147.738 329.84 147.83C329.932 147.923 330.058 147.975 330.188 147.975H378.67C378.801 147.975 378.927 147.923 379.019 147.83C379.112 147.738 379.164 147.612 379.164 147.481C379.164 147.351 379.112 147.225 379.019 147.133C378.927 147.04 378.801 146.988 378.67 146.988Z" fill="#FFCE45"/>
<path d="M378.67 153.293H330.188C330.058 153.293 329.932 153.345 329.84 153.437C329.747 153.53 329.695 153.655 329.695 153.786C329.695 153.917 329.747 154.042 329.84 154.135C329.932 154.227 330.058 154.279 330.188 154.279H378.67C378.801 154.279 378.927 154.227 379.019 154.135C379.112 154.042 379.164 153.917 379.164 153.786C379.164 153.655 379.112 153.53 379.019 153.437C378.927 153.345 378.801 153.293 378.67 153.293Z" fill="#FFCE45"/>
<path d="M364.186 159.676H330.188C330.058 159.676 329.932 159.728 329.84 159.82C329.747 159.913 329.695 160.038 329.695 160.169C329.695 160.3 329.747 160.425 329.84 160.518C329.932 160.61 330.058 160.662 330.188 160.662H364.186C364.317 160.662 364.442 160.61 364.534 160.518C364.627 160.425 364.679 160.3 364.679 160.169C364.679 160.038 364.627 159.913 364.534 159.82C364.442 159.728 364.317 159.676 364.186 159.676Z" fill="#FFCE45"/>
<path d="M364.186 166.078H330.188C330.058 166.078 329.932 166.13 329.84 166.223C329.747 166.315 329.695 166.44 329.695 166.571C329.695 166.702 329.747 166.828 329.84 166.92C329.932 167.013 330.058 167.064 330.188 167.064H364.186C364.317 167.064 364.442 167.013 364.534 166.92C364.627 166.828 364.679 166.702 364.679 166.571C364.679 166.44 364.627 166.315 364.534 166.223C364.442 166.13 364.317 166.078 364.186 166.078Z" fill="#FFCE45"/>
<path opacity="0.07" d="M284.278 208.352H208.277C203.194 208.352 199.072 212.473 199.072 217.558V262.408C199.072 267.492 203.194 271.613 208.277 271.613H284.278C289.362 271.613 293.484 267.492 293.484 262.408V217.558C293.484 212.473 289.362 208.352 284.278 208.352Z" fill="#26476D"/>
<path d="M281.475 205.84H205.474C200.39 205.84 196.269 209.961 196.269 215.046V259.896C196.269 264.98 200.39 269.102 205.474 269.102H281.475C286.559 269.102 290.68 264.98 290.68 259.896V215.046C290.68 209.961 286.559 205.84 281.475 205.84Z" fill="white"/>
<path d="M234.849 220.79C235.526 227.946 243.165 226.825 243.165 226.825C247.825 227.501 247.129 237.732 247.129 237.732C247.129 237.732 246.626 247.963 241.908 248.099C241.908 248.099 234.443 246.165 232.954 253.127C231.465 260.09 235.7 263.764 242.623 263.281C242.623 263.281 252.292 262.353 253.627 237.887C254.42 213.093 245.621 211.836 245.621 211.836C238.813 210.54 234.192 213.615 234.849 220.79Z" fill="#FFCE45"/>
<path d="M539.548 517.255C562.194 506.173 577.858 485.073 589.945 463.373C611.875 423.997 625.102 378.45 617.754 334.219C616.323 325.535 613.17 315.846 604.913 312.287C600.918 310.706 596.502 310.542 592.401 311.823C584.336 314.163 578.09 320.662 574.338 328.011C570.587 335.36 568.962 343.483 567.473 351.606C556.818 408.795 549.295 466.99 528.893 521.607" fill="#00B7D8"/>
<path opacity="0.11" d="M535.525 518.181C553.046 510.039 573.081 485.071 582.828 468.399C600.484 438.151 613.576 406.762 609.051 372.066C608.161 365.258 605.995 357.618 599.807 354.659C596.808 353.338 593.441 353.112 590.292 354.021C587.231 354.999 584.399 356.586 581.966 358.687C579.534 360.787 577.551 363.358 576.137 366.244C573.351 372.026 571.397 378.172 570.335 384.501C560.84 428.984 553.704 474.182 536.84 516.344" fill="#345D95"/>
<path d="M597.1 336.115C595.166 349.808 593.232 363.481 590.912 377.097C588.591 390.712 585.826 404.038 582.383 417.305C579.256 429.576 575.282 441.615 570.49 453.336C565.675 464.949 560.033 476.202 553.607 487.007C547.328 497.643 540.215 507.764 532.335 517.275C531.368 518.422 530.395 519.563 529.415 520.698C529.202 520.93 529.57 521.278 529.763 521.046C537.808 511.779 545.09 501.877 551.538 491.436C564.864 470.029 574.971 446.778 581.532 422.43C585.207 409.085 588.108 395.567 590.564 381.97C593.02 368.374 595.05 354.662 596.945 340.95L597.603 336.095C597.603 335.786 597.139 335.786 597.1 336.095V336.115Z" fill="white"/>
<path d="M548.29 514.799C565.643 518.804 583.293 521.391 601.065 522.535C630.073 524.218 665.56 523.173 688.592 505.458C696.057 499.656 702.574 490.314 699.518 481.398C697.584 475.732 692.092 471.864 686.31 470.336C680.441 469.109 674.395 468.984 668.48 469.968C625.387 474.973 584.148 490.342 548.29 514.76" fill="#00B7D8"/>
<path opacity="0.11" d="M554.826 513.406C568.308 516.332 581.995 518.214 595.766 519.034C618.257 520.233 645.834 519.401 663.722 506.366C669.523 502.15 674.59 495.226 672.231 488.689C671.299 486.618 669.884 484.8 668.104 483.39C666.323 481.98 664.23 481.018 662.001 480.586C657.436 479.69 652.749 479.605 648.154 480.334C614.904 483.995 582.953 495.308 554.807 513.387" fill="#345D95"/>
<path d="M675.75 489.543L651.577 494.978C643.339 496.808 635.088 498.607 626.824 500.374C618.559 502.14 610.225 503.848 601.819 505.499C593.529 507.123 585.213 508.651 576.872 510.082C568.53 511.513 560.292 512.803 552.157 513.95L549.16 514.357C548.811 514.357 548.811 514.975 549.16 514.917C557.385 513.834 565.584 512.603 573.758 511.223C581.932 509.844 590.228 508.342 598.647 506.717C607.001 505.105 615.336 503.416 623.652 501.65C631.968 499.884 640.27 498.085 648.56 496.254C656.695 494.449 664.824 492.625 672.946 490.781L675.905 490.123C676.253 490.123 676.098 489.504 675.731 489.582L675.75 489.543Z" fill="white"/>
<path d="M541.366 512.516C574.242 510.795 610.985 491.242 637.325 471.495C654.729 458.479 671.805 444.67 684.608 427.187C695.13 412.791 702.437 396.302 706.035 378.836C708.375 367.425 707.969 353.268 698.145 347.041C695.401 345.487 692.345 344.566 689.2 344.345C686.055 344.124 682.9 344.609 679.966 345.764C674.121 348.125 668.823 351.66 664.399 356.15C651.306 368.392 641.192 383.459 631.078 398.196C604.526 436.567 571.573 476.911 541.366 512.477" fill="#00B7D8"/>
<path opacity="0.11" d="M550.243 507.797C575.654 506.54 604.005 492.151 624.349 477.588C637.751 467.918 650.978 457.842 660.88 444.961C668.961 434.462 674.614 422.302 677.433 409.356C679.232 400.962 678.923 390.518 671.342 385.935C669.202 384.79 666.843 384.115 664.422 383.955C662.001 383.795 659.574 384.153 657.302 385.006C652.813 386.749 648.721 389.38 645.273 392.742C635.159 401.755 627.424 412.856 619.534 423.687C599.035 451.943 573.585 481.707 550.243 507.855" fill="#345D95"/>
<path d="M685.343 374.507L656.335 409.842C647.787 420.305 639.278 430.807 630.556 441.115C622.511 450.611 614.234 459.914 605.416 468.694C596.744 477.46 587.38 485.512 577.414 492.773C567.506 499.98 556.759 505.955 545.408 510.566C544.016 511.12 542.61 511.655 541.192 512.171C540.844 512.287 540.999 512.848 541.347 512.712C552.803 508.519 563.691 502.912 573.759 496.022C583.87 489.072 593.368 481.269 602.148 472.697C611.16 464.014 619.553 454.769 627.733 445.273C636.338 435.274 644.635 425.004 652.989 414.793L681.997 379.342L685.633 374.894C685.865 374.623 685.459 374.217 685.227 374.488L685.343 374.507Z" fill="white"/>
<g opacity="0.38">
<path opacity="0.38" d="M647.497 479.387C654.028 477.139 660.139 473.819 665.579 469.562C668.518 467.415 671.38 465.172 674.281 462.948C677.182 460.723 680.585 458.074 683.679 455.579C689.584 450.847 695.386 445.967 701.084 440.938C706.783 435.91 712.326 430.714 717.715 425.35C723.117 420.012 728.384 414.533 733.515 408.911L735.449 406.861C735.894 406.377 735.178 405.642 734.733 406.145C729.693 411.754 724.536 417.227 719.263 422.565C713.99 427.903 708.523 433.099 702.863 438.153C697.268 443.208 691.537 448.114 685.671 452.871C679.696 457.726 673.604 462.541 667.435 467.086C662.094 471.416 656.162 474.959 649.817 477.608C649.031 477.904 648.238 478.175 647.439 478.42C646.82 478.613 647.071 479.6 647.71 479.406L647.497 479.387Z" fill="#00B7D8"/>
<path opacity="0.38" d="M732.432 408.776C732.636 406.59 733.361 404.486 734.545 402.639C735.729 400.791 737.339 399.255 739.24 398.158C739.947 397.638 740.797 397.346 741.675 397.322C742.552 397.298 743.417 397.542 744.152 398.022C744.591 398.503 744.878 399.103 744.978 399.746C745.078 400.389 744.985 401.048 744.713 401.639C744.147 402.811 743.304 403.826 742.257 404.598C739.295 407.057 735.887 408.922 732.22 410.091" fill="#00B7D8"/>
<path opacity="0.38" d="M728.275 413.882C727.419 413.2 726.708 412.355 726.184 411.395C725.659 410.435 725.331 409.38 725.219 408.292C724.88 406.783 724.88 405.218 725.219 403.709C725.39 402.955 725.734 402.251 726.224 401.653C726.714 401.056 727.337 400.581 728.043 400.266C728.254 400.169 728.488 400.129 728.72 400.15C728.943 400.198 729.15 400.305 729.319 400.459C730.168 401.232 730.676 402.31 730.731 403.457C730.778 404.587 730.641 405.717 730.325 406.803C729.695 409.317 728.793 411.755 727.637 414.075" fill="#00B7D8"/>
<path opacity="0.38" d="M718.798 422.951C718.049 422.643 717.386 422.159 716.864 421.539C715.184 420.133 713.992 418.23 713.461 416.105C713.358 415.008 713.483 413.902 713.828 412.856C713.997 412.009 714.334 411.205 714.819 410.491C715.304 409.776 715.927 409.167 716.652 408.697C717.15 408.414 717.733 408.318 718.295 408.427C718.632 408.529 718.94 408.708 719.195 408.949C719.45 409.191 719.645 409.489 719.765 409.819C719.996 410.484 720.101 411.186 720.075 411.889C720.212 415.627 719.775 419.365 718.779 422.971" fill="#00B7D8"/>
<path opacity="0.38" d="M708.297 433.803C708.104 433.977 707.794 433.803 707.582 433.668C705.639 432.241 704.056 430.38 702.96 428.233C701.866 426.071 701.565 423.593 702.109 421.232C702.204 420.693 702.41 420.18 702.713 419.724C703.015 419.268 703.409 418.879 703.868 418.582C704.521 418.29 705.25 418.217 705.947 418.374C706.645 418.531 707.272 418.909 707.736 419.453C708.64 420.551 709.181 421.902 709.283 423.321C709.567 427.081 709.167 430.862 708.104 434.48" fill="#00B7D8"/>
<path opacity="0.38" d="M696.501 444.71C695.458 444.264 694.555 443.542 693.89 442.622C692.006 440.585 690.587 438.163 689.732 435.524C689.317 434.201 689.22 432.798 689.449 431.431C689.677 430.063 690.225 428.769 691.047 427.652C691.366 427.199 691.793 426.832 692.29 426.585C692.786 426.339 693.336 426.22 693.89 426.24C694.72 426.417 695.452 426.901 695.94 427.594C698.087 430.283 698.164 434.035 697.874 437.438C697.659 439.57 697.323 441.688 696.868 443.782" fill="#00B7D8"/>
<path opacity="0.38" d="M681.339 456.816C679.05 454.991 677.184 452.689 675.872 450.071C674.56 447.453 673.832 444.581 673.739 441.654C673.739 439.41 674.3 436.741 676.408 435.852C677.103 435.624 677.846 435.587 678.56 435.743C679.274 435.9 679.933 436.244 680.469 436.741C681.532 437.752 682.295 439.037 682.674 440.455C684.221 445.348 683.254 450.628 682.287 455.675" fill="#00B7D8"/>
<path opacity="0.38" d="M719.262 423.549C722.766 422.369 726.53 422.188 730.131 423.027C731.02 423.162 732.065 423.394 732.413 424.207C732.537 424.59 732.551 425 732.452 425.39C732.352 425.781 732.144 426.135 731.852 426.411C730.879 427.435 729.549 428.045 728.139 428.113C726.737 428.17 725.339 427.926 724.039 427.398C721.947 426.662 720.086 425.388 718.644 423.704" fill="#00B7D8"/>
<path opacity="0.38" d="M728.487 413.631C731.991 412.451 735.754 412.27 739.355 413.109C740.245 413.244 741.289 413.476 741.637 414.289C741.762 414.672 741.776 415.082 741.676 415.472C741.577 415.863 741.369 416.217 741.076 416.494C740.104 417.517 738.774 418.127 737.363 418.195C735.961 418.252 734.563 418.008 733.264 417.48C731.172 416.744 729.311 415.47 727.868 413.786" fill="#00B7D8"/>
<path opacity="0.38" d="M708.414 433.61C710.533 432.605 712.853 432.095 715.198 432.118C717.543 432.141 719.852 432.698 721.951 433.745C722.437 433.93 722.879 434.215 723.249 434.582C723.619 434.948 723.908 435.388 724.097 435.872C724.187 436.316 724.162 436.774 724.023 437.205C723.884 437.635 723.637 438.022 723.304 438.329C722.624 438.935 721.786 439.337 720.887 439.489C718.828 439.867 716.703 439.631 714.776 438.812C712.857 437.993 711.071 436.891 709.477 435.544C708.776 435.086 708.251 434.404 707.988 433.61" fill="#00B7D8"/>
<path opacity="0.38" d="M696.655 444.013C700.755 442.582 705.28 443.414 709.477 444.536C710.31 444.651 711.112 444.931 711.835 445.36C712.559 445.788 713.19 446.356 713.693 447.031C714.1 447.995 714.127 449.077 713.768 450.061C713.409 451.044 712.691 451.855 711.759 452.33C710.803 452.757 709.77 452.986 708.723 453.003C707.676 453.02 706.636 452.824 705.667 452.426C701.944 450.999 698.824 448.336 696.829 444.884" fill="#00B7D8"/>
<path opacity="0.38" d="M682.075 455.828C685.264 454.929 688.66 455.099 691.744 456.311C694.82 457.54 697.751 459.103 700.485 460.972C701.839 461.823 703.347 462.906 703.482 464.512C703.494 465.061 703.369 465.605 703.12 466.094C702.87 466.583 702.503 467.003 702.051 467.316C701.135 467.935 700.078 468.314 698.977 468.418C696.134 468.665 693.277 468.175 690.679 466.996C688.081 465.817 685.83 463.989 684.144 461.688C682.522 459.851 681.658 457.466 681.726 455.016" fill="#00B7D8"/>
<path opacity="0.38" d="M664.129 470.568C663.954 470.858 663.51 470.568 663.278 470.432C661.161 468.401 659.561 465.893 658.613 463.117C657.664 460.341 657.393 457.378 657.824 454.477C657.96 453.364 658.322 452.291 658.888 451.324C659.913 449.926 661.335 448.869 662.968 448.288C663.33 448.096 663.739 448.009 664.148 448.036C664.662 448.179 665.104 448.511 665.386 448.965C667.57 452.051 668.483 455.86 667.938 459.602C667.396 463.304 666.078 466.85 664.071 470.007" fill="#00B7D8"/>
<path opacity="0.38" d="M663.104 470.512C665.586 469.514 668.296 469.22 670.936 469.661C673.582 470.104 676.175 470.824 678.671 471.808C680.566 472.344 682.308 473.318 683.757 474.651C684.465 475.333 684.928 476.229 685.075 477.201C685.222 478.173 685.044 479.167 684.569 480.028C683.927 480.746 683.12 481.298 682.217 481.635C681.314 481.972 680.343 482.084 679.387 481.962C675.604 481.969 671.904 480.858 668.75 478.77C667.191 477.716 665.889 476.323 664.941 474.695C663.994 473.068 663.425 471.248 663.278 469.371" fill="#00B7D8"/>
</g>
<g opacity="0.38">
<path opacity="0.38" d="M615.588 425.276C619.609 419.665 622.668 413.423 624.639 406.806C625.799 403.344 626.843 399.863 627.907 396.382C629.067 392.514 630.227 388.762 631.31 384.932C633.386 377.648 635.275 370.318 636.977 362.943C638.678 355.567 640.187 348.121 641.502 340.605C642.791 333.113 643.913 325.597 644.867 318.054C644.983 317.138 645.092 316.223 645.195 315.307C645.195 314.65 644.267 314.476 644.19 315.133C643.326 322.625 642.262 330.09 640.999 337.529C639.736 344.969 638.292 352.37 636.667 359.732C635.03 367.094 633.199 374.411 631.175 381.683C629.106 389.11 626.882 396.479 624.542 403.828C622.693 410.45 619.906 416.774 616.265 422.607C615.801 423.303 615.311 423.98 614.795 424.638C614.389 425.16 615.182 425.798 615.588 425.276Z" fill="#00B7D8"/>
<path opacity="0.38" d="M643.977 318.517C642.876 316.616 642.247 314.479 642.142 312.285C642.038 310.091 642.462 307.904 643.378 305.907C644.132 304.321 645.563 302.716 647.245 302.948C647.879 303.089 648.457 303.414 648.908 303.882C649.358 304.35 649.661 304.94 649.779 305.579C650.001 306.872 649.902 308.201 649.489 309.447C648.496 313.166 646.795 316.66 644.48 319.736" fill="#00B7D8"/>
<path opacity="0.38" d="M643.591 325.171C642.486 325.121 641.403 324.848 640.406 324.37C639.409 323.891 638.519 323.216 637.789 322.386C636.636 321.36 635.725 320.092 635.121 318.672C634.825 317.961 634.7 317.19 634.753 316.421C634.807 315.653 635.039 314.907 635.43 314.243C635.552 314.04 635.725 313.874 635.933 313.76C636.154 313.7 636.388 313.7 636.61 313.76C637.747 313.899 638.783 314.483 639.491 315.384C640.183 316.277 640.726 317.276 641.096 318.343C642.009 320.761 642.657 323.271 643.03 325.828" fill="#00B7D8"/>
<path opacity="0.38" d="M641.077 337.974C640.295 338.165 639.479 338.165 638.698 337.974C636.515 337.801 634.444 336.941 632.78 335.518C632.06 334.684 631.52 333.709 631.195 332.656C630.846 331.869 630.657 331.021 630.641 330.161C630.624 329.301 630.78 328.446 631.098 327.647C631.337 327.125 631.756 326.706 632.278 326.467C632.601 326.368 632.943 326.342 633.277 326.392C633.612 326.442 633.931 326.567 634.211 326.757C634.783 327.159 635.275 327.664 635.662 328.246C637.937 331.215 639.744 334.516 641.019 338.032" fill="#00B7D8"/>
<path opacity="0.38" d="M638.775 352.902C638.775 353.154 638.388 353.212 638.118 353.192C635.704 353.154 633.333 352.551 631.195 351.432C629.05 350.307 627.367 348.467 626.437 346.23C626.205 345.736 626.076 345.2 626.059 344.654C626.043 344.108 626.138 343.565 626.341 343.058C626.706 342.461 627.25 341.996 627.897 341.728C628.543 341.46 629.257 341.405 629.937 341.569C631.299 341.935 632.514 342.712 633.418 343.793C635.825 346.697 637.686 350.012 638.911 353.579" fill="#00B7D8"/>
<path opacity="0.38" d="M635.488 368.645C634.382 368.882 633.233 368.815 632.162 368.452C629.451 367.879 626.898 366.724 624.678 365.067C623.575 364.229 622.685 363.142 622.08 361.895C621.475 360.649 621.172 359.277 621.197 357.892C621.191 357.337 621.325 356.79 621.585 356.301C621.845 355.811 622.223 355.394 622.686 355.088C623.475 354.778 624.352 354.778 625.142 355.088C628.449 356.035 630.673 359.052 632.374 362.031C633.438 363.909 634.393 365.846 635.237 367.833" fill="#00B7D8"/>
<path opacity="0.38" d="M630.131 387.29C627.204 387.128 624.348 386.332 621.76 384.956C619.172 383.58 616.914 381.657 615.143 379.322C613.789 377.523 612.765 374.99 613.983 373.114C614.422 372.52 615.012 372.055 615.693 371.769C616.374 371.483 617.119 371.386 617.851 371.489C619.273 371.709 620.61 372.311 621.718 373.23C625.818 376.324 628.1 381.198 630.208 385.859" fill="#00B7D8"/>
<path opacity="0.38" d="M641.792 338.205C643.961 335.212 646.921 332.881 650.34 331.475C650.703 331.217 651.123 331.051 651.564 330.991C652.005 330.93 652.454 330.977 652.873 331.127C653.197 331.368 653.444 331.696 653.588 332.073C653.732 332.449 653.766 332.859 653.686 333.254C653.488 334.661 652.753 335.936 651.636 336.813C650.528 337.674 649.249 338.287 647.884 338.612C645.753 339.224 643.499 339.264 641.348 338.728" fill="#00B7D8"/>
<path opacity="0.38" d="M643.552 324.784C645.721 321.79 648.681 319.459 652.1 318.053C652.463 317.796 652.883 317.629 653.324 317.569C653.765 317.508 654.214 317.555 654.633 317.705C654.956 317.946 655.204 318.274 655.348 318.651C655.492 319.028 655.526 319.437 655.445 319.832C655.248 321.239 654.513 322.515 653.396 323.391C652.288 324.252 651.009 324.865 649.644 325.19C647.513 325.802 645.259 325.843 643.107 325.306" fill="#00B7D8"/>
<path opacity="0.38" d="M638.756 352.691C639.903 350.641 641.502 348.878 643.432 347.538C645.363 346.197 647.573 345.314 649.895 344.955C650.399 344.827 650.924 344.805 651.437 344.892C651.95 344.979 652.439 345.171 652.873 345.458C653.205 345.769 653.45 346.16 653.586 346.594C653.722 347.028 653.742 347.489 653.646 347.934C653.442 348.82 652.993 349.63 652.351 350.274C650.889 351.771 649.019 352.807 646.975 353.252C644.936 353.69 642.844 353.82 640.767 353.639C639.935 353.669 639.117 353.417 638.446 352.923" fill="#00B7D8"/>
<path opacity="0.38" d="M635.198 367.988C637.712 364.449 641.87 362.515 645.95 360.987C646.696 360.6 647.51 360.365 648.346 360.295C649.183 360.226 650.025 360.323 650.824 360.581C651.717 361.132 652.368 362.001 652.645 363.014C652.921 364.027 652.802 365.106 652.313 366.035C651.782 366.939 651.073 367.726 650.228 368.348C649.384 368.969 648.422 369.413 647.401 369.651C643.528 370.647 639.431 370.278 635.798 368.607" fill="#00B7D8"/>
<path opacity="0.38" d="M630.169 386.051C632.258 383.448 635.147 381.606 638.388 380.81C641.607 380.032 644.902 379.611 648.212 379.553C648.999 379.395 649.812 379.418 650.589 379.619C651.366 379.82 652.087 380.194 652.699 380.713C653.031 381.156 653.247 381.674 653.328 382.221C653.409 382.768 653.352 383.327 653.163 383.846C652.754 384.885 652.089 385.803 651.229 386.515C649.054 388.361 646.439 389.616 643.638 390.158C640.837 390.7 637.943 390.511 635.236 389.61C632.861 389.043 630.789 387.599 629.435 385.568" fill="#00B7D8"/>
<path opacity="0.38" d="M624.058 408.448C624.058 408.777 623.614 408.874 623.285 408.835C620.384 408.402 617.629 407.28 615.251 405.564C612.872 403.848 610.939 401.588 609.612 398.972C609.076 397.985 608.746 396.899 608.646 395.781C608.673 394.048 609.218 392.364 610.212 390.945C610.395 390.579 610.676 390.271 611.024 390.056C611.522 389.862 612.074 389.862 612.571 390.056C616.139 391.308 619.088 393.884 620.809 397.25C622.499 400.595 623.461 404.26 623.633 408.004" fill="#00B7D8"/>
<path opacity="0.38" d="M623.188 409.009C624.634 406.752 626.675 404.939 629.086 403.768C631.487 402.614 634.002 401.713 636.59 401.08C638.447 400.415 640.434 400.196 642.391 400.441C643.374 400.566 644.286 401.014 644.986 401.714C645.686 402.414 646.134 403.327 646.259 404.309C646.134 405.261 645.78 406.168 645.228 406.953C644.675 407.738 643.941 408.377 643.088 408.816C640.008 411.012 636.348 412.25 632.567 412.374C630.686 412.418 628.819 412.037 627.105 411.26C625.391 410.484 623.874 409.331 622.666 407.887" fill="#00B7D8"/>
</g>
<g opacity="0.38">
<path opacity="0.38" d="M405.764 437.73C404.496 430.935 402.104 424.399 398.686 418.39C396.984 415.16 395.186 412.008 393.407 408.817C391.473 405.336 389.539 401.874 387.508 398.431C383.641 391.894 379.657 385.447 375.557 379.091C371.457 372.734 367.125 366.494 362.562 360.37C358.075 354.271 353.421 348.256 348.599 342.325L346.839 340.198C346.414 339.695 345.602 340.294 346.027 340.797C350.836 346.612 355.49 352.543 359.989 358.59C364.489 364.637 368.834 370.8 373.024 377.079C377.201 383.359 381.217 389.741 385.072 396.226C388.939 402.86 392.807 409.571 396.482 416.34C399.95 422.264 402.555 428.653 404.217 435.313C404.397 436.125 404.546 436.944 404.662 437.769C404.758 438.407 405.764 438.291 405.667 437.653L405.764 437.73Z" fill="#00B7D8"/>
<path opacity="0.38" d="M348.328 343.37C346.194 342.849 344.216 341.823 342.56 340.38C340.905 338.936 339.62 337.116 338.813 335.073C338.399 334.296 338.232 333.41 338.336 332.535C338.439 331.661 338.808 330.839 339.393 330.18C339.935 329.821 340.571 329.629 341.221 329.629C341.871 329.629 342.506 329.821 343.048 330.18C344.126 330.91 345.009 331.893 345.62 333.042C347.62 336.332 348.966 339.976 349.585 343.776" fill="#00B7D8"/>
<path opacity="0.38" d="M352.834 348.241C352.035 348.988 351.094 349.568 350.068 349.946C349.042 350.325 347.951 350.495 346.858 350.446C345.321 350.57 343.776 350.352 342.333 349.808C341.614 349.526 340.97 349.08 340.453 348.506C339.936 347.932 339.56 347.246 339.355 346.501C339.293 346.273 339.293 346.033 339.355 345.805C339.44 345.591 339.58 345.404 339.761 345.263C340.651 344.54 341.792 344.199 342.932 344.315C344.057 344.433 345.154 344.734 346.181 345.205C348.571 346.194 350.847 347.439 352.969 348.918" fill="#00B7D8"/>
<path opacity="0.38" d="M360.356 358.92C359.938 359.608 359.361 360.185 358.674 360.603C357.056 362.046 355.027 362.945 352.872 363.175C351.769 363.12 350.689 362.837 349.701 362.344C348.889 362.052 348.144 361.6 347.509 361.015C346.875 360.431 346.364 359.725 346.007 358.94C345.804 358.397 345.804 357.8 346.007 357.257C346.158 356.942 346.38 356.667 346.655 356.452C346.93 356.238 347.251 356.089 347.593 356.019C348.283 355.889 348.991 355.889 349.681 356.019C353.399 356.43 357.032 357.408 360.453 358.92" fill="#00B7D8"/>
<path opacity="0.38" d="M369.561 370.912C369.697 371.125 369.561 371.415 369.329 371.589C367.643 373.336 365.57 374.661 363.276 375.457C360.976 376.227 358.478 376.165 356.218 375.283C355.7 375.109 355.223 374.831 354.817 374.465C354.411 374.099 354.085 373.653 353.858 373.156C353.678 372.478 353.718 371.761 353.971 371.107C354.225 370.454 354.68 369.898 355.27 369.52C356.472 368.788 357.869 368.444 359.273 368.533C363.036 368.804 366.718 369.754 370.142 371.338" fill="#00B7D8"/>
<path opacity="0.38" d="M378.632 384.176C378.041 385.143 377.199 385.932 376.195 386.458C373.908 388.023 371.308 389.072 368.576 389.533C367.21 389.75 365.812 389.642 364.495 389.219C363.178 388.796 361.979 388.068 360.995 387.096C360.592 386.715 360.291 386.24 360.119 385.713C359.947 385.186 359.909 384.624 360.009 384.079C360.309 383.288 360.895 382.639 361.652 382.261C364.611 380.52 368.344 381.004 371.67 381.855C373.748 382.383 375.795 383.029 377.8 383.789" fill="#00B7D8"/>
<path opacity="0.38" d="M388.398 400.949C386.259 402.95 383.71 404.462 380.928 405.38C378.147 406.299 375.199 406.601 372.289 406.267C370.065 405.996 367.512 404.991 367.009 402.805C366.889 402.088 366.962 401.352 367.22 400.672C367.479 399.993 367.913 399.394 368.479 398.937C369.631 398.034 371.009 397.465 372.463 397.293C377.53 396.481 382.616 398.202 387.47 399.904" fill="#00B7D8"/>
<path opacity="0.38" d="M361.014 358.57C360.356 354.931 360.724 351.18 362.078 347.739C362.329 346.888 362.716 345.902 363.586 345.65C363.981 345.584 364.387 345.631 364.756 345.785C365.126 345.939 365.444 346.194 365.675 346.521C366.532 347.619 366.94 349.001 366.816 350.389C366.659 351.754 366.218 353.072 365.52 354.257C364.485 356.219 362.951 357.873 361.072 359.053" fill="#00B7D8"/>
<path opacity="0.38" d="M352.544 347.991C351.885 344.353 352.253 340.602 353.607 337.161C353.859 336.31 354.246 335.324 355.116 335.072C355.51 335.006 355.916 335.053 356.285 335.207C356.655 335.361 356.973 335.616 357.204 335.943C358.061 337.041 358.469 338.423 358.345 339.811C358.189 341.176 357.747 342.494 357.05 343.679C356.015 345.641 354.48 347.295 352.602 348.475" fill="#00B7D8"/>
<path opacity="0.38" d="M369.368 370.775C368.675 368.525 368.505 366.146 368.87 363.82C369.235 361.494 370.127 359.282 371.476 357.353C371.732 356.902 372.079 356.509 372.495 356.199C372.911 355.889 373.387 355.67 373.893 355.554C374.347 355.531 374.8 355.625 375.207 355.828C375.613 356.032 375.96 356.337 376.214 356.715C376.712 357.475 376.987 358.359 377.007 359.268C377.08 361.364 376.535 363.435 375.44 365.224C374.344 367.002 372.989 368.606 371.418 369.982C370.862 370.604 370.113 371.02 369.291 371.162" fill="#00B7D8"/>
<path opacity="0.38" d="M377.974 383.925C377.162 379.67 378.651 375.318 380.353 371.315C380.581 370.497 380.97 369.734 381.498 369.069C382.026 368.405 382.683 367.853 383.428 367.447C384.443 367.182 385.52 367.312 386.443 367.811C387.365 368.31 388.064 369.141 388.398 370.135C388.683 371.145 388.76 372.203 388.624 373.244C388.487 374.284 388.141 375.286 387.605 376.189C385.646 379.664 382.554 382.361 378.844 383.828" fill="#00B7D8"/>
<path opacity="0.38" d="M387.527 400.056C387.099 396.739 387.779 393.373 389.46 390.482C391.098 387.623 393.044 384.951 395.262 382.514C396.306 381.296 397.602 379.961 399.13 380.077C399.677 380.146 400.199 380.35 400.648 380.671C401.097 380.992 401.459 381.419 401.702 381.915C402.177 382.909 402.396 384.006 402.34 385.106C402.169 387.953 401.268 390.709 399.724 393.107C398.179 395.505 396.043 397.465 393.521 398.799C391.464 400.136 388.975 400.64 386.56 400.211" fill="#00B7D8"/>
<path opacity="0.38" d="M399.479 419.978C399.73 420.191 399.479 420.597 399.208 420.81C396.888 422.608 394.17 423.824 391.283 424.355C388.396 424.887 385.424 424.719 382.615 423.866C381.53 423.572 380.516 423.059 379.637 422.357C378.407 421.135 377.572 419.572 377.239 417.87C377.129 417.478 377.129 417.063 377.239 416.671C377.458 416.185 377.851 415.798 378.342 415.588C381.713 413.882 385.61 413.536 389.229 414.621C392.796 415.72 396.091 417.559 398.899 420.017" fill="#00B7D8"/>
<path opacity="0.38" d="M399.266 420.984C398.64 418.375 398.747 415.644 399.575 413.093C400.401 410.556 401.49 408.112 402.824 405.802C403.631 404.003 404.85 402.42 406.382 401.179C407.162 400.582 408.117 400.258 409.099 400.258C410.082 400.258 411.037 400.582 411.816 401.179C412.416 401.926 412.825 402.807 413.011 403.747C413.196 404.686 413.151 405.657 412.88 406.575C412.338 410.317 410.703 413.815 408.181 416.632C406.91 418.021 405.342 419.105 403.595 419.805C401.847 420.505 399.964 420.802 398.086 420.674" fill="#00B7D8"/>
</g>
<path d="M480.197 329.424C500.503 330.295 522.491 336.426 537.343 350.273C538.675 351.363 539.718 352.765 540.379 354.354C540.87 356.818 540.579 359.374 539.548 361.665C530.76 389.542 530.297 419.378 538.213 447.516C540.283 454.827 542.932 462.06 543.648 469.622C544.363 477.184 542.855 485.384 537.633 490.896C535.312 493.21 532.611 495.107 529.646 496.505C513.383 504.724 494.295 504.415 476.098 503.661C464.881 503.197 453.549 502.616 442.739 499.541C431.928 496.466 421.466 490.664 414.988 481.555C408.509 472.446 406.092 460.281 405.318 448.676C403.384 422.432 406.923 396.11 407.426 369.787C407.562 362.051 407.426 354.315 404.429 347.198C418.295 337.528 434.868 331.726 451.402 328.496C453.099 330.72 455.284 332.524 457.789 333.768C460.294 335.012 463.051 335.663 465.848 335.671C468.571 335.824 471.292 335.335 473.791 334.243C476.29 333.151 478.498 331.488 480.236 329.386" fill="#FFCE45"/>
<path d="M535.101 466.371C534.443 458.809 539.819 450.048 537.905 442.738C533.031 424.152 523.865 405.991 525.837 386.902C521.607 388.749 518.072 391.891 515.743 395.876C514.129 399.369 513.354 403.19 513.48 407.036C513.48 414.772 514.814 422.314 515.124 429.973C515.433 437.632 514.466 445.716 510.154 451.982C505.164 459.215 496.617 462.871 488.204 465.114C482.558 466.568 476.838 467.723 471.07 468.576C464.489 469.877 457.756 470.235 451.074 469.64C444.304 468.992 438.017 465.849 433.437 460.821C426.514 452.601 426.727 440.649 425.47 429.876C424.1 418.027 420.553 406.533 415.008 395.973C413.569 392.717 411.294 389.901 408.413 387.811C407.388 407.036 396.268 427.207 397.583 446.374C398.376 457.978 410.057 468.905 416.323 478.304C422.588 487.704 431.968 493.216 441.946 496.291C451.925 499.366 462.387 499.946 472.753 500.41C489.558 501.164 507.195 501.474 522.202 493.254C524.968 491.832 527.462 489.934 529.57 487.646C534.366 482.114 535.681 473.837 535.101 466.371Z" fill="#FFA748"/>
<path d="M412.842 341.996C419.107 369.885 413.712 402.802 406.75 430.516C404.681 438.755 405.125 447.787 408.065 451.964C411.004 456.142 416.4 458.888 421.215 461.112C431.619 465.925 440.95 472.778 448.657 481.265C452.247 484.686 454.999 488.888 456.702 493.546C457.524 495.884 457.763 498.387 457.395 500.838C457.028 503.289 456.066 505.613 454.594 507.606C452.975 509.333 451 510.687 448.806 511.575C446.613 512.464 444.252 512.865 441.888 512.751C437.171 512.484 432.499 511.68 427.964 510.353C420.26 508.547 412.421 507.37 404.526 506.833C397.699 506.369 390.757 506.369 384.182 504.454C374.773 501.544 366.81 495.19 361.884 486.661C357.039 478.124 355.009 468.278 356.083 458.521C356.734 453.338 357.801 448.215 359.274 443.203C364.882 422.316 372.617 404.039 379.695 383.597C383.028 374.706 387.514 366.292 393.039 358.57C398.144 351.337 404.042 343.466 412.764 341.977" fill="#FFCE45"/>
<path d="M466.525 493.735C466.525 493.735 447.863 489.093 440.863 493.096C433.862 497.1 423.265 502.941 423.593 510.367V513.423C423.593 513.423 473.642 514.893 477.742 510.367" fill="#E8A17E"/>
<path d="M522.299 339.906C531.465 340.97 541.483 351.646 547.806 360.871C554.13 370.096 558.462 380.54 562.717 390.887L586.658 449.024C589.337 454.948 591.405 461.13 592.827 467.475C593.827 472.784 593.918 478.225 593.098 483.566C592.588 487.978 590.957 492.186 588.36 495.789C584.492 500.701 578.4 503.196 572.56 505.459C560.241 510.139 547.594 514.529 534.463 515.438C529.277 515.712 524.081 515.712 518.895 515.438C504.565 514.916 490.158 514.394 476.06 511.764C475.03 511.649 474.043 511.291 473.179 510.719C472.39 509.996 471.787 509.094 471.419 508.089L467.164 498.786C466.227 497.12 465.728 495.244 465.714 493.332C466.182 490.815 467.558 488.558 469.582 486.989C474.568 482.38 480.27 478.611 486.464 475.829C499.17 470.124 513.693 468.693 525.644 461.518C527.119 460.688 528.472 459.66 529.667 458.462C534.076 453.782 533.805 446.258 531.33 440.34C528.855 434.422 527.133 428.736 524.716 422.818C519.321 409.589 516.633 400.963 516.342 389.669C515.917 373.578 517.135 355.243 522.26 339.984" fill="#FFCE45"/>
<path d="M473.797 483.699C475.434 486.033 476.815 488.536 477.916 491.165C480.853 497.85 482.6 504.998 483.079 512.284C483.079 513.193 484.549 513.193 484.491 512.284C484.006 504.955 482.279 497.761 479.386 491.01C478.237 488.172 476.771 485.473 475.015 482.964C474.474 482.249 473.255 482.964 473.797 483.68V483.699Z" fill="#FFA748"/>
<path d="M721.603 517.816H65.9455C62.7094 517.816 60.0859 520.44 60.0859 523.676V524.141C60.0859 527.377 62.7094 530.001 65.9455 530.001H721.603C724.839 530.001 727.463 527.377 727.463 524.141V523.676C727.463 520.44 724.839 517.816 721.603 517.816Z" fill="#345D95"/>
<path d="M552.331 512.152H326.63C326.096 512.152 325.663 512.585 325.663 513.119V516.852C325.663 517.386 326.096 517.819 326.63 517.819H552.331C552.865 517.819 553.298 517.386 553.298 516.852V513.119C553.298 512.585 552.865 512.152 552.331 512.152Z" fill="#26476D"/>
<path d="M425.566 517.816H231.348L221.969 382.957H412.28L425.566 517.816Z" fill="#26476D"/>
<path d="M418.953 517.816H224.735L215.355 382.957H405.686L418.953 517.816Z" fill="#C5E1F9"/>
<path opacity="0.27" d="M317.154 461.982C323.562 461.982 328.757 456.786 328.757 450.378C328.757 443.969 323.562 438.773 317.154 438.773C310.746 438.773 305.551 443.969 305.551 450.378C305.551 456.786 310.746 461.982 317.154 461.982Z" fill="#26476D"/>
<path opacity="0.07" d="M216.979 406.266L224.715 517.704H418.952L416.361 491.363C314.137 478.134 243.667 428.275 216.979 406.266Z" fill="#26476D"/>
</g>
<defs>
<clipPath id="clip0">
<rect width="786" height="530" fill="white"/>
</clipPath>
</defs>
</svg>
