<?xml version="1.0" standalone="no"?>
<!DOCTYPE svg PUBLIC "-//W3C//DTD SVG 20010904//EN"
 "http://www.w3.org/TR/2001/REC-SVG-20010904/DTD/svg10.dtd">
<svg version="1.0" xmlns="http://www.w3.org/2000/svg"
 width="500.000000pt" height="500.000000pt" viewBox="0 0 500.000000 500.000000"
 preserveAspectRatio="xMidYMid meet">
<metadata>
Created by potrace 1.14, written by Peter Selinger 2001-2017
</metadata>
<g transform="translate(0.000000,500.000000) scale(0.100000,-0.100000)"
fill="#000000" stroke="none">
<path d="M1931 4203 c-260 -133 -164 -529 129 -527 84 1 145 30 205 96 124
138 82 346 -88 435 -20 10 -62 18 -112 20 -71 3 -86 1 -134 -24z"/>
<path d="M1174 4022 c-180 -62 -329 -253 -429 -550 -27 -81 -28 -84 -11 -118
19 -40 72 -68 111 -58 35 9 70 54 90 116 28 87 111 249 160 310 61 78 131 118
206 118 31 0 58 -3 62 -6 3 -4 -13 -32 -37 -63 -129 -167 -301 -532 -372 -790
-19 -66 -23 -44 42 -221 24 -65 28 -90 28 -185 0 -125 -14 -187 -71 -299 -47
-94 -91 -154 -189 -257 -109 -113 -124 -171 -69 -256 40 -60 139 -82 200 -44
43 26 158 144 219 226 148 197 214 371 223 593 3 67 9 122 13 122 4 0 34 -19
66 -43 104 -77 172 -169 206 -280 29 -96 23 -245 -17 -378 -33 -112 -30 -152
16 -204 56 -64 150 -70 214 -14 38 34 65 96 98 229 32 130 29 324 -7 443 -31
104 -63 170 -121 252 -47 67 -145 163 -217 214 -52 37 -52 36 -8 141 55 129
151 236 268 298 l62 33 66 -56 c161 -137 354 -222 544 -241 l73 -7 -36 47
c-41 54 -52 91 -38 130 8 20 8 28 -2 30 -6 2 -43 11 -82 20 -178 43 -267 107
-549 393 -245 249 -318 308 -434 349 -84 29 -202 32 -278 6z"/>
<path d="M3547 3586 c-132 -48 -207 -160 -194 -294 6 -73 33 -127 89 -178 62
-57 121 -78 205 -72 84 6 137 32 192 94 77 88 91 211 35 315 -64 117 -209 177
-327 135z"/>
<path d="M2569 3261 c-46 -47 -41 -92 20 -166 162 -197 435 -323 743 -342 l98
-6 49 -101 c67 -136 82 -221 65 -349 l-7 -46 -69 35 c-288 145 -554 69 -735
-208 -94 -144 -140 -283 -114 -350 24 -62 107 -107 175 -94 57 11 97 54 134
144 18 44 55 111 82 150 40 56 60 75 105 97 44 22 63 26 98 21 88 -13 200 -80
307 -182 68 -65 102 -84 149 -84 l28 0 6 -153 c8 -220 48 -382 151 -617 63
-141 124 -240 163 -263 97 -56 220 9 231 122 3 41 -3 60 -67 186 -84 167 -134
315 -155 458 -24 160 -18 256 24 395 63 204 114 564 108 763 -2 85 0 139 6
139 24 0 112 -108 131 -160 26 -70 26 -267 1 -378 -9 -40 -16 -82 -16 -94 0
-30 63 -88 94 -88 40 0 82 25 95 57 43 106 63 361 37 483 -53 248 -227 401
-483 425 -60 6 -95 0 -303 -49 -184 -44 -253 -56 -316 -56 -159 0 -362 51
-481 121 -32 19 -97 72 -144 118 -104 100 -105 101 -147 101 -24 0 -42 -9 -63
-29z"/>
<path d="M2760 3241 c29 -42 104 -104 108 -91 2 6 1 27 -3 46 -7 40 -52 74
-98 74 l-28 0 21 -29z"/>
<path d="M480 1170 l0 -500 1065 0 1065 0 0 500 0 500 -1065 0 -1065 0 0 -500z"/>
</g>
</svg>
